<svg width="676" height="240" viewBox="0 0 676 240" fill="none" xmlns="http://www.w3.org/2000/svg">
<mask id="mask0_10153_892" style="mask-type:luminance" maskUnits="userSpaceOnUse" x="-278" y="-18" width="1231" height="308">
<path d="M-277.328 -18H952.324V289.413H-277.328V-18Z" fill="url(#paint0_radial_10153_892)"/>
</mask>
<g mask="url(#mask0_10153_892)">
<path d="M-18.749 -18L-0.913985 -7.70333V12.8917L-18.749 23.1883L-36.584 12.8917V-7.70333L-18.749 -18ZM17.0843 -18L34.9193 -7.70333V12.8917L17.0843 23.1883L-0.750652 12.8917V-7.70333L17.0843 -18ZM160.418 -18L178.253 -7.70333V12.8917L160.418 23.1883L142.583 12.8917V-7.70333L160.418 -18ZM267.918 -18L285.753 -7.70333V12.8917L267.918 23.1883L250.083 12.8917V-7.70333L267.918 -18ZM303.751 -18L321.586 -7.70333V12.8917L303.751 23.1883L285.916 12.8917V-7.70333L303.751 -18Z" stroke="#DDDDDD" stroke-width="0.296556"/>
<path d="M375.419 -18L393.254 -7.70333V12.8917L375.419 23.1883L357.584 12.8917V-7.70333L375.419 -18Z" fill="#DDDDDD" fill-opacity="0.0196078" stroke="#DDDDDD" stroke-width="0.296556"/>
<path d="M411.251 -18L429.086 -7.70333V12.8917L411.251 23.1883L393.416 12.8917V-7.70333L411.251 -18ZM518.751 -18L536.586 -7.70333V12.8917L518.751 23.1883L500.916 12.8917V-7.70333L518.751 -18Z" stroke="#DDDDDD" stroke-width="0.296556"/>
<path d="M590.419 -18L608.254 -7.70333V12.8917L590.419 23.1883L572.584 12.8917V-7.70333L590.419 -18Z" fill="#DDDDDD" fill-opacity="0.494118" stroke="#DDDDDD" stroke-width="0.296556"/>
<path d="M662.086 -18L679.921 -7.70333V12.8917L662.086 23.1883L644.251 12.8917V-7.70333L662.086 -18ZM805.419 -18L823.254 -7.70333V12.8917L805.419 23.1883L787.584 12.8917V-7.70333L805.419 -18ZM841.252 -18L859.087 -7.70333V12.8917L841.252 23.1883L823.417 12.8917V-7.70333L841.252 -18ZM-108.331 12.8908L-90.496 23.1875V43.7817L-108.331 54.0783L-126.166 43.7817V23.1875L-108.331 12.8908ZM-36.6644 12.8908L-18.8294 23.1875V43.7817L-36.6644 54.0783L-54.4994 43.7817V23.1875L-36.6644 12.8908ZM-0.831025 12.8908L17.004 23.1875V43.7817L-0.831025 54.0783L-18.666 43.7817V23.1875L-0.831025 12.8908ZM142.502 12.8908L160.337 23.1875V43.7817L142.502 54.0783L124.667 43.7817V23.1875L142.502 12.8908ZM178.336 12.8908L196.171 23.1875V43.7817L178.336 54.0783L160.501 43.7817V23.1875L178.336 12.8908Z" stroke="#DDDDDD" stroke-width="0.296556"/>
<path d="M214.169 12.8906L232.004 23.1873V43.7815L214.169 54.0781L196.334 43.7815V23.1873L214.169 12.8906Z" fill="#DDDDDD" stroke="#DDDDDD" stroke-width="0.296556"/>
<path d="M250.001 12.8906L267.836 23.1873V43.7815L250.001 54.0781L232.166 43.7815V23.1873L250.001 12.8906Z" fill="#DDDDDD" fill-opacity="0.211765" stroke="#DDDDDD" stroke-width="0.296556"/>
<path d="M285.835 12.8909L303.67 23.1875V43.7817L285.835 54.0784L268 43.7817V23.1875L285.835 12.8909Z" fill="#DDDDDD" fill-opacity="0.576471" stroke="#DDDDDD" stroke-width="0.296556"/>
<path d="M465.001 12.8906L482.836 23.1873V43.7815L465.001 54.0781L447.166 43.7815V23.1873L465.001 12.8906ZM500.834 12.8906L518.669 23.1873V43.7815L500.834 54.0781L482.999 43.7815V23.1873L500.834 12.8906ZM536.668 12.8906L554.503 23.1873V43.7815L536.668 54.0781L518.833 43.7815V23.1873L536.668 12.8906ZM572.501 12.8906L590.336 23.1873V43.7815L572.501 54.0781L554.666 43.7815V23.1873L572.501 12.8906ZM608.334 12.8906L626.169 23.1873V43.7815L608.334 54.0781L590.499 43.7815V23.1873L608.334 12.8906Z" stroke="#DDDDDD" stroke-width="0.296556"/>
<path d="M680.001 12.8906L697.836 23.1873V43.7815L680.001 54.0781L662.166 43.7815V23.1873L680.001 12.8906Z" fill="#DDDDDD" fill-opacity="0.905882" stroke="#DDDDDD" stroke-width="0.296556"/>
<path d="M787.502 12.8909L805.337 23.1875V43.7817L787.502 54.0784L769.667 43.7817V23.1875L787.502 12.8909ZM-90.415 43.7817L-72.58 54.0784V74.6725L-90.415 84.9692L-108.25 74.6725V54.0784L-90.415 43.7817ZM-54.5817 43.7817L-36.7467 54.0784V74.6725L-54.5817 84.9692L-72.4167 74.6725V54.0784L-54.5817 43.7817ZM-18.7483 43.7817L-0.913328 54.0784V74.6725L-18.7483 84.9692L-36.5833 74.6725V54.0784L-18.7483 43.7817Z" stroke="#DDDDDD" stroke-width="0.296556"/>
<path d="M17.085 43.7812L34.92 54.0779V74.6721L17.085 84.9688L-0.75 74.6721V54.0779L17.085 43.7812Z" fill="#DDDDDD" fill-opacity="0.0470588" stroke="#DDDDDD" stroke-width="0.296556"/>
<path d="M52.919 43.7812L70.754 54.0779V74.6721L52.919 84.9688L35.084 74.6721V54.0779L52.919 43.7812Z" fill="#DDDDDD" fill-opacity="0.811765" stroke="#DDDDDD" stroke-width="0.296556"/>
<path d="M88.751 43.7812L106.586 54.0779V74.6721L88.751 84.9687L70.916 74.6721V54.0779L88.751 43.7812ZM124.584 43.7812L142.419 54.0779V74.6721L124.584 84.9687L106.749 74.6721V54.0779L124.584 43.7812Z" stroke="#DDDDDD" stroke-width="0.296556"/>
<path d="M196.251 43.7812L214.086 54.0779V74.6721L196.251 84.9688L178.416 74.6721V54.0779L196.251 43.7812Z" fill="#DDDDDD" fill-opacity="0.737255" stroke="#DDDDDD" stroke-width="0.296556"/>
<path d="M303.751 43.7812L321.586 54.0779V74.6721L303.751 84.9687L285.916 74.6721V54.0779L303.751 43.7812ZM375.418 43.7812L393.253 54.0779V74.6721L375.418 84.9687L357.583 74.6721V54.0779L375.418 43.7812Z" stroke="#DDDDDD" stroke-width="0.296556"/>
<path d="M411.251 43.7812L429.086 54.0779V74.6721L411.251 84.9688L393.416 74.6721V54.0779L411.251 43.7812Z" fill="#DDDDDD" fill-opacity="0.839216" stroke="#DDDDDD" stroke-width="0.296556"/>
<path d="M447.085 43.7812L464.92 54.0779V74.6721L447.085 84.9687L429.25 74.6721V54.0779L447.085 43.7812ZM482.918 43.7812L500.753 54.0779V74.6721L482.918 84.9687L465.083 74.6721V54.0779L482.918 43.7812Z" stroke="#DDDDDD" stroke-width="0.296556"/>
<path d="M554.585 43.7812L572.42 54.0779V74.6721L554.585 84.9688L536.75 74.6721V54.0779L554.585 43.7812Z" fill="#DDDDDD" fill-opacity="0.760784" stroke="#DDDDDD" stroke-width="0.296556"/>
<path d="M590.419 43.7812L608.254 54.0779V74.6721L590.419 84.9687L572.584 74.6721V54.0779L590.419 43.7812ZM662.086 43.7812L679.921 54.0779V74.6721L662.086 84.9687L644.251 74.6721V54.0779L662.086 43.7812Z" stroke="#DDDDDD" stroke-width="0.296556"/>
<path d="M-0.831022 74.6729L17.004 84.9695V105.564L-0.831022 115.86L-18.666 105.564V84.9695L-0.831022 74.6729ZM70.8357 74.6729L88.6706 84.9695V105.564L70.8357 115.86L53.0006 105.564V84.9695L70.8357 74.6729ZM178.336 74.6729L196.171 84.9695V105.564L178.336 115.86L160.501 105.564V84.9695L178.336 74.6729Z" stroke="#DDDDDD" stroke-width="0.296556"/>
<path d="M214.169 74.6729L232.004 84.9695V105.564L214.169 115.86L196.334 105.564V84.9695L214.169 74.6729Z" fill="#DDDDDD" fill-opacity="0.886275" stroke="#DDDDDD" stroke-width="0.296556"/>
<path d="M285.835 74.6729L303.67 84.9695V105.564L285.835 115.86L268 105.564V84.9695L285.835 74.6729Z" fill="#DDDDDD" fill-opacity="0.309804" stroke="#DDDDDD" stroke-width="0.296556"/>
<path d="M321.668 74.6729L339.503 84.9695V105.564L321.668 115.86L303.833 105.564V84.9695L321.668 74.6729ZM357.501 74.6729L375.336 84.9695V105.564L357.501 115.86L339.666 105.564V84.9695L357.501 74.6729ZM500.834 74.6729L518.669 84.9695V105.564L500.834 115.86L482.999 105.564V84.9695L500.834 74.6729ZM536.668 74.6729L554.503 84.9695V105.564L536.668 115.86L518.833 105.564V84.9695L536.668 74.6729ZM572.501 74.6729L590.336 84.9695V105.564L572.501 115.86L554.666 105.564V84.9695L572.501 74.6729ZM608.334 74.6729L626.169 84.9695V105.564L608.334 115.86L590.499 105.564V84.9695L608.334 74.6729ZM644.168 74.6729L662.003 84.9695V105.564L644.168 115.86L626.333 105.564V84.9695L644.168 74.6729ZM680.001 74.6729L697.836 84.9695V105.564L680.001 115.86L662.166 105.564V84.9695L680.001 74.6729ZM787.501 74.6729L805.336 84.9695V105.564L787.501 115.86L769.666 105.564V84.9695L787.501 74.6729ZM823.334 74.6729L841.169 84.9695V105.564L823.334 115.86L805.499 105.564V84.9695L823.334 74.6729ZM-126.249 105.564L-108.414 115.86V136.455L-126.249 146.75L-144.084 136.455V115.86L-126.249 105.564ZM-54.5823 105.564L-36.7473 115.86V136.455L-54.5823 146.75L-72.4173 136.455V115.86L-54.5823 105.564ZM-18.749 105.564L-0.913987 115.86V136.455L-18.749 146.75L-36.584 136.455V115.86L-18.749 105.564Z" stroke="#DDDDDD" stroke-width="0.296556"/>
<path d="M17.085 105.563L34.92 115.86V136.454L17.085 146.75L-0.75 136.454V115.86L17.085 105.563Z" fill="#DDDDDD" fill-opacity="0.184314" stroke="#DDDDDD" stroke-width="0.296556"/>
<path d="M124.585 105.563L142.42 115.86V136.454L124.585 146.75L106.75 136.454V115.86L124.585 105.563Z" fill="#DDDDDD" fill-opacity="0.0470588" stroke="#DDDDDD" stroke-width="0.296556"/>
<path d="M160.419 105.563L178.254 115.86V136.454L160.419 146.75L142.584 136.454V115.86L160.419 105.563ZM232.086 105.563L249.921 115.86V136.454L232.086 146.75L214.251 136.454V115.86L232.086 105.563ZM267.919 105.563L285.754 115.86V136.454L267.919 146.75L250.084 136.454V115.86L267.919 105.563Z" stroke="#DDDDDD" stroke-width="0.296556"/>
<path d="M339.585 105.563L357.42 115.86V136.454L339.585 146.75L321.75 136.454V115.86L339.585 105.563Z" fill="#DDDDDD" fill-opacity="0.403922" stroke="#DDDDDD" stroke-width="0.296556"/>
<path d="M375.419 105.563L393.254 115.86V136.454L375.419 146.75L357.584 136.454V115.86L375.419 105.563ZM411.252 105.563L429.087 115.86V136.454L411.252 146.75L393.417 136.454V115.86L411.252 105.563Z" stroke="#DDDDDD" stroke-width="0.296556"/>
<path d="M447.085 105.563L464.92 115.86V136.454L447.085 146.75L429.25 136.454V115.86L447.085 105.563Z" fill="#DDDDDD" fill-opacity="0.427451" stroke="#DDDDDD" stroke-width="0.296556"/>
<path d="M518.751 105.563L536.586 115.86V136.454L518.751 146.75L500.916 136.454V115.86L518.751 105.563Z" fill="#DDDDDD" fill-opacity="0.403922" stroke="#DDDDDD" stroke-width="0.296556"/>
<path d="M554.585 105.563L572.42 115.86V136.454L554.585 146.75L536.75 136.454V115.86L554.585 105.563ZM662.085 105.563L679.92 115.86V136.454L662.085 146.75L644.25 136.454V115.86L662.085 105.563ZM769.585 105.563L787.42 115.86V136.454L769.585 146.751L751.75 136.454V115.86L769.585 105.563ZM805.418 105.563L823.253 115.86V136.454L805.418 146.751L787.583 136.454V115.86L805.418 105.563Z" stroke="#DDDDDD" stroke-width="0.296556"/>
<path d="M-108.331 136.454L-90.496 146.75V167.344L-108.331 177.642L-126.166 167.345V146.75L-108.331 136.454ZM-72.4977 136.454L-54.6627 146.751V167.345L-72.4977 177.642L-90.3327 167.345V146.75L-72.4977 136.454ZM-0.831016 136.454L17.004 146.751V167.345L-0.831016 177.642L-18.666 167.345V146.75L-0.831016 136.454ZM142.502 136.454L160.337 146.751V167.345L142.502 177.642L124.667 167.345V146.75L142.502 136.454Z" stroke="#DDDDDD" stroke-width="0.296556"/>
<path d="M178.335 136.454L196.17 146.751V167.345L178.335 177.642L160.5 167.345V146.75L178.335 136.454Z" fill="#DDDDDD" fill-opacity="0.623529" stroke="#DDDDDD" stroke-width="0.296556"/>
<path d="M250.001 136.454L267.836 146.751V167.345L250.001 177.642L232.166 167.345V146.75L250.001 136.454ZM321.668 136.454L339.503 146.751V167.345L321.668 177.642L303.833 167.345V146.75L321.668 136.454ZM393.334 136.454L411.169 146.751V167.345L393.334 177.642L375.499 167.345V146.75L393.334 136.454ZM429.168 136.454L447.003 146.751V167.345L429.168 177.642L411.333 167.345V146.75L429.168 136.454Z" stroke="#DDDDDD" stroke-width="0.296556"/>
<path d="M500.835 136.454L518.67 146.751V167.345L500.835 177.642L483 167.345V146.75L500.835 136.454Z" fill="#DDDDDD" fill-opacity="0.270588" stroke="#DDDDDD" stroke-width="0.296556"/>
<path d="M536.669 136.454L554.504 146.751V167.345L536.669 177.642L518.834 167.345V146.75L536.669 136.454Z" fill="#DDDDDD" fill-opacity="0.596078" stroke="#DDDDDD" stroke-width="0.296556"/>
<path d="M572.501 136.454L590.336 146.751V167.345L572.501 177.642L554.666 167.345V146.75L572.501 136.454Z" fill="#DDDDDD" fill-opacity="0.772549" stroke="#DDDDDD" stroke-width="0.296556"/>
<path d="M644.169 136.454L662.004 146.751V167.345L644.169 177.642L626.334 167.345V146.75L644.169 136.454Z" fill="#DDDDDD" fill-opacity="0.141176" stroke="#DDDDDD" stroke-width="0.296556"/>
<path d="M680.002 136.454L697.837 146.751V167.345L680.002 177.642L662.167 167.345V146.75L680.002 136.454ZM715.835 136.454L733.67 146.751V167.345L715.835 177.642L698 167.345V146.75L715.835 136.454ZM751.668 136.454L769.503 146.751V167.345L751.668 177.642L733.833 167.345V146.75L751.668 136.454ZM787.502 136.454L805.337 146.751V167.345L787.502 177.642L769.667 167.345V146.75L787.502 136.454ZM-90.415 167.345L-72.58 177.642V198.236L-90.415 208.533L-108.25 198.236V177.642L-90.415 167.345ZM-54.5817 167.345L-36.7467 177.642V198.236L-54.5817 208.533L-72.4167 198.236V177.642L-54.5817 167.345ZM17.085 167.345L34.92 177.642V198.236L17.085 208.533L-0.749995 198.236V177.642L17.085 167.345ZM52.9183 167.345L70.7533 177.642V198.236L52.9183 208.533L35.0833 198.236V177.642L52.9183 167.345ZM88.7517 167.345L106.587 177.642V198.236L88.7517 208.533L70.9167 198.236V177.642L88.7517 167.345ZM124.585 167.345L142.42 177.642V198.236L124.585 208.533L106.75 198.236V177.642L124.585 167.345ZM160.418 167.345L178.253 177.642V198.236L160.418 208.533L142.583 198.236V177.642L160.418 167.345ZM196.252 167.345L214.087 177.642V198.236L196.252 208.533L178.417 198.236V177.642L196.252 167.345ZM232.085 167.345L249.92 177.642V198.236L232.085 208.533L214.25 198.236V177.642L232.085 167.345ZM375.418 167.345L393.253 177.642V198.236L375.418 208.533L357.583 198.236V177.642L375.418 167.345ZM411.252 167.345L429.087 177.642V198.236L411.252 208.533L393.417 198.236V177.642L411.252 167.345ZM447.085 167.345L464.92 177.642V198.236L447.085 208.533L429.25 198.236V177.642L447.085 167.345Z" stroke="#DDDDDD" stroke-width="0.296556"/>
<path d="M554.585 167.345L572.42 177.641V198.236L554.585 208.532L536.75 198.236V177.641L554.585 167.345Z" fill="#DDDDDD" fill-opacity="0.607843" stroke="#DDDDDD" stroke-width="0.296556"/>
<path d="M590.419 167.345L608.254 177.641V198.236L590.419 208.532L572.584 198.236V177.641L590.419 167.345Z" fill="#DDDDDD" fill-opacity="0.478431" stroke="#DDDDDD" stroke-width="0.296556"/>
<path d="M626.251 167.345L644.086 177.641V198.236L626.251 208.532L608.416 198.236V177.641L626.251 167.345Z" stroke="#DDDDDD" stroke-width="0.296556"/>
<path d="M70.835 198.235L88.67 208.532V229.126L70.835 239.423L53 229.126V208.532L70.835 198.235Z" fill="#DDDDDD" fill-opacity="0.713726" stroke="#DDDDDD" stroke-width="0.296556"/>
<path d="M106.669 198.236L124.504 208.533V229.127L106.669 239.424L88.834 229.127V208.533L106.669 198.236ZM142.502 198.236L160.337 208.533V229.127L142.502 239.424L124.667 229.127V208.533L142.502 198.236ZM178.336 198.236L196.171 208.533V229.127L178.336 239.424L160.501 229.127V208.533L178.336 198.236ZM250.002 198.236L267.837 208.533V229.127L250.002 239.424L232.167 229.127V208.533L250.002 198.236Z" stroke="#DDDDDD" stroke-width="0.296556"/>
<path d="M321.669 198.236L339.504 208.533V229.127L321.669 239.424L303.834 229.127V208.533L321.669 198.236Z" fill="#DDDDDD" fill-opacity="0.313726" stroke="#DDDDDD" stroke-width="0.296556"/>
<path d="M357.501 198.236L375.336 208.533V229.127L357.501 239.424L339.666 229.127V208.533L357.501 198.236ZM393.334 198.236L411.169 208.533V229.127L393.334 239.424L375.499 229.127V208.533L393.334 198.236ZM429.168 198.236L447.003 208.533V229.127L429.168 239.424L411.333 229.127V208.533L429.168 198.236Z" stroke="#DDDDDD" stroke-width="0.296556"/>
<path d="M465.001 198.236L482.836 208.533V229.127L465.001 239.424L447.166 229.127V208.533L465.001 198.236Z" fill="#DDDDDD" fill-opacity="0.976471" stroke="#DDDDDD" stroke-width="0.296556"/>
<path d="M500.835 198.235L518.67 208.532V229.126L500.835 239.423L483 229.126V208.532L500.835 198.235ZM536.668 198.235L554.503 208.532V229.126L536.668 239.423L518.833 229.126V208.532L536.668 198.235ZM608.335 198.235L626.17 208.532V229.126L608.335 239.423L590.5 229.126V208.532L608.335 198.235Z" stroke="#DDDDDD" stroke-width="0.296556"/>
<path d="M823.335 198.235L841.17 208.532V229.126L823.335 239.423L805.5 229.126V208.532L823.335 198.235ZM-90.415 229.126L-72.58 239.423V260.017L-90.415 270.314L-108.25 260.017V239.423L-90.415 229.126ZM-54.5817 229.126L-36.7467 239.423V260.017L-54.5817 270.314L-72.4167 260.017V239.423L-54.5817 229.126ZM-18.7483 229.126L-0.913335 239.423V260.017L-18.7483 270.314L-36.5833 260.017V239.423L-18.7483 229.126Z" stroke="#DDDDDD" stroke-width="0.296556"/>
<path d="M52.919 229.127L70.754 239.424V260.018L52.919 270.314L35.084 260.018V239.424L52.919 229.127Z" fill="#DDDDDD" fill-opacity="0.6" stroke="#DDDDDD" stroke-width="0.296556"/>
<path d="M88.751 229.127L106.586 239.424V260.018L88.751 270.314L70.916 260.018V239.424L88.751 229.127Z" stroke="#DDDDDD" stroke-width="0.296556"/>
<path d="M196.251 229.127L214.086 239.424V260.018L196.251 270.314L178.416 260.018V239.424L196.251 229.127Z" fill="#DDDDDD" fill-opacity="0.862745" stroke="#DDDDDD" stroke-width="0.296556"/>
<path d="M232.085 229.127L249.92 239.424V260.018L232.085 270.314L214.25 260.018V239.424L232.085 229.127ZM447.085 229.127L464.92 239.424V260.018L447.085 270.314L429.25 260.018V239.424L447.085 229.127ZM482.918 229.127L500.753 239.424V260.018L482.918 270.314L465.083 260.018V239.424L482.918 229.127Z" stroke="#DDDDDD" stroke-width="0.296556"/>
<path d="M518.751 229.127L536.586 239.424V260.018L518.751 270.314L500.916 260.018V239.424L518.751 229.127Z" fill="#DDDDDD" fill-opacity="0.0745098" stroke="#DDDDDD" stroke-width="0.296556"/>
<path d="M554.585 229.127L572.42 239.424V260.018L554.585 270.314L536.75 260.018V239.424L554.585 229.127Z" fill="#DDDDDD" fill-opacity="0.517647" stroke="#DDDDDD" stroke-width="0.296556"/>
<path d="M590.419 229.127L608.254 239.424V260.018L590.419 270.314L572.584 260.018V239.424L590.419 229.127Z" stroke="#DDDDDD" stroke-width="0.296556"/>
<path d="M662.085 229.127L679.92 239.424V260.018L662.085 270.314L644.25 260.018V239.424L662.085 229.127Z" fill="#DDDDDD" fill-opacity="0.176471" stroke="#DDDDDD" stroke-width="0.296556"/>
<path d="M733.752 229.127L751.587 239.424V260.018L733.752 270.314L715.917 260.018V239.424L733.752 229.127ZM769.586 229.127L787.421 239.424V260.018L769.586 270.314L751.751 260.018V239.424L769.586 229.127ZM-0.831021 260.017L17.004 270.314V290.909L-0.831021 301.205L-18.666 290.909V270.314L-0.831021 260.017ZM35.0023 260.017L52.8373 270.314V290.909L35.0023 301.205L17.1673 290.909V270.314L35.0023 260.017ZM106.669 260.017L124.504 270.314V290.909L106.669 301.205L88.834 290.909V270.314L106.669 260.017ZM142.502 260.017L160.337 270.314V290.909L142.502 301.205L124.667 290.909V270.314L142.502 260.017ZM214.169 260.017L232.004 270.314V290.909L214.169 301.205L196.334 290.909V270.314L214.169 260.017ZM250.002 260.017L267.837 270.314V290.909L250.002 301.205L232.167 290.909V270.314L250.002 260.017ZM285.836 260.017L303.671 270.314V290.909L285.836 301.205L268.001 290.909V270.314L285.836 260.017ZM321.669 260.017L339.504 270.314V290.909L321.669 301.205L303.834 290.909V270.314L321.669 260.017ZM357.502 260.017L375.337 270.314V290.909L357.502 301.205L339.667 290.909V270.314L357.502 260.017Z" stroke="#DDDDDD" stroke-width="0.296556"/>
</g>
<defs>
<radialGradient id="paint0_radial_10153_892" cx="0" cy="0" r="1" gradientUnits="userSpaceOnUse" gradientTransform="translate(337.498 135.706) scale(614.826 153.706)">
<stop stop-color="white"/>
<stop offset="1" stop-color="white" stop-opacity="0"/>
</radialGradient>
</defs>
</svg>
