<svg width="379" height="184" viewBox="0 0 379 184" fill="none" xmlns="http://www.w3.org/2000/svg">
<g clip-path="url(#clip0_6_2164)">
<rect width="379" height="184" rx="16" fill="white"/>
<g filter="url(#filter0_f_6_2164)">
<path d="M353 25C310.193 25 275 61.8808 275 108C275 154.119 310.193 191 353 191C395.807 191 431 154.119 431 108C431 61.8808 395.807 25 353 25Z" stroke="#1D7CF3" stroke-opacity="0.07" stroke-width="10"/>
</g>
<g filter="url(#filter1_f_6_2164)">
<path d="M365.5 126C329.89 126 304 149.661 304 175.5C304 201.339 329.89 225 365.5 225C401.11 225 427 201.339 427 175.5C427 149.661 401.11 126 365.5 126Z" stroke="#1D7CF3" stroke-opacity="0.12" stroke-width="18"/>
</g>
</g>
<rect x="0.5" y="0.5" width="378" height="183" rx="15.5" stroke="#0CB2EB"/>
<defs>
<filter id="filter0_f_6_2164" x="260" y="10" width="186" height="196" filterUnits="userSpaceOnUse" color-interpolation-filters="sRGB">
<feFlood flood-opacity="0" result="BackgroundImageFix"/>
<feBlend mode="normal" in="SourceGraphic" in2="BackgroundImageFix" result="shape"/>
<feGaussianBlur stdDeviation="5" result="effect1_foregroundBlur_6_2164"/>
</filter>
<filter id="filter1_f_6_2164" x="275" y="97" width="181" height="157" filterUnits="userSpaceOnUse" color-interpolation-filters="sRGB">
<feFlood flood-opacity="0" result="BackgroundImageFix"/>
<feBlend mode="normal" in="SourceGraphic" in2="BackgroundImageFix" result="shape"/>
<feGaussianBlur stdDeviation="10" result="effect1_foregroundBlur_6_2164"/>
</filter>
<clipPath id="clip0_6_2164">
<rect width="379" height="184" rx="16" fill="white"/>
</clipPath>
</defs>
</svg>
