<svg width="256" height="261" viewBox="0 0 256 261" fill="none" xmlns="http://www.w3.org/2000/svg">
<path d="M203.196 16.9803C190.952 11.1937 177.58 7.84506 164.085 6.87385C139.953 5.13725 115.855 12.2839 92.6589 18.0811C87.7501 19.3082 83.7701 20.5675 79.9164 23.9985C76.5322 27.0117 73.8316 30.7569 71.6389 34.7035C67.4637 42.2167 64.7403 50.5365 59.8559 57.6092C51.0822 70.3116 36.2588 77.7153 27.029 90.0907C18.7904 101.137 15.706 115.332 15.7004 129.113C15.6888 157.279 28.5676 185.603 51.0516 202.568C73.5363 219.533 105.401 223.966 130.915 212.032C152.932 201.733 168.48 181.123 189.557 169.015C201.661 162.062 215.545 157.933 226.082 148.779C238.971 137.581 245.021 120.352 247.577 103.471C250.101 86.8066 249.607 69.178 242.507 53.8918C234.779 37.2539 219.792 24.7967 203.196 16.9803Z" fill="#FCECD8"/>
<path d="M81.4712 260.563C113.882 260.563 140.155 257.948 140.155 254.722C140.155 251.497 113.882 248.882 81.4712 248.882C49.0609 248.882 22.7871 251.497 22.7871 254.722C22.7871 257.948 49.0609 260.563 81.4712 260.563Z" fill="#200026"/>
<path d="M118.822 69.5641C120.179 69.6776 121.576 69.8322 122.77 70.488C123.963 71.1438 124.913 72.4276 124.77 73.7821C124.654 74.8735 123.857 75.7979 122.909 76.3509C121.961 76.9038 120.869 77.1463 119.797 77.381C111.521 79.1933 103.205 81.0117 94.7482 81.5162C93.0366 81.6185 91.2894 81.6625 89.6407 81.1919C87.992 80.7213 86.4334 79.6583 85.7559 78.0836C85.0389 76.4182 85.4277 74.4201 86.4278 72.9077C89.3971 68.4193 95.6571 69.608 100.39 69.3983C106.531 69.1263 112.692 69.0523 118.822 69.5641Z" fill="#EBA37B"/>
<path d="M91.6061 70.2783C92.8677 71.1143 94.156 71.9754 95.0582 73.1914C95.9604 74.4068 96.4138 76.0688 95.8203 77.4611C95.2418 78.8184 93.7833 79.6411 92.3215 79.8402C90.5376 80.0827 88.88 79.4553 87.1428 79.2289C85.1748 78.9724 83.2146 78.7772 81.2933 78.2499C79.1084 77.6497 76.9874 76.6624 75.3493 75.0965C73.8479 73.662 72.8078 71.7924 72.1492 69.8233C71.6674 68.3815 71.3815 66.8101 71.7915 65.3461C72.1664 64.0072 73.1343 62.8468 74.3842 62.2377C77.2928 60.8204 80.4094 62.8613 82.7885 64.4344C85.7299 66.379 88.6669 68.3303 91.6061 70.2783Z" fill="#EBA37B"/>
<path d="M90.9529 69.9868C91.0163 71.2272 90.9396 72.4749 90.7249 73.6987" stroke="black" stroke-width="1.1253" stroke-miterlimit="10" stroke-linecap="round" stroke-linejoin="round"/>
<path d="M86.3028 66.4419C84.1752 70.9414 81.2782 75.0754 77.775 78.6114C73.8963 77.6452 69.9998 76.4621 66.6662 74.2566C63.3326 72.0511 60.5897 68.678 59.9595 64.7303C59.6742 62.9442 59.999 61.0201 60.6031 59.3319C61.1215 57.8846 62.1684 55.5667 63.8204 55.194C64.5202 55.036 65.2505 55.1367 65.9547 55.2702C68.3416 55.7224 70.655 56.5546 72.7866 57.7182C74.8102 58.8229 76.8216 59.9677 78.7685 61.2042C81.3511 62.8452 83.8654 64.5929 86.3028 66.4419Z" fill="#339BFE"/>
<path d="M85.0963 65.7888C83.4064 68.9277 81.4546 71.9253 79.2668 74.7405" stroke="black" stroke-width="1.1253" stroke-miterlimit="10" stroke-linecap="round" stroke-linejoin="round"/>
<path d="M124.422 242.247C123.505 241.942 122.529 241.87 121.568 241.772C116.465 241.25 111.422 239.913 106.847 237.592C105.572 236.945 104.323 236.218 102.954 235.806C99.3211 234.714 95.4468 235.97 91.656 236.115C90.42 240.874 90.5619 246.191 91.1292 251.085C94.0145 251.149 96.8992 251.213 99.7844 251.277C100.123 250.186 100.461 249.097 100.8 248.007C101.005 247.345 108.006 248.685 108.67 249.033C109.676 249.56 110.45 250.362 111.569 250.786C112.742 251.23 113.99 251.47 115.24 251.558C117.592 251.725 119.946 251.385 122.279 251.045C123.446 250.875 124.684 250.673 125.571 249.896C126.785 248.831 126.91 247.11 126.825 245.603C126.728 243.877 126.182 242.832 124.422 242.247Z" fill="#339BFE"/>
<path d="M103.853 239.009C103.497 239.7 103.797 240.714 104.545 240.93C105.002 241.061 105.502 240.881 105.878 240.589C106.254 240.296 106.535 239.902 106.834 239.531C107.922 238.184 109.319 237.087 110.886 236.352C111.525 236.052 112.23 235.807 112.926 235.926C113.621 236.044 114.278 236.638 114.242 237.343C114.215 237.856 113.833 238.298 113.375 238.53C112.916 238.761 112.39 238.816 111.877 238.839C110.453 238.902 109.114 238.745 107.766 238.307C106.517 237.902 104.6 237.561 103.853 239.009Z" stroke="black" stroke-width="1.1253" stroke-miterlimit="10" stroke-linecap="round"/>
<path d="M111.572 241.785C113.027 240.475 114.82 239.542 116.728 239.1" stroke="black" stroke-width="1.1253" stroke-miterlimit="10" stroke-linecap="round"/>
<path d="M114.166 243.169C115.572 241.688 117.374 240.585 119.333 240.005" stroke="black" stroke-width="1.1253" stroke-miterlimit="10" stroke-linecap="round"/>
<path d="M118.342 244.355C119.481 242.734 121.078 241.438 122.899 240.658" stroke="black" stroke-width="1.1253" stroke-miterlimit="10" stroke-linecap="round"/>
<path d="M90.6814 245.775C95.874 246.454 101.186 245.469 106.365 246.238C109.71 246.735 112.93 247.955 116.298 248.257C119.602 248.553 122.914 247.953 126.178 247.356" stroke="black" stroke-width="1.1253" stroke-miterlimit="10" stroke-linecap="round"/>
<path d="M63.3855 145.966L89.1141 236.629H108.519L85.6715 122.39L61.5715 125.207L63.3855 145.966Z" fill="#200026"/>
<path d="M78.7939 127.75C79.8764 129.407 80.9794 131.088 82.4841 132.373C83.9882 133.659 85.9762 134.518 87.9336 134.227" stroke="white" stroke-width="1.1253" stroke-miterlimit="10" stroke-linecap="round" stroke-linejoin="round"/>
<path d="M88.6384 234.326C94.9457 233.42 101.303 232.864 107.672 232.66" stroke="white" stroke-width="1.1253" stroke-miterlimit="10" stroke-linecap="round" stroke-linejoin="round"/>
<path d="M91.0732 180.794C90.5909 180.817 90.1871 181.205 89.9985 181.649C89.8099 182.094 89.7938 182.59 89.7827 183.072C89.7565 184.192 89.7465 185.348 90.1715 186.385C90.5965 187.422 91.5716 188.316 92.6913 188.293" stroke="white" stroke-width="1.1253" stroke-miterlimit="10" stroke-linecap="round" stroke-linejoin="round"/>
<path d="M71.2153 247.881C70.298 247.576 69.3224 247.504 68.3606 247.406C63.2576 246.885 58.2147 245.548 53.6401 243.226C52.3652 242.579 51.1164 241.852 49.7469 241.441C46.1141 240.348 42.2398 241.605 38.449 241.749C37.213 246.509 37.3548 251.826 37.9222 256.719C40.8074 256.783 43.6921 256.847 46.5774 256.911C46.9156 255.821 47.2538 254.731 47.5926 253.641C47.7978 252.979 54.7993 254.319 55.4629 254.668C56.4686 255.194 57.2434 255.996 58.3615 256.42C59.5352 256.864 60.7834 257.104 62.0333 257.192C64.3846 257.359 66.7391 257.019 69.072 256.679C70.2396 256.509 71.4773 256.307 72.3645 255.53C73.5782 254.464 73.7034 252.744 73.6183 251.237C73.5204 249.511 72.9752 248.466 71.2153 247.881Z" fill="#339BFE"/>
<path d="M46.5841 245.277C46.0784 245.947 45.7447 246.882 46.1508 247.616C46.5229 248.289 47.3812 248.535 48.1494 248.514C50.3849 248.451 52.1994 246.739 53.6445 245.033C55.0902 243.326 56.5342 241.421 58.653 240.706C59.3511 240.471 60.1204 240.382 60.8246 240.598C61.5288 240.814 62.1507 241.376 62.3081 242.095C62.5539 243.22 61.5955 244.32 60.4986 244.668C56.0069 246.093 50.173 240.517 46.5841 245.277Z" stroke="black" stroke-width="1.1253" stroke-miterlimit="10" stroke-linecap="round"/>
<path d="M54.6609 247.717C56.7752 246.54 59.1771 245.885 61.5962 245.826" stroke="black" stroke-width="1.1253" stroke-miterlimit="10" stroke-linecap="round"/>
<path d="M58.9011 248.484C60.8157 247.291 62.9918 246.52 65.2301 246.241" stroke="black" stroke-width="1.1253" stroke-miterlimit="10" stroke-linecap="round"/>
<path d="M64.2432 249.269C65.2761 247.889 66.7218 246.821 68.3449 246.241" stroke="black" stroke-width="1.1253" stroke-miterlimit="10" stroke-linecap="round"/>
<path d="M37.9895 251.469C44.0348 251.123 50.1313 251.69 56.0091 253.145C58.8616 253.85 61.6745 254.766 64.5898 255.132C67.5051 255.498 70.5984 255.271 73.151 253.815" stroke="black" stroke-width="1.1253" stroke-miterlimit="10" stroke-linecap="round"/>
<path d="M34.342 131.779L37.1589 242.263H52.8078L62.5104 147.428L69.7088 144.611L72.8388 125.832L34.342 131.779Z" fill="#200026"/>
<path d="M34.54 140.636C36.9909 140.719 39.4617 139.915 41.3947 138.406C43.3271 136.897 44.7066 134.694 45.22 132.297" stroke="white" stroke-width="1.1253" stroke-miterlimit="10" stroke-linecap="round" stroke-linejoin="round"/>
<path d="M66.7202 130.885C66.4053 133.951 66.3875 137.047 66.6662 140.117C65.5966 140.044 64.5119 140.204 63.5095 140.583" stroke="white" stroke-width="1.1253" stroke-miterlimit="10" stroke-linecap="round" stroke-linejoin="round"/>
<path d="M37.1138 238.901C42.3992 238.854 47.683 238.548 52.9385 237.982" stroke="white" stroke-width="1.1253" stroke-miterlimit="10" stroke-linecap="round" stroke-linejoin="round"/>
<path d="M52.7248 183.473C50.8608 185.398 49.6932 187.983 49.4824 190.654C49.4401 191.189 49.4385 191.745 49.6432 192.242C49.8479 192.738 50.3034 193.164 50.8402 193.188" stroke="white" stroke-width="1.1253" stroke-miterlimit="10" stroke-linecap="round" stroke-linejoin="round"/>
<path d="M91.0586 107.524C91.0586 102.473 92.5849 98.4628 95.6376 95.493C98.6898 92.5243 102.853 91.0386 108.126 91.0386C111.901 91.0386 114.912 92.0938 117.16 94.2025C119.408 96.3129 120.532 99.281 120.532 103.111C120.532 107.94 119.004 111.853 115.953 114.85C112.9 117.847 108.931 119.346 104.047 119.346C99.9385 119.346 96.7479 118.291 94.4723 116.182C92.1961 114.073 91.0586 111.187 91.0586 107.524Z" fill="#339BFE"/>
<path d="M96.6601 85.3449L97.826 78.8507C98.8796 73.1347 100.919 68.2225 103.945 64.114C106.97 60.0073 111.757 55.7052 118.307 51.2091C125.189 46.5466 129.56 43.0223 131.42 40.6354C133.279 38.2497 134.209 35.5852 134.209 32.6427C134.209 26.0384 130.517 22.7354 123.136 22.7354C120.36 22.7354 117.404 23.1804 114.269 24.0676C111.132 24.9559 105.54 27.2871 97.4923 31.0613L89.8328 12.6612C102.599 5.72365 114.948 2.25378 126.882 2.25378C136.707 2.25378 144.476 4.68292 150.195 9.53896C155.91 14.3961 158.77 21.1818 158.77 29.8954C158.77 34.5033 157.979 38.6518 156.397 42.3425C154.815 46.0343 152.526 49.448 149.528 52.583C146.531 55.7197 141.257 59.8131 133.709 64.8639C130.156 67.2513 127.478 69.2766 125.675 70.9414C123.871 72.6068 122.414 74.3968 121.304 76.3114C120.193 78.226 119.139 81.2381 118.14 85.3449H96.6601Z" fill="#200026"/>
<path d="M95.5476 83.9492L96.7135 77.455C97.767 71.739 99.8068 66.8268 102.833 62.7184C105.858 58.6116 110.645 54.3096 117.195 49.8134C124.076 45.151 128.447 41.6266 130.307 39.2397C132.166 36.854 133.097 34.1896 133.097 31.247C133.097 24.6421 129.405 21.3391 122.023 21.3391C119.247 21.3391 116.291 21.7841 113.156 22.6713C110.019 23.5597 104.427 25.8909 96.3797 29.665L88.7202 11.2649C101.486 4.32741 113.835 0.857544 125.77 0.857544C135.594 0.857544 143.364 3.28668 149.082 8.14271C154.797 12.9999 157.657 19.7855 157.657 28.4991C157.657 33.1071 156.866 37.2556 155.284 40.9463C153.702 44.6381 151.413 48.0518 148.416 51.1868C145.418 54.3235 140.145 58.4175 132.596 63.4676C129.044 65.855 126.365 67.8803 124.563 69.5452C122.758 71.2106 121.301 73.0006 120.192 74.9152C119.081 76.8298 118.027 79.8419 117.028 83.9487L95.5476 83.9492Z" fill="#339BFE"/>
<path d="M97.8359 6.29376C97.911 8.92314 99.6404 11.33 101.909 12.6617C104.178 13.9933 106.909 14.3593 109.533 14.1758C117.366 13.6284 124.608 8.01312 127.088 0.562744" stroke="white" stroke-width="1.1253" stroke-miterlimit="10" stroke-linecap="round" stroke-linejoin="round"/>
<path d="M129.265 22.4845C131.594 21.3408 133.959 20.1855 136.509 19.7027C139.058 19.2198 141.86 19.4841 143.972 20.992C145.835 22.3226 146.974 24.4892 147.464 26.7258C148.561 31.7321 146.424 37.2957 142.257 40.2799C138.091 43.2642 132.135 43.4967 127.749 40.8467" stroke="white" stroke-width="1.1253" stroke-miterlimit="10" stroke-linecap="round" stroke-linejoin="round"/>
<path d="M124.603 69.208C121.825 65.4328 120.197 60.4126 121.794 56.0055C123.517 51.2496 128.643 48.3788 133.682 47.9332C138.721 47.4871 143.711 49.0302 148.459 50.7746" stroke="white" stroke-width="1.1253" stroke-miterlimit="10" stroke-linecap="round" stroke-linejoin="round"/>
<path d="M131.833 8.96877C131.293 10.9629 132.134 13.2669 133.857 14.405C135.581 15.5436 138.063 15.3962 139.61 14.0262C140.784 12.9854 141.36 11.4035 141.524 9.84263C141.686 8.30071 141.447 6.62808 140.435 5.45328C137.942 2.55857 132.633 6.01954 131.833 8.96877Z" stroke="white" stroke-width="1.1253" stroke-miterlimit="10" stroke-linecap="round" stroke-linejoin="round"/>
<path d="M111.508 53.9167C113.709 55.7468 114.725 58.9046 114.15 61.7087C113.574 64.5127 111.368 66.9196 108.624 67.7362C105.881 68.5527 102.888 68.0148 100.873 65.9812" stroke="white" stroke-width="1.1253" stroke-miterlimit="10" stroke-linecap="round" stroke-linejoin="round"/>
<path d="M110.298 90.9202C106.966 94.0518 105.937 99.3807 107.863 103.528C109.789 107.675 114.524 110.327 119.067 109.803" stroke="white" stroke-width="1.1253" stroke-miterlimit="10" stroke-linecap="round" stroke-linejoin="round"/>
<path d="M96.709 107.12C97.2052 108.969 98.9613 110.406 100.873 110.527C102.324 110.618 103.862 109.916 104.531 108.625C105.003 107.714 105.007 106.61 104.704 105.63C104.321 104.392 103.457 103.31 102.334 102.663C100.98 101.883 98.9796 101.513 97.8265 102.756C96.7652 103.9 96.3024 105.604 96.709 107.12Z" stroke="white" stroke-width="1.1253" stroke-miterlimit="10" stroke-linecap="round" stroke-linejoin="round"/>
<path d="M34.1495 134.38C43.6903 133.316 53.2316 132.25 62.7729 131.186C67.6545 130.641 72.5361 130.099 77.4172 129.551C79.5882 129.308 86.9235 127.397 86.9235 127.397C86.9235 127.397 86.3567 126.044 86.1959 125.282C84.5689 117.552 82.8462 110.018 82.0001 102.173C80.9499 92.4347 79.8997 82.6959 78.8495 72.9577C78.3322 68.1595 77.6458 62.9848 74.3039 59.5043C71.0782 56.1451 66.1031 55.1723 61.4496 55.0076C51.3809 54.6516 34.1211 55.8965 30.2051 67.3346C29.3024 69.9718 29.1766 72.8048 29.1277 75.5916C28.7795 95.4012 32.6148 114.732 34.1495 134.38Z" fill="#339BFE"/>
<path d="M31.751 111.571C31.8734 108.346 34.8487 105.5 38.0755 105.52C42.0393 105.545 45.4002 109.237 49.3468 108.865C52.0707 108.608 54.1894 106.493 56.1658 104.6C58.1421 102.708 60.5729 100.798 63.2913 101.111C66.5443 101.485 68.6825 104.866 71.8336 105.756C73.7794 106.305 75.9226 105.81 77.633 104.732C79.3435 103.654 80.6596 102.041 81.6975 100.306" stroke="white" stroke-width="1.1253" stroke-miterlimit="10" stroke-linecap="round" stroke-linejoin="round"/>
<path d="M30.2842 96.2306C31.1035 94.1191 33.5666 93.0417 35.8311 93.0789C38.0956 93.1168 40.2405 94.0223 42.3659 94.805C44.4913 95.5876 46.7702 96.2668 48.9936 95.8346C51.7453 95.2995 53.8668 93.1902 55.9678 91.334C58.0687 89.4778 60.6369 87.6917 63.4198 88.0299C66.467 88.4003 68.6269 91.1627 71.4459 92.377C74.3902 93.6452 78.0558 93.0122 80.4037 90.8295" stroke="white" stroke-width="1.1253" stroke-miterlimit="10" stroke-linecap="round" stroke-linejoin="round"/>
<path d="M79.1404 76.5594C79.2778 72.0878 78.533 67.5911 76.96 63.4031" stroke="black" stroke-width="1.1253" stroke-miterlimit="10" stroke-linecap="round" stroke-linejoin="round"/>
<path d="M42.9327 56.7804C42.5628 57.6432 42.5511 58.6383 42.8186 59.5383C43.0862 60.4383 43.6213 61.2454 44.286 61.9085C45.8118 63.432 47.9834 64.1869 50.135 64.327C52.2865 64.4678 54.4364 64.0422 56.5173 63.4799C57.849 63.12 59.1768 62.6978 60.3788 62.0203C61.5809 61.3428 62.6594 60.391 63.2991 59.1684C63.9388 57.9458 64.0968 56.4356 63.535 55.1757" stroke="black" stroke-width="1.1253" stroke-miterlimit="10" stroke-linecap="round" stroke-linejoin="round"/>
<path d="M42.9688 40.7305C41.3001 43.0066 42.6373 46.8609 42.9566 49.4096C43.3204 52.3138 43.6841 55.2179 44.0485 58.1215C44.1275 58.7545 44.2198 59.4198 44.6053 59.9277C44.9301 60.3565 45.4252 60.6191 45.9158 60.8399C48.5507 62.0258 51.5534 62.379 54.3913 61.8361C55.8626 61.5547 57.2861 61.0335 58.5955 60.3076C59.2913 59.9221 59.9555 59.4788 60.5774 58.9826C61.009 58.6383 61.8951 58.2161 61.9719 57.6304C62.0158 57.2961 61.909 56.9618 61.8017 56.6425C59.7269 50.4854 56.5118 44.4412 51.2524 40.6264C49.8485 39.608 48.2103 38.7374 46.4787 38.8314C45.1054 38.9054 43.7809 39.6224 42.9688 40.7305Z" fill="#F7AC81"/>
<path d="M52.968 56.3148C55.7342 57.2432 58.8798 56.9751 61.4491 55.5922C60.8222 54.0225 60.1914 52.4461 59.3354 50.9882C59.1234 50.6277 58.8837 50.2611 58.5193 50.0564C57.9553 49.7399 57.2561 49.889 56.627 50.0381C54.071 50.6433 51.4094 51.1016 48.7789 50.7723C48.3139 50.7139 47.5535 50.3963 47.1747 50.8129C46.7909 51.2351 47.2242 51.7385 47.4734 52.1079C48.0892 53.0212 48.8462 53.8389 49.7062 54.527C50.6796 55.3046 51.7865 55.9182 52.968 56.3148Z" fill="#F78681"/>
<path d="M68.0508 42.1617C68.1693 43.737 68.2232 45.4024 67.494 46.8036C66.5762 48.5658 64.641 49.512 62.8149 50.2952C60.1165 51.4522 57.3314 52.5213 54.4088 52.795C51.4858 53.0686 48.3736 52.4634 46.1196 50.5822C44.8826 49.5498 43.9609 48.1903 43.1732 46.7847C41.1106 43.1046 39.8502 38.8955 40.1038 34.6847C40.3575 30.4739 42.2359 26.282 45.5584 23.6832C47.8418 21.8971 50.6497 20.9376 53.4193 20.0804C54.8878 19.6254 56.4926 19.1932 57.9299 19.7389C59.5308 20.3463 60.4708 21.9355 61.956 22.7342C62.9762 23.2827 64.0792 23.2516 64.6438 24.3796C65.4576 26.0044 65.7552 28.1488 66.1674 29.9109C66.614 31.8205 66.9912 33.7463 67.2971 35.6831C67.6359 37.8308 67.8878 39.9929 68.0508 42.1617Z" fill="#F7AC81"/>
<path d="M35.7283 23.1214C33.4677 24.1805 31.7812 26.3126 31.0886 28.7111C30.3961 31.1091 30.6598 33.7373 31.6393 36.0335C32.081 37.0693 32.679 38.0627 33.5411 38.7864C34.4856 39.5796 35.6955 40.0035 36.9148 40.1898C39.2087 40.5408 41.6373 40.0713 43.5786 38.7997C45.5199 37.5282 46.9367 35.4472 47.3032 33.1555C47.6698 30.8643 46.9467 28.4013 45.3247 26.742C52.0981 26.7503 58.9544 25.7007 65.3468 23.4618C66.8492 22.9356 68.3644 22.3293 69.5615 21.2791C70.758 20.2289 71.5962 18.6464 71.3732 17.0699C71.1168 15.2571 69.517 13.8671 67.7759 13.3025C66.0349 12.7379 64.157 12.8391 62.3292 12.9465C57.754 13.2152 53.1789 13.4844 48.6038 13.753C47.4323 13.822 46.2608 13.8949 45.0888 13.9594C44.2361 14.0067 43.4824 13.7731 42.6313 13.8042C40.8068 13.8704 39.0052 14.5768 37.6435 15.7961C36.5616 16.7646 35.77 18.0456 35.3573 19.4351C35.1504 20.131 34.9907 20.9147 35.0297 21.6451C35.0391 21.8231 35.3234 23.311 35.7283 23.1214Z" fill="#200026"/>
<path d="M31.884 31.6703C32.2978 31.1713 32.7122 30.6724 33.1261 30.1734C33.2368 30.4705 33.2207 30.7975 33.2157 31.1151C33.2106 31.4322 33.2229 31.7654 33.3809 32.0407C33.5388 32.3161 33.8882 32.5069 34.1807 32.3845C34.4149 32.2872 34.5379 32.0346 34.6402 31.8032C35.2198 30.496 35.7989 29.1894 36.3785 27.8822C36.483 27.6464 36.5898 27.4 36.5793 27.1419C36.5687 26.8838 36.4029 26.6129 36.1476 26.5723C35.9101 26.535 35.6887 26.7019 35.5363 26.8877C35.3839 27.0734 35.2621 27.2921 35.0635 27.4272C34.8644 27.5618 34.5479 27.5702 34.4222 27.3655C34.2781 27.1307 34.48 26.8343 34.4689 26.5589C34.4405 25.8525 33.6467 26.0611 33.3703 26.4594C33.0888 26.8649 32.8474 27.3944 32.6166 27.8344C32.0041 29.0031 31.7377 30.3564 31.884 31.6703Z" fill="#31003B"/>
<path d="M38.4901 29.6672C38.2158 30.4638 38.2192 31.3254 38.2253 32.1681C38.2264 32.3333 38.2448 32.5291 38.3888 32.6098C38.5963 32.7261 38.8227 32.4958 38.9495 32.2944C39.1514 31.9751 39.3528 31.6553 39.5547 31.3354C39.6376 31.2042 39.7361 31.0618 39.8874 31.0295C40.1176 30.98 40.3179 31.227 40.3351 31.4617C40.3524 31.6964 40.2528 31.9217 40.2022 32.1515C40.1516 32.3812 40.1671 32.6587 40.3535 32.8017C40.6516 33.0309 41.0772 32.7261 41.2507 32.3923C41.4243 32.0586 41.5355 31.6442 41.8743 31.4812C42.1374 31.3549 42.4733 31.44 42.6764 31.6497C42.8794 31.8594 42.9567 32.1704 42.9211 32.4602C42.8833 32.7672 42.7303 33.0537 42.7109 33.3624C42.6914 33.6711 42.8916 34.0382 43.2009 34.0199C43.3928 34.0088 43.543 33.8547 43.6643 33.705C44.7562 32.3612 45.1978 30.5116 44.8307 28.819C44.7134 28.2783 44.4102 27.6648 43.8595 27.6141C43.5224 27.5835 43.2081 27.7838 42.9534 28.0069C42.6986 28.2299 42.4628 28.4897 42.1507 28.621C41.8387 28.7522 41.4148 28.7049 41.2463 28.4112C41.0599 28.0858 41.234 27.5758 40.922 27.3683C40.4564 27.059 40.0414 27.88 39.7383 28.1192C39.1703 28.5681 38.7359 28.9536 38.4901 29.6672Z" fill="#31003B"/>
<path d="M43.811 23.4585C43.9017 23.0307 43.0707 22.8071 43.1942 22.3871C43.2526 22.1886 43.5029 22.1179 43.7081 22.1402C43.914 22.1624 44.1159 22.2442 44.3211 22.2175C44.6799 22.1708 44.9219 21.7936 44.9358 21.4321C44.9497 21.0711 44.79 20.7273 44.6193 20.4086C44.4491 20.0898 44.2605 19.7689 44.2082 19.4118C44.1142 18.7682 44.5397 18.0879 45.1594 17.891C45.5371 17.7709 45.9476 17.817 46.3353 17.7341C46.7224 17.6513 47.1257 17.3542 47.0996 16.9587C47.0712 16.5299 46.5867 16.3046 46.174 16.1833C44.5954 15.72 42.9594 15.4502 41.3152 15.3823C41.3129 16.3368 42.6101 17.0105 42.4087 17.9433C42.2708 18.5824 41.5193 18.8489 40.8785 18.979C40.2377 19.1092 39.4857 19.2983 39.2509 19.9085C38.9806 20.611 39.7354 21.8815 40.315 22.3165C41.2779 23.0391 42.6262 23.3973 43.811 23.4585Z" fill="#31003B"/>
<path d="M53.4541 23.2587C53.6249 23.2131 53.814 23.1458 53.8868 22.9845C54.0159 22.6997 53.6749 22.4188 53.3684 22.3587C53.0619 22.2981 52.7037 22.3092 52.4957 22.0756C53.0792 21.9693 53.7734 21.7658 53.923 21.1923C54.0181 20.8274 53.8401 20.4452 53.6071 20.1493C53.3734 19.8534 53.0803 19.6036 52.8839 19.2821C52.6625 18.92 52.5786 18.4644 52.7059 18.0595C52.8333 17.6545 53.1876 17.3169 53.6076 17.2551C54.032 17.1928 54.6066 17.3319 54.783 16.9409C54.9298 16.6149 54.5972 16.275 54.2746 16.1215C53.2399 15.6298 52.0273 15.805 50.897 15.9902C50.4081 16.0703 49.8118 16.2511 49.7289 16.7395C49.6621 17.1339 49.9831 17.4726 50.1834 17.8192C50.5121 18.3871 50.526 19.1241 50.2195 19.7043C49.9725 20.1716 49.5503 20.5153 49.1715 20.8835C48.7927 21.2523 48.4328 21.6918 48.3761 22.2169C48.1503 24.3156 52.4011 23.5413 53.4541 23.2587Z" fill="#31003B"/>
<path d="M59.1041 15.3751C58.9455 15.4496 58.7731 15.5509 58.7342 15.7216C58.6691 16.0076 59.0095 16.2078 59.2926 16.284C59.5763 16.3597 59.9284 16.4804 59.954 16.7724C59.9885 17.1618 59.4078 17.3242 59.2976 17.6991C59.2131 17.9867 59.4462 18.2782 59.7115 18.4178C59.9768 18.5574 60.2839 18.6069 60.542 18.7593C60.9864 19.0213 61.2184 19.5664 61.1872 20.0815C61.1566 20.5966 60.8946 21.0772 60.5447 21.4566C60.369 21.6468 60.1693 21.8181 60.0274 22.035C59.8856 22.252 59.8083 22.5329 59.909 22.7721C60.018 23.0324 60.3128 23.1748 60.5948 23.1876C60.8768 23.2004 61.1511 23.1064 61.4181 23.0146C62.4699 22.6514 63.5212 22.2881 64.5731 21.9249C64.7522 21.8632 64.9363 21.7981 65.0759 21.6707C65.2156 21.5428 65.2996 21.3347 65.2272 21.1601C65.1121 20.8831 64.7361 20.873 64.4413 20.8174C63.8828 20.7112 63.4122 20.2656 63.2398 19.7244C63.0673 19.1826 63.183 18.5663 63.509 18.1007C63.7359 17.777 64.078 17.4327 63.9596 17.0555C63.8744 16.7857 63.5785 16.6422 63.301 16.586C63.0234 16.5299 62.7286 16.5276 62.4755 16.4008C62.2224 16.274 62.0288 15.9569 62.1623 15.7072C62.2847 15.4774 62.6118 15.4196 62.7341 15.1899C63.1608 14.3878 61.5827 14.4784 61.22 14.5863C60.5181 14.7938 59.7649 15.0647 59.1041 15.3751Z" fill="#31003B"/>
<path d="M40.7343 49.2138C45.0536 48.8456 44.0518 42.931 42.6661 40.33C41.7673 38.6429 40.1241 36.4257 37.9319 37.0698C36.7666 37.4119 35.8766 38.4221 35.4533 39.5607C35.0305 40.6994 35.0233 41.9537 35.1802 43.1585C35.3765 44.6604 35.841 46.1662 36.7888 47.3482C37.7361 48.5296 39.2246 49.3423 40.7343 49.2138Z" fill="#F7AC81"/>
<path d="M39.8383 40.0052C39.578 39.6403 39.0073 39.618 38.629 39.8589C38.2513 40.0997 38.0361 40.528 37.8992 40.9547C37.561 42.0104 37.6228 43.232 38.2452 44.1492C38.8677 45.067 40.1059 45.5838 41.1477 45.205" stroke="black" stroke-width="1.1253" stroke-miterlimit="10" stroke-linecap="round" stroke-linejoin="round"/>
<path d="M54.8671 36.8373C54.9077 37.0281 54.9705 37.2245 55.1124 37.358C55.3627 37.5933 55.7882 37.546 56.0563 37.3318C56.325 37.1177 56.4641 36.7812 56.5525 36.4496C56.6526 36.0731 56.6994 35.6703 56.5881 35.2965C56.4774 34.9233 56.1832 34.5868 55.801 34.5128C54.6735 34.2936 54.7269 36.1732 54.8671 36.8373Z" fill="black"/>
<path d="M62.8511 34.2875C62.9101 34.5222 63.0091 34.7553 63.1849 34.9216C63.3606 35.0885 63.6243 35.1764 63.8529 35.0963C64.1327 34.9978 64.2779 34.6941 64.373 34.4126C64.5098 34.0077 64.605 33.5733 64.521 33.1544C64.4231 32.6677 63.8846 31.998 63.3401 32.3173C62.7376 32.671 62.7059 33.709 62.8511 34.2875Z" fill="black"/>
<path d="M60.032 34.6713C60.5282 36.3856 61.2796 38.026 62.2542 39.5212C62.3894 39.7287 62.5345 39.9806 62.4389 40.2093C62.3621 40.3928 62.1585 40.4829 61.9733 40.5564C61.4604 40.7583 60.9476 40.9608 60.4353 41.1627" stroke="black" stroke-width="1.1253" stroke-miterlimit="10" stroke-linecap="round" stroke-linejoin="round"/>
<path d="M58.04 46.0694C59.0252 44.775 60.5854 43.9362 62.2086 43.8282" stroke="black" stroke-width="1.1253" stroke-miterlimit="10" stroke-linecap="round" stroke-linejoin="round"/>
<path d="M52.3152 32.4314C53.0923 32.7774 53.99 32.8435 54.81 32.6155C55.6293 32.3874 56.3641 31.8673 56.8514 31.1698" stroke="black" stroke-width="1.1253" stroke-miterlimit="10" stroke-linecap="round" stroke-linejoin="round"/>
<path d="M61.5154 30.4243C61.9726 29.8736 62.4671 29.323 63.1157 29.0209C63.7643 28.7189 64.6087 28.7261 65.1254 29.2212" stroke="black" stroke-width="1.1253" stroke-miterlimit="10" stroke-linecap="round" stroke-linejoin="round"/>
<path d="M49.7853 41.1037C49.5378 41.8363 49.7086 42.6718 50.1363 43.3153C50.7143 44.1859 51.869 44.7299 52.8436 44.3539C53.3425 44.1608 53.738 43.7576 54.0201 43.3031C54.3722 42.7357 54.5707 42.0604 54.5034 41.3963C54.4361 40.7321 54.0851 40.0863 53.5211 39.7292C52.3786 39.0061 50.2109 39.8432 49.7853 41.1037Z" fill="#F78681"/>
<path d="M63.8361 38.6523C63.6114 39.5446 64.1304 40.5631 64.9842 40.9063C65.8381 41.2495 66.9172 40.8729 67.3728 40.0736C67.9218 39.109 67.543 37.3318 66.3904 36.9447C65.4837 36.6398 64.0497 37.8041 63.8361 38.6523Z" fill="#F78681"/>
<path d="M116.362 67.7568C116.393 67.1978 116.544 66.6521 116.853 66.1893C117.234 65.6203 117.818 65.2248 118.391 64.8516C119.325 64.2447 120.293 63.6512 121.372 63.3797C122.093 63.1984 122.913 63.1834 123.522 63.61C124.107 64.02 124.373 64.7409 124.605 65.4161C125.168 67.0482 125.731 68.6802 126.292 70.3128C126.782 71.7368 126.82 73.3238 126.094 74.6799C125.49 75.8096 124.368 76.6484 123.114 76.9088C120.957 77.3571 119.256 76.11 118.262 74.2766C117.806 73.4328 117.555 72.4421 117.332 71.5137C117.109 70.5865 116.604 69.7437 116.43 68.7864C116.369 68.4494 116.343 68.1006 116.362 67.7568Z" fill="#F7AC81"/>
<path d="M117.041 66.205C118.271 68.307 119.38 70.4792 120.362 72.7075" stroke="black" stroke-width="1.1253" stroke-miterlimit="10" stroke-linecap="round" stroke-linejoin="round"/>
<path d="M119.509 64.3481C121.293 66.7055 121.662 68.7736 123.05 71.3847" stroke="black" stroke-width="1.1253" stroke-miterlimit="10" stroke-linecap="round" stroke-linejoin="round"/>
<path d="M121.624 63.491C122.802 65.5964 123.764 67.823 124.49 70.1242" stroke="black" stroke-width="1.1253" stroke-miterlimit="10" stroke-linecap="round" stroke-linejoin="round"/>
<path d="M58.3758 75.9682C61.4457 78.1887 64.6013 80.5016 66.5331 83.7607C67.8726 86.0207 68.4538 89.1412 66.7361 91.1287C65.8005 92.2112 64.3426 92.734 62.9142 92.8141C61.4857 92.8942 60.0667 92.5789 58.6806 92.2245C54.0815 91.0492 49.5976 89.4266 45.3112 87.3868C41.9331 85.7793 38.6306 83.8764 36.0246 81.1925C33.4186 78.5086 31.5529 74.9497 31.5201 71.209C31.4756 66.032 35.6619 59.9299 41.0181 63.4176C46.9766 67.2969 52.6136 71.8008 58.3758 75.9682Z" fill="#F7AC81"/>
<path d="M27.2392 69.8166C26.6129 73.8427 27.9278 78.0234 30.3047 81.3331C32.6815 84.6428 36.9836 87.9647 40.6014 89.8393C45.1003 84.1767 49.5264 77.9623 53.1208 71.6861C50.2801 69.9785 46.6806 66.9202 44.1397 64.7909C41.8223 62.849 38.6979 60.6324 35.5456 60.4978C32.9708 60.3882 30.3681 63.0671 29.0804 65.039C28.1409 66.4774 27.5034 68.1178 27.2392 69.8166Z" fill="#339BFE"/>
<path d="M28.7983 79.6622C31.861 83.6906 35.7086 87.1193 40.0618 89.6986C40.8739 88.3903 42.6061 87.7045 43.4182 86.3962" stroke="black" stroke-width="1.1253" stroke-miterlimit="10" stroke-linecap="round" stroke-linejoin="round"/>
<path d="M44.1157 64.2142C46.4742 66.7746 50.4469 70.2111 53.434 71.9995" stroke="black" stroke-width="1.1253" stroke-miterlimit="10" stroke-linecap="round" stroke-linejoin="round"/>
<path d="M37.9192 88.4104C41.0208 81.6815 45.4919 75.5878 50.9793 70.6094" stroke="black" stroke-width="1.1253" stroke-miterlimit="10" stroke-linecap="round" stroke-linejoin="round"/>
<path d="M56.7304 83.957C55.8966 86.894 57.2382 90.3082 59.8492 91.8907C62.1454 93.283 65.0173 93.2508 67.6845 92.9393C72.5895 92.3669 77.3677 91.0013 82.0569 89.4533C85.9756 88.1594 89.8499 86.7349 93.6997 85.2486C95.5175 84.5466 97.4132 83.7718 98.6414 82.2593C99.8696 80.7469 100.127 78.2599 98.6647 76.9716C97.6908 76.1133 96.2818 76.0132 94.9841 75.9843C89.1201 75.8513 83.2595 76.2902 77.4395 76.9772C74.5497 77.3182 71.6678 77.7214 68.7898 78.147C66.4486 78.493 63.7107 78.4585 61.4735 79.1705C59.2541 79.8763 57.3717 81.7003 56.7304 83.957Z" fill="#F7AC81"/>
<path d="M62.2422 79.5778C61.9613 80.7158 61.8478 81.8945 61.9067 83.0654" stroke="black" stroke-width="1.1253" stroke-miterlimit="10" stroke-linecap="round" stroke-linejoin="round"/>
<path d="M59.4961 88.6273C60.5107 88.3381 61.5815 88.1523 62.6194 88.3392C63.6574 88.5261 64.6625 89.1402 65.1025 90.0986" stroke="black" stroke-width="1.1253" stroke-miterlimit="10" stroke-linecap="round" stroke-linejoin="round"/>
<path d="M101.205 73.0874C101.789 72.8449 102.374 72.6146 102.951 72.3904C104.261 71.8814 105.696 71.427 107.05 71.8047C108.129 72.1062 109.023 72.9261 109.54 73.9201C110.439 75.6478 110.428 77.8433 109.155 79.3713C108.305 80.392 107.113 81.0629 105.912 81.6302C102.643 83.1733 99.1198 84.1033 95.5898 84.8809C94.632 85.0918 93.6235 85.2909 92.684 85.01C92.175 84.8581 91.6956 84.5527 91.4213 84.0977C90.8723 83.1855 91.2806 82.0101 91.784 81.0717C92.6389 79.477 93.7476 78.018 95.0531 76.7653C96.7713 75.1155 98.9818 74.0108 101.205 73.0874Z" fill="#F7AC81"/>
<path d="M107.914 72.264C105.708 73.1624 103.548 74.1709 101.443 75.2856" stroke="black" stroke-width="1.1253" stroke-miterlimit="10" stroke-linecap="round" stroke-linejoin="round"/>
<path d="M109.65 74.1792C106.981 74.9446 104.384 75.9636 101.906 77.2169" stroke="black" stroke-width="1.1253" stroke-miterlimit="10" stroke-linecap="round" stroke-linejoin="round"/>
<path d="M110.141 76.7108C107.492 77.8222 104.843 78.933 102.194 80.0444" stroke="black" stroke-width="1.1253" stroke-miterlimit="10" stroke-linecap="round" stroke-linejoin="round"/>
<path d="M99.8378 70.5515C100.147 70.2156 100.608 69.8501 101.006 70.0732C101.281 70.2272 101.354 70.5905 101.345 70.9053C101.314 72.1252 100.546 73.1904 99.7638 74.1265C99.1681 74.8396 98.5445 75.5294 97.8954 76.1936C97.4621 76.6369 96.9803 77.0897 96.3718 77.2081C95.8684 77.3066 94.8677 77.0585 94.6964 76.4739C94.5373 75.9321 95.7305 75.0227 96.0954 74.6255C97.3425 73.2683 98.5901 71.9099 99.8378 70.5515Z" fill="#F7AC81"/>
<path d="M101.173 70.2505C100.636 70.052 100.019 70.2116 99.5413 70.5276C99.064 70.8435 98.6986 71.2985 98.3414 71.7457C97.5671 72.7164 96.7929 73.6865 96.0186 74.6571C95.3728 75.4665 94.9828 75.9699 93.8792 75.9977C90.9511 76.0717 88.0225 76.1457 85.0944 76.2202C83.1531 76.2691 81.2118 76.3186 79.2705 76.3676" stroke="black" stroke-width="1.1253" stroke-miterlimit="10" stroke-linecap="round" stroke-linejoin="round"/>
<path d="M10.197 17.1122C5.9762 17.2958 1.88723 20.1226 0.578936 24.1404C-0.728801 28.1576 1.11571 33.0687 4.91266 34.9216C6.3806 35.6375 8.02431 35.9011 9.55454 36.4713C11.0848 37.042 12.5994 38.0488 13.1028 39.6018C13.5006 40.8306 13.1957 42.1595 13.1501 43.4505C13.1045 44.741 13.4677 46.2384 14.637 46.7863C16.2089 47.5228 17.9567 46.0065 18.6425 44.4123C20.3991 40.3294 18.2581 35.0139 14.1619 33.2879C12.8803 32.7478 11.4831 32.5314 10.1898 32.0208C8.89595 31.5101 7.63994 30.5973 7.26225 29.259C6.80056 27.6231 7.90916 25.8014 9.48779 25.1706C11.0664 24.5398 12.931 24.957 14.3182 25.9399C16.17 27.2515 17.9533 29.8191 20.5004 28.4446C22.3321 27.4562 23.0202 24.6076 22.1841 22.7609C20.6189 19.301 13.5645 16.9659 10.197 17.1122Z" fill="#339BFE"/>
<path d="M10.4979 53.6405C10.1075 54.9627 10.429 56.4885 11.2444 57.5482C12.0599 58.6072 13.3259 59.1974 14.5841 59.2013C15.1932 59.2035 15.8257 59.0645 16.3068 58.6517C16.8625 58.1756 17.144 57.3907 17.2113 56.6176C17.5361 52.8929 11.893 48.9174 10.4979 53.6405Z" fill="#339BFE"/>
<path d="M0.562744 23.1691C2.74935 24.5648 5.67521 24.7149 7.99254 23.5496C10.3099 22.3843 11.9352 19.9468 12.1193 17.3591" stroke="white" stroke-width="1.1253" stroke-miterlimit="10" stroke-linecap="round" stroke-linejoin="round"/>
<path d="M14.5092 33.7863C13.5913 35.5952 13.5913 37.8413 14.5092 39.6502C15.427 41.4591 17.2398 42.7858 19.2412 43.1134" stroke="white" stroke-width="1.1253" stroke-miterlimit="10" stroke-linecap="round" stroke-linejoin="round"/>
<path d="M20.4803 28.1527C18.7309 26.5273 17.5389 24.3123 17.1456 21.9566C16.9765 20.9431 17.0277 19.7344 17.847 19.1147" stroke="white" stroke-width="1.1253" stroke-miterlimit="10" stroke-linecap="round" stroke-linejoin="round"/>
<path d="M10.5403 53.2244C10.8028 54.1082 11.3313 54.927 12.0894 55.4521C12.8476 55.9767 13.8422 56.1814 14.7222 55.9066C15.6021 55.6318 16.3264 54.8486 16.4443 53.9341" stroke="white" stroke-width="1.1253" stroke-miterlimit="10" stroke-linecap="round" stroke-linejoin="round"/>
<path d="M197.171 260.563C229.581 260.563 255.855 257.948 255.855 254.722C255.855 251.497 229.581 248.882 197.171 248.882C164.76 248.882 138.487 251.497 138.487 254.722C138.487 257.948 164.76 260.563 197.171 260.563Z" fill="#200026"/>
<path d="M173.812 193.707V237.049L185.633 238.363L189.573 191.736L173.812 193.707Z" fill="#F7AC81"/>
<path d="M173.85 203.219C178.369 203.437 182.887 203.654 187.406 203.872C188.283 203.914 189.228 203.939 189.957 203.451C191.079 202.699 191.193 201.104 191.041 199.762C190.761 197.283 191.426 195.146 191.647 192.679C191.906 189.79 192.174 186.902 192.452 184.015C193.007 178.24 193.6 172.469 194.23 166.701C195.491 155.167 196.902 143.649 198.463 132.152C198.494 131.922 198.525 131.692 198.557 131.462C199.16 127.035 199.715 122.223 197.458 118.368C195.01 114.187 189.615 112.303 184.844 113.146C180.619 113.892 174.649 117.149 173.159 121.412C171.276 126.798 171.821 134.59 171.455 140.285C170.774 150.893 170.626 161.535 171.012 172.158C171.388 182.508 170.249 192.71 171.439 203.103C172.242 203.141 173.046 203.18 173.85 203.219Z" fill="#200026"/>
<path d="M172.178 131.031C174.926 129.287 177.198 126.801 178.688 123.907" stroke="white" stroke-width="1.1806" stroke-miterlimit="10" stroke-linecap="round" stroke-linejoin="round"/>
<path d="M171.469 199.572C177.871 199.992 184.3 199.99 190.701 199.563" stroke="white" stroke-width="1.1806" stroke-miterlimit="10" stroke-linecap="round" stroke-linejoin="round"/>
<path d="M180.452 182.715C181.095 184.754 181.033 187.008 180.279 189.009C179.525 191.01 178.085 192.745 176.256 193.854" stroke="white" stroke-width="1.1806" stroke-miterlimit="10" stroke-linecap="round" stroke-linejoin="round"/>
<path d="M187.834 255.344C187.77 249.025 187.181 242.69 186.101 236.464C181.932 236.488 177.76 236.005 173.707 235.031C169.826 240.611 164.687 245.477 158.78 248.84C157.971 249.301 157.135 249.746 156.475 250.403C155.815 251.06 155.345 251.979 155.465 252.901C155.59 253.851 156.321 254.635 157.173 255.071C158.025 255.508 158.993 255.654 159.942 255.781C169.188 257.013 178.688 257.171 187.834 255.344Z" fill="#339BFE"/>
<path d="M170.99 237.878C170.488 236.617 169.548 235.482 168.282 234.987C167.017 234.493 165.426 234.757 164.554 235.797C163.681 236.838 163.793 238.63 164.916 239.395C165.907 240.069 167.232 239.818 168.398 239.54C170.301 239.088 172.205 238.635 174.109 238.183C175.003 237.97 175.924 237.756 176.834 237.889C177.744 238.022 178.652 238.585 178.915 239.466C179.218 240.48 178.53 241.612 177.558 242.033C176.586 242.453 175.438 242.27 174.491 241.797C173.544 241.324 172.758 240.588 171.986 239.864C171.697 239.593 171.409 239.322 171.121 239.051" stroke="black" stroke-width="1.0309" stroke-miterlimit="10" stroke-linecap="round" stroke-linejoin="round"/>
<path d="M166.717 242.68C168.774 242.948 170.716 244.013 172.048 245.602" stroke="black" stroke-width="1.0309" stroke-miterlimit="10" stroke-linecap="round" stroke-linejoin="round"/>
<path d="M163.894 246.119C165.555 245.959 167.27 246.851 168.093 248.302" stroke="black" stroke-width="1.0309" stroke-miterlimit="10" stroke-linecap="round" stroke-linejoin="round"/>
<path d="M155.812 251.537C157.533 253.502 160.155 254.492 162.753 254.757C165.352 255.022 167.968 254.634 170.551 254.248C176.321 253.385 182.091 252.522 187.862 251.659" stroke="black" stroke-width="1.0309" stroke-miterlimit="10" stroke-linecap="round" stroke-linejoin="round"/>
<path d="M208.617 195.02L217.811 240.333L229.632 239.02L225.035 189.11L208.617 195.02Z" fill="#F7AC81"/>
<path d="M207.187 196.782C207.528 198.316 207.876 199.846 208.232 201.373C208.424 202.195 208.703 203.107 209.449 203.501C210.054 203.82 210.787 203.698 211.458 203.568C217.519 202.395 223.579 201.223 229.639 200.051C229.942 199.992 220.799 138.481 220.056 132.817C220.026 132.586 219.996 132.354 219.965 132.123C219.409 127.877 218.797 123.447 216.358 119.926C213.014 115.096 206.273 112.944 200.747 114.94C196.795 116.368 192.449 120.64 192.287 125.094C192.149 128.894 194.985 133.219 195.634 137.037C197.801 149.765 200.093 162.465 202.67 175.117C204.142 182.345 205.589 189.594 207.187 196.782Z" fill="#200026"/>
<path d="M213.895 125.612C214.604 128.889 216.822 131.808 219.789 133.37" stroke="white" stroke-width="1.1806" stroke-miterlimit="10" stroke-linecap="round" stroke-linejoin="round"/>
<path d="M196.693 144.415C196.03 140.055 195.02 135.749 193.677 131.548" stroke="white" stroke-width="1.1806" stroke-miterlimit="10" stroke-linecap="round" stroke-linejoin="round"/>
<path d="M208.242 199.934C215.54 199.954 222.838 198.307 229.42 195.155" stroke="white" stroke-width="1.1806" stroke-miterlimit="10" stroke-linecap="round" stroke-linejoin="round"/>
<path d="M212.987 182.035C214.839 184.362 215.247 187.749 214.001 190.449" stroke="white" stroke-width="1.1806" stroke-miterlimit="10" stroke-linecap="round" stroke-linejoin="round"/>
<path d="M233.587 252.526C232.403 246.926 231.22 241.327 230.036 235.727C225.937 237.092 221.655 237.904 217.341 238.136C213.166 243.687 207.858 248.727 202.182 252.73C201.294 253.356 201.581 255.221 202.429 255.901C203.277 256.58 204.431 256.7 205.515 256.773C214.92 257.404 224.424 256.537 233.56 254.216C233.5 253.651 233.704 253.082 233.587 252.526Z" fill="#339BFE"/>
<path d="M211.391 238.917C210.576 239.061 209.829 239.659 209.614 240.458C209.4 241.258 209.806 242.208 210.575 242.515C211.299 242.803 212.112 242.513 212.832 242.214C214.775 241.407 216.787 240.509 218.886 240.656C219.634 240.709 220.477 240.982 220.756 241.678C220.981 242.241 220.727 242.925 220.245 243.294C219.764 243.663 219.107 243.747 218.513 243.628C217.125 243.348 215.829 242.216 215.065 241.066C214.244 239.83 213.013 238.629 211.391 238.917Z" stroke="black" stroke-width="1.0309" stroke-miterlimit="10" stroke-linecap="round" stroke-linejoin="round"/>
<path d="M202.394 252.971C205.453 254.775 209.243 254.595 212.787 254.361C219.716 253.903 226.755 253.422 233.276 251.035" stroke="black" stroke-width="1.0309" stroke-miterlimit="10" stroke-linecap="round" stroke-linejoin="round"/>
<path d="M210.775 244.603C211.937 244.528 213.113 244.668 214.225 245.015C214.354 245.055 214.486 245.1 214.588 245.189C214.691 245.278 214.757 245.421 214.717 245.551" stroke="black" stroke-width="1.0309" stroke-miterlimit="10" stroke-linecap="round" stroke-linejoin="round"/>
<path d="M207.541 247.263C209.289 247.137 211.077 247.657 212.485 248.701" stroke="black" stroke-width="1.0309" stroke-miterlimit="10" stroke-linecap="round" stroke-linejoin="round"/>
<path d="M181.067 88.7473C180.327 90.5056 179.509 92.2839 178.163 93.6345C176.816 94.9856 174.823 95.8439 172.978 95.3627C171.454 94.9656 170.255 93.7124 169.609 92.2761C168.962 90.8399 168.801 89.2329 168.786 87.6576C168.713 79.3801 172.625 70.0974 180.387 66.3244C181.304 65.8789 182.276 65.5084 183.292 65.4227C184.308 65.3371 185.379 65.5618 186.174 66.1998C186.986 66.8523 187.437 67.8752 187.584 68.9065C187.731 69.9378 187.604 70.988 187.438 72.0159C186.957 74.9841 186.141 77.8971 185.014 80.6845C183.886 83.4808 182.227 85.9917 181.067 88.7473Z" fill="#F7AC81"/>
<path d="M169.687 76.1205C169.101 77.4822 168.633 78.8906 168.297 80.3246C172.737 79.2778 177.297 78.7415 181.859 78.7299C182.194 78.7299 183.717 74.6442 183.932 74.1698C184.553 72.8053 185.193 71.4936 185.908 70.1904C186.844 68.4849 188.424 66.7144 189.098 64.916C189.721 63.2534 186.897 62.4569 185.506 62.4563C184.068 62.4557 182.674 62.9519 181.381 63.581C176.136 66.1342 171.993 70.7622 169.687 76.1205Z" fill="#339BFE"/>
<path d="M169.049 77.5474C172.065 76.3381 175.373 75.8658 178.607 76.1823" stroke="black" stroke-width="1.0309" stroke-miterlimit="10" stroke-linecap="round" stroke-linejoin="round"/>
<path d="M177.617 88.1873C177.807 91.1966 178.401 94.1625 178.621 97.1685C178.845 100.227 177.772 102.663 176.846 105.563C174.904 111.65 172.963 117.736 171.021 123.822C179.067 125.104 187.133 126.387 195.271 126.779C203.41 127.171 211.658 126.654 219.486 124.392C219.576 116.605 215.523 109.4 214.159 101.733C213.456 97.7848 213.484 93.7109 214.221 89.7704C214.976 85.7398 215.615 81.8077 216.267 77.7343C216.75 74.7139 217.236 71.4498 215.829 68.7342C214.861 66.8658 213.112 65.5258 211.292 64.4684C207.07 62.0148 202.152 60.8188 197.278 60.9362C194.896 60.9935 192.56 61.4891 190.222 61.8073C185.131 62.5009 182.256 68.3515 180.414 72.5729C178.281 77.4634 177.281 82.8574 177.617 88.1873Z" fill="#339BFE"/>
<path d="M178.708 102.63C179.248 100.626 181.716 99.7111 183.762 100.055C185.809 100.4 187.574 101.63 189.403 102.611C191.232 103.592 193.39 104.353 195.353 103.68C197.651 102.892 199.094 100.326 201.478 99.8618C203.047 99.5564 204.628 100.252 206.019 101.038C207.411 101.823 208.8 102.738 210.387 102.927C211.974 103.116 213.829 102.276 214.134 100.708" stroke="white" stroke-width="1.1806" stroke-miterlimit="10" stroke-linecap="round" stroke-linejoin="round"/>
<path d="M178.217 93.5249C180.685 91.7026 184.396 91.8128 186.753 93.7775C187.979 94.7998 188.893 96.2717 190.381 96.8485C192.633 97.7207 195.052 96.1804 196.898 94.6224C198.743 93.0649 200.861 91.2905 203.248 91.6548C204.583 91.8584 205.714 92.7122 206.772 93.5511C207.83 94.3893 208.934 95.2676 210.257 95.5346C211.58 95.8016 213.182 95.2265 213.592 93.9404" stroke="white" stroke-width="1.1806" stroke-miterlimit="10" stroke-linecap="round" stroke-linejoin="round"/>
<path d="M172.163 120.525C183.733 123.776 195.886 124.938 207.863 123.938C211.867 123.604 216.011 122.972 219.336 120.716" stroke="black" stroke-width="1.0309" stroke-miterlimit="10" stroke-linecap="round" stroke-linejoin="round"/>
<path d="M178.08 79.111C178.695 75.7596 180.775 70.6271 182.83 67.9093" stroke="black" stroke-width="1.0309" stroke-miterlimit="10" stroke-linecap="round" stroke-linejoin="round"/>
<path d="M205.437 45.6193C205.471 45.6888 205.5 45.7617 205.525 45.8385C206.071 47.5361 206.305 49.3979 206.51 51.1634C206.935 54.8313 206.925 58.532 206.913 62.2188C206.91 62.8763 206.901 63.5638 206.591 64.144C206.139 64.9906 205.17 65.3994 204.268 65.7282C202.891 66.231 201.486 66.6972 200.029 66.8551C198.045 67.0704 195.989 66.4875 194.195 65.6776C193.734 65.4695 192.851 65.2954 192.651 64.7931C192.536 64.5061 192.555 64.1857 192.578 63.8775C193.026 57.9424 194.511 51.8493 198.316 47.2719C199.332 46.0504 200.589 44.9062 202.147 44.5975C203.297 44.37 204.904 44.5246 205.437 45.6193Z" fill="#F7AC81"/>
<path d="M200.344 61.587C198.098 63.0371 195.246 63.5116 192.652 62.8658C192.853 61.3305 193.056 59.7881 193.486 58.3007C193.592 57.933 193.722 57.5531 193.999 57.2889C194.428 56.88 195.083 56.8544 195.675 56.8444C198.081 56.8027 200.547 56.6069 202.807 55.7191C203.206 55.5623 203.81 55.1078 204.24 55.3915C204.676 55.6791 204.406 56.2242 204.269 56.6086C203.929 57.5586 203.442 58.4559 202.835 59.2613C202.147 60.1724 201.303 60.9673 200.344 61.587Z" fill="#F78681"/>
<path d="M181.296 51.0104C181.017 51.4409 180.732 51.8864 180.642 52.391C180.551 52.8955 180.704 53.4801 181.139 53.7515C181.69 54.0942 182.413 53.8127 182.95 53.4484C184.389 52.4722 185.378 50.9753 186.294 49.4974C187.311 47.8564 188.287 46.1899 189.194 44.4856C189.497 43.9171 189.797 43.3264 189.857 42.685C189.916 42.0442 189.681 41.3339 189.127 41.0079C187.543 40.0773 185.967 43.7953 185.384 44.6953C184.022 46.8001 182.659 48.9055 181.296 51.0104Z" fill="#200026"/>
<path d="M187.539 30.4565C184.853 34.0805 184.635 39.4043 187.159 43.1423C188.869 45.6754 191.52 47.2118 193.699 49.2749C194.623 50.1499 195.198 51.2641 196.273 52.0333C197.333 52.7915 198.583 53.2805 199.85 53.5647C205.099 54.7434 210.945 52.6374 214.236 48.381C217.033 44.7626 217.864 39.7564 216.539 35.3966C215.274 31.233 211.321 27.7815 207.323 26.2841C205.438 25.5777 203.303 25.0765 201.28 25.0648C199.896 25.0565 198.58 25.5004 197.219 25.6828C193.408 26.1923 189.946 27.2075 187.539 30.4565Z" fill="#200026"/>
<path d="M217.991 30.0705C216.957 32.108 216.586 34.5934 217.506 36.6843C218.426 38.7752 220.85 40.2526 223.052 39.6452C225.15 39.0667 226.42 36.9313 227.09 34.8598C227.519 33.5343 227.795 32.132 227.635 30.7475C227.306 27.9006 225.232 26.3264 222.45 26.3325C220.344 26.3375 218.863 28.3512 217.991 30.0705Z" fill="#200026"/>
<path d="M222.584 29.2823C222.917 29.1911 223.285 29.1299 223.598 29.2756C223.911 29.4214 224.108 29.8519 223.9 30.1284C223.808 30.2513 223.661 30.318 223.54 30.4132C223.419 30.5088 223.319 30.6679 223.377 30.8103C223.437 30.9577 223.623 30.9972 223.78 31.0184C224.236 31.0801 224.717 31.1769 225.05 31.4934C225.384 31.8105 225.475 32.419 225.119 32.7105C224.9 32.8901 224.514 33.0114 224.573 33.2884C224.615 33.4859 224.863 33.5432 225.023 33.6672C225.317 33.8953 225.281 34.3809 225.041 34.6651C224.801 34.9488 224.425 35.0751 224.064 35.1635C223.076 35.406 222.042 35.4628 221.033 35.3304C220.899 35.3126 220.749 35.2826 220.673 35.1708C220.515 34.9394 220.807 34.6685 221.057 34.5444C221.424 34.3631 221.806 34.1834 222.074 33.8752C222.343 33.5671 222.464 33.0876 222.24 32.7455C221.936 32.2805 221.235 32.325 220.775 32.0124C219.04 30.832 221.717 29.5204 222.584 29.2823Z" fill="#31003B"/>
<path d="M200.048 28.7278C198.857 28.3051 197.603 28.0631 196.354 28.334C195.227 28.5782 194.203 29.2229 193.288 29.9805C189.208 33.358 187.845 39.1146 186.649 44.0569C186.266 45.6377 185.906 47.2709 186.158 48.8779C186.396 50.392 187.169 51.7815 188.146 52.9624C190.524 55.8387 193.669 57.9469 197.384 58.556C199.835 58.9582 202.495 58.566 204.502 56.9629C205.604 56.0835 206.458 54.8881 207.202 53.6438C209.148 50.3864 210.449 46.6028 210.472 42.7397C210.495 38.8765 209.145 34.9461 206.488 32.3974C206.103 32.028 205.694 31.6893 205.268 31.3772C203.98 30.4338 202.566 29.7914 201.132 29.1622C200.778 29.0059 200.416 28.8585 200.048 28.7278Z" fill="#F7AC81"/>
<path d="M198.134 44.6136C198.086 44.7854 198.017 44.9618 197.88 45.0758C197.638 45.2766 197.251 45.2099 197.018 44.999C196.785 44.7882 196.676 44.4728 196.614 44.1641C196.544 43.8142 196.524 43.4432 196.647 43.1078C196.769 42.7724 197.057 42.4815 197.41 42.4353C198.454 42.299 198.299 44.0139 198.134 44.6136Z" fill="black"/>
<path d="M190.977 41.8334C190.91 42.0447 190.807 42.2522 190.636 42.3946C190.466 42.537 190.22 42.6032 190.016 42.517C189.765 42.4113 189.65 42.1254 189.578 41.8629C189.476 41.4852 189.413 41.0824 189.514 40.7042C189.631 40.2648 190.161 39.6824 190.641 40.005C191.171 40.3615 191.143 41.3122 190.977 41.8334Z" fill="black"/>
<path d="M193.533 42.3424C192.983 43.8821 192.203 45.3395 191.228 46.6522C191.093 46.8347 190.946 47.0566 191.021 47.2708C191.081 47.4432 191.262 47.5372 191.427 47.614C191.884 47.8276 192.342 48.0412 192.799 48.2548" stroke="black" stroke-width="1.0309" stroke-miterlimit="10" stroke-linecap="round" stroke-linejoin="round"/>
<path d="M194.714 52.8765C193.886 51.6378 192.506 50.7828 191.028 50.5931" stroke="black" stroke-width="1.0309" stroke-miterlimit="10" stroke-linecap="round" stroke-linejoin="round"/>
<path d="M200.715 40.7281C199.985 41.0007 199.16 41.0107 198.424 40.7565C197.688 40.5023 197.045 39.985 196.638 39.3197" stroke="black" stroke-width="1.0309" stroke-miterlimit="10" stroke-linecap="round" stroke-linejoin="round"/>
<path d="M192.415 38.3759C192.028 37.8469 191.607 37.3151 191.031 37.0025C190.455 36.6899 189.683 36.6493 189.182 37.0726" stroke="black" stroke-width="1.0309" stroke-miterlimit="10" stroke-linecap="round" stroke-linejoin="round"/>
<path d="M202.541 48.8004C202.726 49.4841 202.555 49.9246 202.127 50.4898C201.55 51.2529 200.432 51.9994 199.562 51.6C199.116 51.3953 198.778 51.0048 198.545 50.5732C198.255 50.0348 198.112 49.4062 198.211 48.8027C198.31 48.1991 198.667 47.6284 199.203 47.3336C200.287 46.7368 202.223 47.624 202.541 48.8004Z" fill="#F78681"/>
<path d="M189.831 45.7688C189.986 46.5976 189.455 47.4993 188.655 47.7652C187.855 48.0311 186.889 47.6261 186.518 46.8696C186.07 45.9568 186.516 44.3532 187.592 44.0639C188.438 43.8358 189.684 44.9812 189.831 45.7688Z" fill="#F78681"/>
<path d="M197.783 35.7543C198.179 36.5386 198.66 37.2857 199.184 37.9877C200.259 39.4294 201.518 40.7188 202.701 42.07C203.786 43.3093 204.749 44.6788 206.084 45.6772C207.429 46.6835 209.151 47.3003 210.8 46.9827C212.503 46.6551 213.923 45.3468 214.63 43.7637C215.338 42.1806 215.39 40.3612 215.039 38.6629C214.689 36.9653 213.957 35.3694 213.14 33.8403C212.202 32.0836 211.135 30.3787 209.77 28.9292C208.405 27.479 206.724 26.2881 204.818 25.7118C203.692 25.3714 202.485 25.2513 201.332 25.4832C198.342 26.0845 196.501 29.3858 196.75 32.3061C196.853 33.5132 197.236 34.6691 197.783 35.7543Z" fill="#200026"/>
<path d="M202.527 38.313C202.707 38.5388 202.906 38.7763 203.184 38.857C203.461 38.9377 203.826 38.7719 203.836 38.4826C203.849 38.0927 203.278 37.9186 203.206 37.5354C203.133 37.1488 203.644 36.8773 204.023 36.9825C204.402 37.0876 204.678 37.403 204.992 37.6388C205.307 37.8747 205.763 38.0321 206.08 37.7985C206.387 37.5715 206.383 37.1221 206.391 36.7394C206.398 36.3572 206.523 35.8866 206.898 35.8104C207.106 35.7682 207.313 35.8705 207.5 35.9695C208.2 36.34 208.899 36.711 209.599 37.0815C208.558 35.079 207.24 33.2211 205.693 31.5774C205.349 31.2119 204.804 30.8348 204.398 31.1302C203.723 31.6213 204.745 32.9057 204.135 33.4753C203.853 33.739 203.382 33.6422 203.068 33.4186C202.753 33.1944 202.52 32.8696 202.2 32.6526C201.648 32.2772 200.808 32.3167 200.27 32.7138C199.724 33.1171 199.818 33.551 200.012 34.155C200.512 35.7048 201.525 37.0548 202.527 38.313Z" fill="#31003B"/>
<path d="M211.102 35.7276C211.27 36.0074 211.462 36.296 211.759 36.4318C212.055 36.5669 212.48 36.469 212.58 36.1587C212.629 36.0068 212.592 35.8421 212.591 35.6825C212.59 35.5229 212.65 35.3382 212.801 35.287C212.943 35.2397 213.098 35.3376 213.173 35.4661C213.249 35.5946 213.267 35.747 213.301 35.8922C213.375 36.2143 213.536 36.5252 213.795 36.7305C214.054 36.9357 214.418 37.0214 214.727 36.9029C215.155 36.7388 215.37 36.2332 215.342 35.776C215.314 35.3187 215.097 34.8971 214.884 34.4916C214.423 33.6133 213.962 32.735 213.502 31.8566C213.378 31.6213 213.247 31.3777 213.033 31.2208C212.819 31.064 212.494 31.0234 212.297 31.2025C212.07 31.4094 212.119 31.7704 212.158 32.0752C212.196 32.3801 212.154 32.7694 211.865 32.874C211.702 32.439 211.53 31.9896 211.202 31.6614C210.432 30.8921 209.289 31.4556 209.541 32.5147C209.793 33.5821 210.541 34.792 211.102 35.7276Z" fill="#31003B"/>
<path d="M208.625 55.4482C204.696 54.8686 205.945 49.5169 207.358 47.2163C208.275 45.7239 209.903 43.7892 211.871 44.5012C212.917 44.8795 213.674 45.8535 213.997 46.9181C214.319 47.9833 214.255 49.1303 214.044 50.2228C213.78 51.585 213.271 52.9362 212.338 53.963C211.404 54.9915 209.998 55.6512 208.625 55.4482Z" fill="#F7AC81"/>
<path d="M209.962 47.0789C210.22 46.7602 210.744 46.7719 211.076 47.0133C211.408 47.2547 211.58 47.6585 211.681 48.0563C211.931 49.0408 211.806 50.1539 211.185 50.9576C210.565 51.7614 209.404 52.1647 208.472 51.7598" stroke="black" stroke-width="1.0309" stroke-miterlimit="10" stroke-linecap="round" stroke-linejoin="round"/>
<path d="M203.754 58.7623C203.647 59.244 203.573 59.8309 203.945 60.1541C204.229 60.4005 204.678 60.3693 204.998 60.1708C205.317 59.9722 205.529 59.6412 205.701 59.3069C206.376 57.9997 206.597 56.5134 206.808 55.0577C207.272 51.8632 207.735 48.6687 208.198 45.4747C208.242 45.1738 208.285 44.8617 208.197 44.5708C208.061 44.1214 207.51 43.8443 207.096 44.1419C206.774 44.3728 206.818 44.8267 206.752 45.1732C206.473 46.6539 206.114 48.123 205.787 49.5943C205.11 52.6497 204.431 55.7063 203.754 58.7623Z" fill="#200026"/>
<path d="M195.099 96.5281C196.609 96.9809 198.27 96.6405 199.671 95.9168C201.072 95.1937 202.253 94.1151 203.387 93.0204C206.181 90.3243 208.797 87.4502 211.293 84.4776C213.564 81.772 216.274 79.1671 217.229 75.6655C217.732 73.8216 217.755 71.7056 216.64 70.1531C215.111 68.0238 211.913 67.7167 209.503 68.7475C206.915 69.8538 205.295 72.1434 203.209 73.8694C200.903 75.7779 198.912 78.3917 197.231 80.8514C195.327 83.6371 193.788 86.6926 192.836 89.9355C192.052 92.6094 191.732 95.5191 195.099 96.5281Z" fill="#F7AC81"/>
<path d="M217.5 75.4364C216.755 80.2768 213.356 84.7652 209.843 88.0276C209.762 88.1032 209.663 88.1839 209.553 88.1672C209.405 88.1438 209.345 87.9664 209.313 87.8195C208.181 82.5574 205.37 77.6703 201.39 74.0463C204.121 71.2067 207.827 68.4321 211.739 67.5783C212.587 67.393 213.47 67.2862 214.321 67.4537C217.475 68.0739 217.894 72.8726 217.5 75.4364Z" fill="#339BFE"/>
<path d="M208.97 87.4708C209.121 87.9853 209.272 88.4998 209.422 89.0144C211.964 86.7755 214.1 84.0782 215.696 81.0912" stroke="black" stroke-width="1.0309" stroke-miterlimit="10" stroke-linecap="round" stroke-linejoin="round"/>
<path d="M201.193 74.3345C202.461 72.6446 203.982 71.1444 205.691 69.9006" stroke="black" stroke-width="1.0309" stroke-miterlimit="10" stroke-linecap="round" stroke-linejoin="round"/>
<path d="M202.424 72.7715C207.391 75.6901 211.03 80.7792 212.187 86.4229" stroke="black" stroke-width="1.0309" stroke-miterlimit="10" stroke-linecap="round" stroke-linejoin="round"/>
<path d="M170.493 90.3499C170.713 91.8662 171.497 93.2869 172.798 94.074C174.866 95.3272 177.56 94.7331 179.745 93.6957C183.389 91.9664 186.983 90.2715 190.549 88.3953C193.194 87.0041 195.839 85.6129 198.483 84.2217C200.554 83.132 202.914 82.0435 203.839 79.7211C204.536 77.9712 203.981 75.6405 202.278 74.8351C201.138 74.2955 199.8 74.5219 198.565 74.7767C194.328 75.65 190.133 76.7307 186.015 78.0591C184.019 78.7032 182.051 79.4108 180.137 80.2357C178.227 81.0584 176.292 81.6558 174.548 82.8345C172.676 84.0994 171.083 85.9289 170.578 88.131C170.412 88.8525 170.386 89.6123 170.493 90.3499Z" fill="#F7AC81"/>
<path d="M170.899 89.604C172.897 89.4633 174.908 90.7855 175.571 92.6756" stroke="black" stroke-width="1.0309" stroke-miterlimit="10" stroke-linecap="round" stroke-linejoin="round"/>
<path d="M177.539 81.2046C175.921 81.8393 174.56 83.1025 173.807 84.6683" stroke="black" stroke-width="1.0309" stroke-miterlimit="10" stroke-linecap="round" stroke-linejoin="round"/>
<path d="M206.459 84.9132C202.659 85.8065 199.125 82.034 197.815 78.8301C197.556 78.1959 197.357 77.4812 197.584 76.8348C197.809 76.1929 198.4 75.7596 198.983 75.4091C200.452 74.5253 202.126 73.8917 203.839 73.9406C206.902 74.0285 209.621 76.8381 209.846 79.8591C210.009 82.0607 208.608 84.4081 206.459 84.9132Z" fill="#F7AC81"/>
<path d="M202.657 84.4637C204.269 85.3342 206.363 85.2235 207.874 84.1873" stroke="black" stroke-width="1.0309" stroke-miterlimit="10" stroke-linecap="round" stroke-linejoin="round"/>
<path d="M201.864 78.5958C203.586 80.4203 204.946 82.5869 205.839 84.9315" stroke="black" stroke-width="1.0309" stroke-miterlimit="10" stroke-linecap="round" stroke-linejoin="round"/>
<path d="M204.656 78.2443C206.174 79.9942 207.366 82.0262 208.153 84.205" stroke="black" stroke-width="1.0309" stroke-miterlimit="10" stroke-linecap="round" stroke-linejoin="round"/>
<path d="M206.042 76.7135C207.539 78.1091 208.751 79.809 209.582 81.6791" stroke="black" stroke-width="1.0309" stroke-miterlimit="10" stroke-linecap="round" stroke-linejoin="round"/>
<path d="M188.356 84.6094C188.683 87.2544 189.033 89.9728 190.317 92.3085C191.503 94.4673 193.661 96.2606 196.124 96.3123C198.386 96.3596 200.557 94.9351 201.674 92.9687C204.656 87.7194 201.848 80.2179 199.093 74.7372C197.435 71.4375 195.927 68.0628 194.576 64.6263C193.9 62.908 193.264 61.1742 192.666 59.427C192.161 57.9491 191.883 56.9712 190.304 56.3754C188.51 55.699 186.663 56.5785 185.786 58.2016C184.942 59.7635 185.466 61.2738 185.674 62.9425C186.247 67.5382 186.812 72.1345 187.381 76.7308C187.706 79.3568 188.03 81.9834 188.356 84.6094Z" fill="#F7AC81"/>
<path d="M199.095 74.5142C200.409 78.4546 202.749 82.5586 202.785 87.5543" stroke="black" stroke-width="1.0309" stroke-miterlimit="10" stroke-linecap="round" stroke-linejoin="round"/>
<path d="M194.495 91.9219C195.564 91.4096 196.789 91.0314 197.925 91.369C198.901 91.6594 199.694 92.4949 199.933 93.4844" stroke="black" stroke-width="1.0309" stroke-miterlimit="10" stroke-linecap="round" stroke-linejoin="round"/>
<path d="M187.274 77.7976C187.603 82.3533 188.084 84.6161 188.954 89.0994" stroke="black" stroke-width="1.0309" stroke-miterlimit="10" stroke-linecap="round" stroke-linejoin="round"/>
<path d="M198.953 57.3017C199.2 57.5993 199.05 58.0804 198.803 58.3908C198.322 58.9949 197.951 59.4588 197.257 59.8165C196.499 60.2075 195.677 60.4745 194.966 60.9568C194.312 61.4012 193.789 62.0086 193.222 62.5604C191.784 63.9594 190.022 65.0229 188.113 65.6431C187.142 65.9585 186.044 66.151 185.127 65.7004C184.325 65.3061 183.822 64.5001 183.375 63.7269C182.751 62.6483 182.154 61.5547 181.584 60.4472C181.376 60.0434 181.168 59.6257 181.122 59.174C181.033 58.294 181.773 57.7172 182.408 57.2405C183.044 56.7627 183.68 56.2849 184.316 55.807C184.746 55.4844 185.187 55.1479 185.452 54.6795C185.966 53.7695 185.276 52.7683 185.016 51.8822C184.72 50.8731 184.424 49.8641 184.128 48.8556C183.992 48.3906 183.939 47.7392 184.393 47.5673C184.749 47.4322 185.111 47.7353 185.362 48.0235C186.794 49.6711 187.801 51.6452 189.17 53.3456C190.482 54.9749 192.473 56.6848 194.574 57.0847C195.698 57.2989 196.856 57.2444 197.992 57.1053C198.316 57.0653 198.691 57.0352 198.921 57.2677C198.933 57.2783 198.943 57.2894 198.953 57.3017Z" fill="#F7AC81"/>
<path d="M186.122 48.5497C187.58 51.3888 189.188 54.3875 191.974 55.9439C194.059 57.1087 196.597 57.3011 198.931 56.7961C199.356 57.7406 198.811 58.8798 198.001 59.5261C197.193 60.1725 196.17 60.4728 195.223 60.8922C194.752 61.1014 194.267 61.3695 194.029 61.8267C193.664 62.5287 194.013 63.3859 194.446 64.0484C194.879 64.7109 195.417 65.3734 195.446 66.1644" stroke="black" stroke-width="1.0309" stroke-miterlimit="10" stroke-linecap="round" stroke-linejoin="round"/>
<path d="M185.033 55.3643C185.127 55.5868 185.221 55.8098 185.315 56.0323" stroke="black" stroke-width="1.0309" stroke-miterlimit="10" stroke-linecap="round" stroke-linejoin="round"/>
<path d="M182.386 57.3512C182.47 57.5236 182.555 57.6966 182.64 57.8691" stroke="black" stroke-width="1.0309" stroke-miterlimit="10" stroke-linecap="round" stroke-linejoin="round"/>
<path d="M183.883 56.2731C183.972 56.4906 184.062 56.7081 184.151 56.9255" stroke="black" stroke-width="1.0309" stroke-miterlimit="10" stroke-linecap="round" stroke-linejoin="round"/>
<path d="M235.658 31.825C234.045 31.3289 232.795 29.8153 232.613 28.1371C232.462 26.7432 233.01 25.3264 233.923 24.2623C235.746 22.138 239.032 20.8325 241.763 20.3641C245.492 19.725 249.503 21.0533 252.112 23.7934C254.722 26.5335 255.855 30.6035 255.035 34.297C253.944 39.2159 250.237 41.4053 246.101 43.5307C244.353 44.429 242.643 45.5705 241.629 47.2542C241.046 48.2232 240.721 49.3285 240.144 50.3008C239.567 51.2731 238.623 52.1492 237.493 52.1737C236.234 52.2009 235.161 51.1268 234.79 49.9242C234.42 48.7216 234.6 47.4239 234.837 46.1879C235.385 43.321 236.45 40.2082 239.033 38.8488C240.52 38.0661 242.279 38.0044 243.858 37.4292C245.73 36.7478 247.363 35.2387 247.859 33.3097C248.356 31.3812 247.508 29.0955 245.716 28.2261C243.744 27.2694 241.89 28.5059 240.663 29.995C239.426 31.4963 237.671 32.4436 235.658 31.825Z" fill="#339BFE"/>
<path d="M230.57 59.4181C230.627 61.1308 231.719 62.7678 233.28 63.4771C234.24 63.9137 235.38 64.0027 236.354 63.5961C237.569 63.0882 238.38 61.8812 238.74 60.614C239.19 59.0287 238.981 57.1837 237.884 55.9533C235.174 52.9111 230.452 55.8342 230.57 59.4181Z" fill="#339BFE"/>
<path d="M235.975 42.3085C236.391 42.9398 237.095 43.3348 237.824 43.5361C239.706 44.0568 241.812 43.3643 243.196 41.9853C244.579 40.6064 245.271 38.6256 245.301 36.6726" stroke="white" stroke-width="1.1806" stroke-miterlimit="10" stroke-linecap="round" stroke-linejoin="round"/>
<path d="M253.007 38.303C251.243 36.6504 250.036 34.3169 250.075 31.9006C250.115 29.4842 251.546 27.0551 253.789 26.1545" stroke="white" stroke-width="1.1806" stroke-miterlimit="10" stroke-linecap="round" stroke-linejoin="round"/>
<path d="M235.967 22.5423C236.378 24.0625 237.767 25.2217 239.312 25.5349C240.855 25.8475 242.5 25.3769 243.769 24.4447C245.039 23.5118 245.952 22.1518 246.53 20.6866" stroke="white" stroke-width="1.1806" stroke-miterlimit="10" stroke-linecap="round" stroke-linejoin="round"/>
</svg>
