<svg width="40" height="40" viewBox="0 0 40 40" fill="none" xmlns="http://www.w3.org/2000/svg">
<rect width="40" height="40" rx="20" fill="#D65519"/>
<path d="M19.5331 11.833C19.5331 13.359 19.0664 14.7217 18.3384 15.6177C17.5637 16.5744 17.1997 17.8018 17.1997 19.0338V32.0774C17.1997 32.5441 16.8871 32.9781 16.4251 33.0528C15.8417 33.1508 15.333 32.6981 15.333 32.1334V19.0338C15.333 17.8017 14.969 16.5744 14.1943 15.6177C13.4663 14.7217 12.9996 13.359 12.9996 11.833C12.9996 9.12625 14.4603 6.93286 16.2664 6.93286C18.0724 6.93286 19.5331 9.12625 19.5331 11.833Z" fill="white"/>
<path d="M18.4785 9.74695C18.3618 9.42494 18.2219 9.13094 18.0585 8.86495C17.9885 8.75292 17.8438 8.72025 17.7365 8.7856C17.6245 8.85561 17.5919 9.00028 17.6572 9.1076C17.8065 9.34562 17.9325 9.61629 18.0398 9.90563C18.0725 10.0036 18.1612 10.0596 18.2592 10.0596C18.2872 10.0596 18.3105 10.055 18.3385 10.0456C18.4598 10.0036 18.5205 9.8683 18.4785 9.74695ZM18.8005 11.1657C18.7865 11.0397 18.6699 10.9463 18.5439 10.9557C18.4132 10.9696 18.3199 11.0863 18.3338 11.2123C18.3572 11.4177 18.3665 11.6277 18.3665 11.833C18.3665 12.379 18.2919 12.9344 18.1425 13.4384C18.1099 13.5597 18.1798 13.6904 18.3058 13.723C18.3245 13.7324 18.3479 13.7324 18.3665 13.7324C18.4692 13.7324 18.5625 13.667 18.5952 13.5644C18.7492 13.023 18.8332 12.421 18.8332 11.833C18.8332 11.6136 18.8238 11.385 18.8005 11.1657Z" fill="#D65519"/>
<path d="M27.0004 7.1662V14.3437C27.0004 14.9784 26.7484 15.585 26.3004 16.0331C25.8524 16.4811 25.6004 17.0878 25.6004 17.7224V32.1474C25.6004 32.6561 25.1897 33.0668 24.681 33.0668H24.653C24.1443 33.0668 23.7336 32.6561 23.7336 32.1474V17.7224C23.7336 17.3118 23.631 16.9151 23.435 16.5651C23.3276 16.3691 23.1923 16.1917 23.0336 16.0331C22.5856 15.585 22.3336 14.9784 22.3336 14.3437V7.1662C22.3336 7.03552 22.4363 6.93286 22.567 6.93286C22.6976 6.93286 22.8003 7.03552 22.8003 7.1662V11.5996C22.8003 11.8563 23.0103 12.0663 23.267 12.0663C23.5236 12.0663 23.7336 11.8563 23.7336 11.5996V7.1662C23.7336 7.03552 23.8363 6.93286 23.967 6.93286C24.0977 6.93286 24.2003 7.03552 24.2003 7.1662V11.5996C24.2003 11.8563 24.4103 12.0663 24.667 12.0663C24.9237 12.0663 25.1337 11.8563 25.1337 11.5996V7.1662C25.1337 7.03552 25.2363 6.93286 25.367 6.93286C25.4977 6.93286 25.6004 7.03552 25.6004 7.1662V11.5996C25.6004 11.8563 25.8104 12.0663 26.067 12.0663C26.3237 12.0663 26.5337 11.8563 26.5337 11.5996V7.1662C26.5337 7.03552 26.6364 6.93286 26.767 6.93286C26.8977 6.93286 27.0004 7.03552 27.0004 7.1662Z" fill="white"/>
</svg>
