<svg width="684" height="248" viewBox="0 0 684 248" fill="none" xmlns="http://www.w3.org/2000/svg">
<g filter="url(#filter0_d_8_4214)">
<g clip-path="url(#clip0_8_4214)">
<rect x="4" y="1" width="676" height="240" rx="12" fill="white"/>
<mask id="mask0_8_4214" style="mask-type:luminance" maskUnits="userSpaceOnUse" x="-274" y="-17" width="1231" height="308">
<path d="M-273.328 -17H956.324V290.413H-273.328V-17Z" fill="url(#paint0_radial_8_4214)"/>
</mask>
<g mask="url(#mask0_8_4214)">
<path d="M-14.749 -17L3.08602 -6.70333V13.8917L-14.749 24.1883L-32.584 13.8917V-6.70333L-14.749 -17ZM21.0843 -17L38.9193 -6.70333V13.8917L21.0843 24.1883L3.24935 13.8917V-6.70333L21.0843 -17ZM164.418 -17L182.253 -6.70333V13.8917L164.418 24.1883L146.583 13.8917V-6.70333L164.418 -17ZM271.918 -17L289.753 -6.70333V13.8917L271.918 24.1883L254.083 13.8917V-6.70333L271.918 -17ZM307.751 -17L325.586 -6.70333V13.8917L307.751 24.1883L289.916 13.8917V-6.70333L307.751 -17Z" stroke="#DDDDDD" stroke-width="0.296556"/>
<path d="M379.419 -17L397.254 -6.70333V13.8917L379.419 24.1883L361.584 13.8917V-6.70333L379.419 -17Z" fill="#DDDDDD" fill-opacity="0.0196078" stroke="#DDDDDD" stroke-width="0.296556"/>
<path d="M415.251 -17L433.086 -6.70333V13.8917L415.251 24.1883L397.416 13.8917V-6.70333L415.251 -17ZM522.751 -17L540.586 -6.70333V13.8917L522.751 24.1883L504.916 13.8917V-6.70333L522.751 -17Z" stroke="#DDDDDD" stroke-width="0.296556"/>
<path d="M594.419 -17L612.254 -6.70333V13.8917L594.419 24.1883L576.584 13.8917V-6.70333L594.419 -17Z" fill="#DDDDDD" fill-opacity="0.494118" stroke="#DDDDDD" stroke-width="0.296556"/>
<path d="M666.086 -17L683.921 -6.70333V13.8917L666.086 24.1883L648.251 13.8917V-6.70333L666.086 -17ZM809.419 -17L827.254 -6.70333V13.8917L809.419 24.1883L791.584 13.8917V-6.70333L809.419 -17ZM845.252 -17L863.087 -6.70333V13.8917L845.252 24.1883L827.417 13.8917V-6.70333L845.252 -17ZM-104.331 13.8908L-86.496 24.1875V44.7817L-104.331 55.0783L-122.166 44.7817V24.1875L-104.331 13.8908ZM-32.6644 13.8908L-14.8294 24.1875V44.7817L-32.6644 55.0783L-50.4994 44.7817V24.1875L-32.6644 13.8908ZM3.16898 13.8908L21.004 24.1875V44.7817L3.16898 55.0783L-14.666 44.7817V24.1875L3.16898 13.8908ZM146.502 13.8908L164.337 24.1875V44.7817L146.502 55.0783L128.667 44.7817V24.1875L146.502 13.8908ZM182.336 13.8908L200.171 24.1875V44.7817L182.336 55.0783L164.501 44.7817V24.1875L182.336 13.8908Z" stroke="#DDDDDD" stroke-width="0.296556"/>
<path d="M218.169 13.8906L236.004 24.1873V44.7815L218.169 55.0781L200.334 44.7815V24.1873L218.169 13.8906Z" fill="#DDDDDD" stroke="#DDDDDD" stroke-width="0.296556"/>
<path d="M254.001 13.8906L271.836 24.1873V44.7815L254.001 55.0781L236.166 44.7815V24.1873L254.001 13.8906Z" fill="#DDDDDD" fill-opacity="0.211765" stroke="#DDDDDD" stroke-width="0.296556"/>
<path d="M289.835 13.8909L307.67 24.1875V44.7817L289.835 55.0784L272 44.7817V24.1875L289.835 13.8909Z" fill="#DDDDDD" fill-opacity="0.576471" stroke="#DDDDDD" stroke-width="0.296556"/>
<path d="M469.001 13.8906L486.836 24.1873V44.7815L469.001 55.0781L451.166 44.7815V24.1873L469.001 13.8906ZM504.834 13.8906L522.669 24.1873V44.7815L504.834 55.0781L486.999 44.7815V24.1873L504.834 13.8906ZM540.668 13.8906L558.503 24.1873V44.7815L540.668 55.0781L522.833 44.7815V24.1873L540.668 13.8906ZM576.501 13.8906L594.336 24.1873V44.7815L576.501 55.0781L558.666 44.7815V24.1873L576.501 13.8906ZM612.334 13.8906L630.169 24.1873V44.7815L612.334 55.0781L594.499 44.7815V24.1873L612.334 13.8906Z" stroke="#DDDDDD" stroke-width="0.296556"/>
<path d="M684.001 13.8906L701.836 24.1873V44.7815L684.001 55.0781L666.166 44.7815V24.1873L684.001 13.8906Z" fill="#DDDDDD" fill-opacity="0.905882" stroke="#DDDDDD" stroke-width="0.296556"/>
<path d="M791.502 13.8909L809.337 24.1875V44.7817L791.502 55.0784L773.667 44.7817V24.1875L791.502 13.8909ZM-86.415 44.7817L-68.58 55.0784V75.6725L-86.415 85.9692L-104.25 75.6725V55.0784L-86.415 44.7817ZM-50.5817 44.7817L-32.7467 55.0784V75.6725L-50.5817 85.9692L-68.4167 75.6725V55.0784L-50.5817 44.7817ZM-14.7483 44.7817L3.08667 55.0784V75.6725L-14.7483 85.9692L-32.5833 75.6725V55.0784L-14.7483 44.7817Z" stroke="#DDDDDD" stroke-width="0.296556"/>
<path d="M21.0849 44.7812L38.9199 55.0779V75.6721L21.0849 85.9687L3.24988 75.6721V55.0779L21.0849 44.7812Z" fill="#DDDDDD" fill-opacity="0.0470588" stroke="#DDDDDD" stroke-width="0.296556"/>
<path d="M56.9189 44.7812L74.7538 55.0779V75.6721L56.9189 85.9687L39.0839 75.6721V55.0779L56.9189 44.7812Z" fill="#DDDDDD" fill-opacity="0.811765" stroke="#DDDDDD" stroke-width="0.296556"/>
<path d="M92.7509 44.7812L110.586 55.0779V75.6721L92.7509 85.9687L74.9159 75.6721V55.0779L92.7509 44.7812ZM128.584 44.7812L146.419 55.0779V75.6721L128.584 85.9687L110.749 75.6721V55.0779L128.584 44.7812Z" stroke="#DDDDDD" stroke-width="0.296556"/>
<path d="M200.251 44.7812L218.086 55.0779V75.6721L200.251 85.9687L182.416 75.6721V55.0779L200.251 44.7812Z" fill="#DDDDDD" fill-opacity="0.737255" stroke="#DDDDDD" stroke-width="0.296556"/>
<path d="M307.751 44.7812L325.586 55.0779V75.6721L307.751 85.9687L289.916 75.6721V55.0779L307.751 44.7812ZM379.418 44.7812L397.253 55.0779V75.6721L379.418 85.9687L361.583 75.6721V55.0779L379.418 44.7812Z" stroke="#DDDDDD" stroke-width="0.296556"/>
<path d="M415.251 44.7812L433.086 55.0779V75.6721L415.251 85.9687L397.416 75.6721V55.0779L415.251 44.7812Z" fill="#DDDDDD" fill-opacity="0.839216" stroke="#DDDDDD" stroke-width="0.296556"/>
<path d="M451.085 44.7812L468.92 55.0779V75.6721L451.085 85.9687L433.25 75.6721V55.0779L451.085 44.7812ZM486.918 44.7812L504.753 55.0779V75.6721L486.918 85.9687L469.083 75.6721V55.0779L486.918 44.7812Z" stroke="#DDDDDD" stroke-width="0.296556"/>
<path d="M558.585 44.7812L576.42 55.0779V75.6721L558.585 85.9687L540.75 75.6721V55.0779L558.585 44.7812Z" fill="#DDDDDD" fill-opacity="0.760784" stroke="#DDDDDD" stroke-width="0.296556"/>
<path d="M594.419 44.7812L612.254 55.0779V75.6721L594.419 85.9687L576.584 75.6721V55.0779L594.419 44.7812ZM666.086 44.7812L683.921 55.0779V75.6721L666.086 85.9687L648.251 75.6721V55.0779L666.086 44.7812Z" stroke="#DDDDDD" stroke-width="0.296556"/>
<path d="M3.16886 75.6729L21.0039 85.9695V106.564L3.16886 116.86L-14.6661 106.564V85.9695L3.16886 75.6729ZM74.8355 75.6729L92.6705 85.9695V106.564L74.8355 116.86L57.0005 106.564V85.9695L74.8355 75.6729ZM182.336 75.6729L200.171 85.9695V106.564L182.336 116.86L164.501 106.564V85.9695L182.336 75.6729Z" stroke="#DDDDDD" stroke-width="0.296556"/>
<path d="M218.169 75.6729L236.004 85.9695V106.564L218.169 116.86L200.334 106.564V85.9695L218.169 75.6729Z" fill="#DDDDDD" fill-opacity="0.886275" stroke="#DDDDDD" stroke-width="0.296556"/>
<path d="M289.835 75.6729L307.67 85.9695V106.564L289.835 116.86L272 106.564V85.9695L289.835 75.6729Z" fill="#DDDDDD" fill-opacity="0.309804" stroke="#DDDDDD" stroke-width="0.296556"/>
<path d="M325.668 75.6729L343.503 85.9695V106.564L325.668 116.86L307.833 106.564V85.9695L325.668 75.6729ZM361.501 75.6729L379.336 85.9695V106.564L361.501 116.86L343.666 106.564V85.9695L361.501 75.6729ZM504.834 75.6729L522.669 85.9695V106.564L504.834 116.86L486.999 106.564V85.9695L504.834 75.6729ZM540.668 75.6729L558.503 85.9695V106.564L540.668 116.86L522.833 106.564V85.9695L540.668 75.6729ZM576.501 75.6729L594.336 85.9695V106.564L576.501 116.86L558.666 106.564V85.9695L576.501 75.6729ZM612.334 75.6729L630.169 85.9695V106.564L612.334 116.86L594.499 106.564V85.9695L612.334 75.6729ZM648.168 75.6729L666.003 85.9695V106.564L648.168 116.86L630.333 106.564V85.9695L648.168 75.6729ZM684.001 75.6729L701.836 85.9695V106.564L684.001 116.86L666.166 106.564V85.9695L684.001 75.6729ZM791.501 75.6729L809.336 85.9695V106.564L791.501 116.86L773.666 106.564V85.9695L791.501 75.6729ZM827.334 75.6729L845.169 85.9695V106.564L827.334 116.86L809.499 106.564V85.9695L827.334 75.6729ZM-122.249 106.564L-104.414 116.86V137.455L-122.249 147.75L-140.084 137.455V116.86L-122.249 106.564ZM-50.5824 106.564L-32.7474 116.86V137.455L-50.5824 147.75L-68.4174 137.455V116.86L-50.5824 106.564ZM-14.7491 106.564L3.08589 116.86V137.455L-14.7491 147.75L-32.5841 137.455V116.86L-14.7491 106.564Z" stroke="#DDDDDD" stroke-width="0.296556"/>
<path d="M21.085 106.563L38.92 116.86V137.454L21.085 147.75L3.25 137.454V116.86L21.085 106.563Z" fill="#DDDDDD" fill-opacity="0.184314" stroke="#DDDDDD" stroke-width="0.296556"/>
<path d="M128.585 106.563L146.42 116.86V137.454L128.585 147.75L110.75 137.454V116.86L128.585 106.563Z" fill="#DDDDDD" fill-opacity="0.0470588" stroke="#DDDDDD" stroke-width="0.296556"/>
<path d="M164.419 106.563L182.254 116.86V137.454L164.419 147.75L146.584 137.454V116.86L164.419 106.563ZM236.086 106.563L253.921 116.86V137.454L236.086 147.75L218.251 137.454V116.86L236.086 106.563ZM271.919 106.563L289.754 116.86V137.454L271.919 147.75L254.084 137.454V116.86L271.919 106.563Z" stroke="#DDDDDD" stroke-width="0.296556"/>
<path d="M343.585 106.563L361.42 116.86V137.454L343.585 147.75L325.75 137.454V116.86L343.585 106.563Z" fill="#DDDDDD" fill-opacity="0.403922" stroke="#DDDDDD" stroke-width="0.296556"/>
<path d="M379.419 106.563L397.254 116.86V137.454L379.419 147.75L361.584 137.454V116.86L379.419 106.563ZM415.252 106.563L433.087 116.86V137.454L415.252 147.75L397.417 137.454V116.86L415.252 106.563Z" stroke="#DDDDDD" stroke-width="0.296556"/>
<path d="M451.085 106.563L468.92 116.86V137.454L451.085 147.75L433.25 137.454V116.86L451.085 106.563Z" fill="#DDDDDD" fill-opacity="0.427451" stroke="#DDDDDD" stroke-width="0.296556"/>
<path d="M522.751 106.563L540.586 116.86V137.454L522.751 147.75L504.916 137.454V116.86L522.751 106.563Z" fill="#DDDDDD" fill-opacity="0.403922" stroke="#DDDDDD" stroke-width="0.296556"/>
<path d="M558.585 106.563L576.42 116.86V137.454L558.585 147.75L540.75 137.454V116.86L558.585 106.563ZM666.085 106.563L683.92 116.86V137.454L666.085 147.75L648.25 137.454V116.86L666.085 106.563ZM773.585 106.563L791.42 116.86V137.454L773.585 147.751L755.75 137.454V116.86L773.585 106.563ZM809.418 106.563L827.253 116.86V137.454L809.418 147.751L791.583 137.454V116.86L809.418 106.563Z" stroke="#DDDDDD" stroke-width="0.296556"/>
<path d="M-104.331 137.454L-86.496 147.75V168.344L-104.331 178.642L-122.166 168.345V147.75L-104.331 137.454ZM-68.4977 137.454L-50.6627 147.751V168.345L-68.4977 178.642L-86.3327 168.345V147.75L-68.4977 137.454ZM3.16898 137.454L21.004 147.751V168.345L3.16898 178.642L-14.666 168.345V147.75L3.16898 137.454ZM146.502 137.454L164.337 147.751V168.345L146.502 178.642L128.667 168.345V147.75L146.502 137.454Z" stroke="#DDDDDD" stroke-width="0.296556"/>
<path d="M182.335 137.454L200.17 147.751V168.345L182.335 178.642L164.5 168.345V147.75L182.335 137.454Z" fill="#DDDDDD" fill-opacity="0.623529" stroke="#DDDDDD" stroke-width="0.296556"/>
<path d="M254.001 137.454L271.836 147.751V168.345L254.001 178.642L236.166 168.345V147.75L254.001 137.454ZM325.668 137.454L343.503 147.751V168.345L325.668 178.642L307.833 168.345V147.75L325.668 137.454ZM397.334 137.454L415.169 147.751V168.345L397.334 178.642L379.499 168.345V147.75L397.334 137.454ZM433.168 137.454L451.003 147.751V168.345L433.168 178.642L415.333 168.345V147.75L433.168 137.454Z" stroke="#DDDDDD" stroke-width="0.296556"/>
<path d="M504.835 137.454L522.67 147.751V168.345L504.835 178.642L487 168.345V147.75L504.835 137.454Z" fill="#DDDDDD" fill-opacity="0.270588" stroke="#DDDDDD" stroke-width="0.296556"/>
<path d="M540.669 137.454L558.504 147.751V168.345L540.669 178.642L522.834 168.345V147.75L540.669 137.454Z" fill="#DDDDDD" fill-opacity="0.596078" stroke="#DDDDDD" stroke-width="0.296556"/>
<path d="M576.501 137.454L594.336 147.751V168.345L576.501 178.642L558.666 168.345V147.75L576.501 137.454Z" fill="#DDDDDD" fill-opacity="0.772549" stroke="#DDDDDD" stroke-width="0.296556"/>
<path d="M648.169 137.454L666.004 147.751V168.345L648.169 178.642L630.334 168.345V147.75L648.169 137.454Z" fill="#DDDDDD" fill-opacity="0.141176" stroke="#DDDDDD" stroke-width="0.296556"/>
<path d="M684.002 137.454L701.837 147.751V168.345L684.002 178.642L666.167 168.345V147.75L684.002 137.454ZM719.835 137.454L737.67 147.751V168.345L719.835 178.642L702 168.345V147.75L719.835 137.454ZM755.668 137.454L773.503 147.751V168.345L755.668 178.642L737.833 168.345V147.75L755.668 137.454ZM791.502 137.454L809.337 147.751V168.345L791.502 178.642L773.667 168.345V147.75L791.502 137.454ZM-86.415 168.345L-68.58 178.642V199.236L-86.415 209.533L-104.25 199.236V178.642L-86.415 168.345ZM-50.5817 168.345L-32.7467 178.642V199.236L-50.5817 209.533L-68.4167 199.236V178.642L-50.5817 168.345ZM21.085 168.345L38.92 178.642V199.236L21.085 209.533L3.25001 199.236V178.642L21.085 168.345ZM56.9183 168.345L74.7533 178.642V199.236L56.9183 209.533L39.0833 199.236V178.642L56.9183 168.345ZM92.7517 168.345L110.587 178.642V199.236L92.7517 209.533L74.9167 199.236V178.642L92.7517 168.345ZM128.585 168.345L146.42 178.642V199.236L128.585 209.533L110.75 199.236V178.642L128.585 168.345ZM164.418 168.345L182.253 178.642V199.236L164.418 209.533L146.583 199.236V178.642L164.418 168.345ZM200.252 168.345L218.087 178.642V199.236L200.252 209.533L182.417 199.236V178.642L200.252 168.345ZM236.085 168.345L253.92 178.642V199.236L236.085 209.533L218.25 199.236V178.642L236.085 168.345ZM379.418 168.345L397.253 178.642V199.236L379.418 209.533L361.583 199.236V178.642L379.418 168.345ZM415.252 168.345L433.087 178.642V199.236L415.252 209.533L397.417 199.236V178.642L415.252 168.345ZM451.085 168.345L468.92 178.642V199.236L451.085 209.533L433.25 199.236V178.642L451.085 168.345Z" stroke="#DDDDDD" stroke-width="0.296556"/>
<path d="M558.585 168.345L576.42 178.641V199.236L558.585 209.532L540.75 199.236V178.641L558.585 168.345Z" fill="#DDDDDD" fill-opacity="0.607843" stroke="#DDDDDD" stroke-width="0.296556"/>
<path d="M594.419 168.345L612.254 178.641V199.236L594.419 209.532L576.584 199.236V178.641L594.419 168.345Z" fill="#DDDDDD" fill-opacity="0.478431" stroke="#DDDDDD" stroke-width="0.296556"/>
<path d="M630.251 168.345L648.086 178.641V199.236L630.251 209.532L612.416 199.236V178.641L630.251 168.345Z" stroke="#DDDDDD" stroke-width="0.296556"/>
<path d="M74.8349 199.235L92.6699 209.532V230.126L74.8349 240.423L56.9999 230.126V209.532L74.8349 199.235Z" fill="#DDDDDD" fill-opacity="0.713726" stroke="#DDDDDD" stroke-width="0.296556"/>
<path d="M110.669 199.236L128.504 209.533V230.127L110.669 240.424L92.8339 230.127V209.533L110.669 199.236ZM146.502 199.236L164.337 209.533V230.127L146.502 240.424L128.667 230.127V209.533L146.502 199.236ZM182.336 199.236L200.171 209.533V230.127L182.336 240.424L164.501 230.127V209.533L182.336 199.236ZM254.002 199.236L271.837 209.533V230.127L254.002 240.424L236.167 230.127V209.533L254.002 199.236Z" stroke="#DDDDDD" stroke-width="0.296556"/>
<path d="M325.669 199.236L343.504 209.533V230.127L325.669 240.424L307.834 230.127V209.533L325.669 199.236Z" fill="#DDDDDD" fill-opacity="0.313726" stroke="#DDDDDD" stroke-width="0.296556"/>
<path d="M361.501 199.236L379.336 209.533V230.127L361.501 240.424L343.666 230.127V209.533L361.501 199.236ZM397.334 199.236L415.169 209.533V230.127L397.334 240.424L379.499 230.127V209.533L397.334 199.236ZM433.168 199.236L451.003 209.533V230.127L433.168 240.424L415.333 230.127V209.533L433.168 199.236Z" stroke="#DDDDDD" stroke-width="0.296556"/>
<path d="M469.001 199.236L486.836 209.533V230.127L469.001 240.424L451.166 230.127V209.533L469.001 199.236Z" fill="#DDDDDD" fill-opacity="0.976471" stroke="#DDDDDD" stroke-width="0.296556"/>
<path d="M504.835 199.235L522.67 209.532V230.126L504.835 240.423L487 230.126V209.532L504.835 199.235ZM540.668 199.235L558.503 209.532V230.126L540.668 240.423L522.833 230.126V209.532L540.668 199.235ZM612.335 199.235L630.17 209.532V230.126L612.335 240.423L594.5 230.126V209.532L612.335 199.235Z" stroke="#DDDDDD" stroke-width="0.296556"/>
<path d="M827.335 199.235L845.17 209.532V230.126L827.335 240.423L809.5 230.126V209.532L827.335 199.235ZM-86.4151 230.126L-68.5801 240.423V261.017L-86.4151 271.314L-104.25 261.017V240.423L-86.4151 230.126ZM-50.5818 230.126L-32.7468 240.423V261.017L-50.5818 271.314L-68.4168 261.017V240.423L-50.5818 230.126ZM-14.7485 230.126L3.08654 240.423V261.017L-14.7485 271.314L-32.5835 261.017V240.423L-14.7485 230.126Z" stroke="#DDDDDD" stroke-width="0.296556"/>
<path d="M56.919 230.127L74.754 240.424V261.018L56.919 271.314L39.084 261.018V240.424L56.919 230.127Z" fill="#DDDDDD" fill-opacity="0.6" stroke="#DDDDDD" stroke-width="0.296556"/>
<path d="M92.751 230.127L110.586 240.424V261.018L92.751 271.314L74.916 261.018V240.424L92.751 230.127Z" stroke="#DDDDDD" stroke-width="0.296556"/>
<path d="M200.251 230.127L218.086 240.424V261.018L200.251 271.314L182.416 261.018V240.424L200.251 230.127Z" fill="#DDDDDD" fill-opacity="0.862745" stroke="#DDDDDD" stroke-width="0.296556"/>
<path d="M236.085 230.127L253.92 240.424V261.018L236.085 271.314L218.25 261.018V240.424L236.085 230.127ZM451.085 230.127L468.92 240.424V261.018L451.085 271.314L433.25 261.018V240.424L451.085 230.127ZM486.918 230.127L504.753 240.424V261.018L486.918 271.314L469.083 261.018V240.424L486.918 230.127Z" stroke="#DDDDDD" stroke-width="0.296556"/>
<path d="M522.751 230.127L540.586 240.424V261.018L522.751 271.314L504.916 261.018V240.424L522.751 230.127Z" fill="#DDDDDD" fill-opacity="0.0745098" stroke="#DDDDDD" stroke-width="0.296556"/>
<path d="M558.585 230.127L576.42 240.424V261.018L558.585 271.314L540.75 261.018V240.424L558.585 230.127Z" fill="#DDDDDD" fill-opacity="0.517647" stroke="#DDDDDD" stroke-width="0.296556"/>
<path d="M594.419 230.127L612.254 240.424V261.018L594.419 271.314L576.584 261.018V240.424L594.419 230.127Z" stroke="#DDDDDD" stroke-width="0.296556"/>
<path d="M666.085 230.127L683.92 240.424V261.018L666.085 271.314L648.25 261.018V240.424L666.085 230.127Z" fill="#DDDDDD" fill-opacity="0.176471" stroke="#DDDDDD" stroke-width="0.296556"/>
<path d="M737.752 230.127L755.587 240.424V261.018L737.752 271.314L719.917 261.018V240.424L737.752 230.127ZM773.586 230.127L791.421 240.424V261.018L773.586 271.314L755.751 261.018V240.424L773.586 230.127ZM3.16898 261.017L21.004 271.314V291.909L3.16898 302.205L-14.666 291.909V271.314L3.16898 261.017ZM39.0023 261.017L56.8373 271.314V291.909L39.0023 302.205L21.1673 291.909V271.314L39.0023 261.017ZM110.669 261.017L128.504 271.314V291.909L110.669 302.205L92.834 291.909V271.314L110.669 261.017ZM146.502 261.017L164.337 271.314V291.909L146.502 302.205L128.667 291.909V271.314L146.502 261.017ZM218.169 261.017L236.004 271.314V291.909L218.169 302.205L200.334 291.909V271.314L218.169 261.017ZM254.002 261.017L271.837 271.314V291.909L254.002 302.205L236.167 291.909V271.314L254.002 261.017ZM289.836 261.017L307.671 271.314V291.909L289.836 302.205L272.001 291.909V271.314L289.836 261.017ZM325.669 261.017L343.504 271.314V291.909L325.669 302.205L307.834 291.909V271.314L325.669 261.017ZM361.502 261.017L379.337 271.314V291.909L361.502 302.205L343.667 291.909V271.314L361.502 261.017Z" stroke="#DDDDDD" stroke-width="0.296556"/>
</g>
</g>
<rect x="4.5" y="1.5" width="675" height="239" rx="11.5" stroke="#030712" stroke-opacity="0.1"/>
</g>
<defs>
<filter id="filter0_d_8_4214" x="0" y="0" width="684" height="248" filterUnits="userSpaceOnUse" color-interpolation-filters="sRGB">
<feFlood flood-opacity="0" result="BackgroundImageFix"/>
<feColorMatrix in="SourceAlpha" type="matrix" values="0 0 0 0 0 0 0 0 0 0 0 0 0 0 0 0 0 0 127 0" result="hardAlpha"/>
<feOffset dy="3"/>
<feGaussianBlur stdDeviation="2"/>
<feComposite in2="hardAlpha" operator="out"/>
<feColorMatrix type="matrix" values="0 0 0 0 0 0 0 0 0 0 0 0 0 0 0 0 0 0 0.03 0"/>
<feBlend mode="normal" in2="BackgroundImageFix" result="effect1_dropShadow_8_4214"/>
<feBlend mode="normal" in="SourceGraphic" in2="effect1_dropShadow_8_4214" result="shape"/>
</filter>
<radialGradient id="paint0_radial_8_4214" cx="0" cy="0" r="1" gradientUnits="userSpaceOnUse" gradientTransform="translate(341.498 136.706) scale(614.826 153.706)">
<stop stop-color="white"/>
<stop offset="1" stop-color="white" stop-opacity="0"/>
</radialGradient>
<clipPath id="clip0_8_4214">
<rect x="4" y="1" width="676" height="240" rx="12" fill="white"/>
</clipPath>
</defs>
</svg>
