<svg width="115" height="40" viewBox="0 0 115 40" fill="none" xmlns="http://www.w3.org/2000/svg">
<path d="M12.36 30.27C10.06 30.27 8.12 29.84 6.54 28.98C4.96 28.1 3.76 26.85 2.94 25.23C2.14 23.61 1.74 21.68 1.74 19.44C1.74 17.76 1.97 16.26 2.43 14.94C2.91 13.6 3.59 12.46 4.47 11.52C5.37 10.56 6.46 9.83 7.74 9.33C9.04 8.83 10.51 8.58 12.15 8.58C13.35 8.58 14.53 8.74 15.69 9.06C16.85 9.36 17.91 9.86 18.87 10.56C19.15 10.76 19.33 10.99 19.41 11.25C19.49 11.51 19.49 11.78 19.41 12.06C19.35 12.32 19.22 12.55 19.02 12.75C18.84 12.95 18.61 13.07 18.33 13.11C18.07 13.15 17.78 13.07 17.46 12.87C16.68 12.33 15.86 11.94 15 11.7C14.14 11.44 13.19 11.31 12.15 11.31C10.59 11.31 9.27 11.63 8.19 12.27C7.13 12.91 6.33 13.84 5.79 15.06C5.25 16.26 4.98 17.72 4.98 19.44C4.98 22.1 5.61 24.12 6.87 25.5C8.13 26.88 10 27.57 12.48 27.57C13.38 27.57 14.26 27.49 15.12 27.33C16 27.15 16.84 26.9 17.64 26.58L17.01 28.14V21.15H13.14C12.74 21.15 12.42 21.05 12.18 20.85C11.96 20.63 11.85 20.33 11.85 19.95C11.85 19.57 11.96 19.29 12.18 19.11C12.42 18.91 12.74 18.81 13.14 18.81H18.33C18.75 18.81 19.07 18.92 19.29 19.14C19.51 19.36 19.62 19.68 19.62 20.1V27.66C19.62 28.02 19.55 28.33 19.41 28.59C19.29 28.83 19.08 29.01 18.78 29.13C17.92 29.47 16.91 29.75 15.75 29.97C14.59 30.17 13.46 30.27 12.36 30.27ZM28.7834 30.27C27.2234 30.27 26.0434 29.82 25.2434 28.92C24.4634 28 24.0734 26.68 24.0734 24.96V10.17C24.0734 9.67 24.2034 9.29 24.4634 9.03C24.7234 8.77 25.0934 8.64 25.5734 8.64C26.0534 8.64 26.4234 8.77 26.6834 9.03C26.9634 9.29 27.1034 9.67 27.1034 10.17V24.78C27.1034 25.78 27.3034 26.53 27.7034 27.03C28.1234 27.51 28.7234 27.75 29.5034 27.75C29.6834 27.75 29.8434 27.75 29.9834 27.75C30.1234 27.73 30.2634 27.71 30.4034 27.69C30.6434 27.67 30.8134 27.74 30.9134 27.9C31.0134 28.04 31.0634 28.34 31.0634 28.8C31.0634 29.22 30.9734 29.55 30.7934 29.79C30.6134 30.01 30.3234 30.15 29.9234 30.21C29.7434 30.23 29.5534 30.24 29.3534 30.24C29.1534 30.26 28.9634 30.27 28.7834 30.27ZM38.4633 30.27C37.2833 30.27 36.2933 30.05 35.4933 29.61C34.7133 29.17 34.1233 28.52 33.7233 27.66C33.3433 26.78 33.1533 25.68 33.1533 24.36V16.68C33.1533 16.16 33.2833 15.78 33.5433 15.54C33.8033 15.28 34.1733 15.15 34.6533 15.15C35.1333 15.15 35.5033 15.28 35.7633 15.54C36.0433 15.78 36.1833 16.16 36.1833 16.68V24.39C36.1833 25.57 36.4233 26.44 36.9033 27C37.3833 27.56 38.1433 27.84 39.1833 27.84C40.3233 27.84 41.2433 27.46 41.9433 26.7C42.6633 25.92 43.0233 24.9 43.0233 23.64V16.68C43.0233 16.16 43.1533 15.78 43.4133 15.54C43.6733 15.28 44.0533 15.15 44.5533 15.15C45.0333 15.15 45.4033 15.28 45.6633 15.54C45.9233 15.78 46.0533 16.16 46.0533 16.68V28.68C46.0533 29.7 45.5633 30.21 44.5833 30.21C44.1233 30.21 43.7633 30.08 43.5033 29.82C43.2433 29.54 43.1133 29.16 43.1133 28.68V26.13L43.5033 26.79C43.1033 27.91 42.4633 28.77 41.5833 29.37C40.7033 29.97 39.6633 30.27 38.4633 30.27ZM56.7734 30.27C55.2734 30.27 53.9734 29.96 52.8734 29.34C51.7934 28.7 50.9534 27.81 50.3534 26.67C49.7534 25.51 49.4534 24.15 49.4534 22.59C49.4534 21.43 49.6234 20.39 49.9634 19.47C50.3034 18.53 50.7834 17.74 51.4034 17.1C52.0434 16.46 52.8134 15.97 53.7134 15.63C54.6334 15.27 55.6534 15.09 56.7734 15.09C57.4734 15.09 58.2034 15.2 58.9634 15.42C59.7434 15.62 60.4634 15.96 61.1234 16.44C61.3834 16.6 61.5434 16.8 61.6034 17.04C61.6834 17.26 61.6934 17.49 61.6334 17.73C61.5934 17.97 61.4834 18.18 61.3034 18.36C61.1434 18.52 60.9434 18.62 60.7034 18.66C60.4634 18.68 60.2034 18.61 59.9234 18.45C59.4434 18.11 58.9534 17.87 58.4534 17.73C57.9534 17.57 57.4734 17.49 57.0134 17.49C56.2934 17.49 55.6534 17.61 55.0934 17.85C54.5534 18.07 54.0934 18.4 53.7134 18.84C53.3334 19.26 53.0434 19.79 52.8434 20.43C52.6634 21.07 52.5734 21.8 52.5734 22.62C52.5734 24.26 52.9534 25.55 53.7134 26.49C54.4934 27.41 55.5934 27.87 57.0134 27.87C57.4734 27.87 57.9534 27.8 58.4534 27.66C58.9534 27.52 59.4434 27.28 59.9234 26.94C60.2034 26.78 60.4634 26.72 60.7034 26.76C60.9434 26.8 61.1334 26.91 61.2734 27.09C61.4334 27.25 61.5334 27.45 61.5734 27.69C61.6334 27.91 61.6234 28.14 61.5434 28.38C61.4634 28.62 61.2934 28.82 61.0334 28.98C60.3934 29.44 59.6934 29.77 58.9334 29.97C58.1934 30.17 57.4734 30.27 56.7734 30.27Z" fill="#111827"/>
<path d="M79.8482 11.9522C80.3111 12.6174 80.7741 13.2825 81.2371 13.9476C81.2317 14.0268 81.2912 14.0852 81.3193 14.1537C81.3462 14.2193 81.357 14.2923 81.2946 14.3436C81.2158 14.4082 81.1583 14.3407 81.0993 14.3018C81.0706 14.2829 81.047 14.2515 80.9909 14.2721C80.9831 14.3615 81.0377 14.4346 81.0897 14.5059C81.7047 15.3501 82.2929 16.2095 82.8537 17.0826C83.7036 18.4056 84.4169 19.7843 84.8564 21.2638C85.0897 22.0492 85.1937 22.8534 85.27 23.662C85.3069 24.0534 85.3014 24.4438 85.3126 24.8349C85.3179 25.0189 85.2636 25.1963 85.2673 25.3786C85.2298 26.2862 84.9795 27.1441 84.5089 27.9505C84.4532 28.046 84.4025 28.1438 84.3464 28.239C84.2492 28.3645 84.2102 28.534 84.0167 28.5877C83.9185 28.5493 83.8559 28.4868 83.846 28.3884C83.9272 28.1324 84.1124 27.9216 84.2335 27.6816C84.645 26.8656 84.8804 26.0153 84.9657 25.1246C85.1022 23.698 84.9173 22.3093 84.3993 20.9554C84.1127 20.2064 83.7556 19.4838 83.3445 18.7826C82.8205 17.8952 82.2396 17.0381 81.6085 16.2078C81.0509 15.4396 80.4196 14.7183 79.8722 14.0577C80.3292 14.8101 80.8404 15.6416 81.3749 16.4616C81.9149 17.3595 82.4402 18.2634 82.8752 19.2067C83.0566 19.6001 83.2062 20.0027 83.3363 20.4114C83.3523 20.4615 83.3783 20.5152 83.3284 20.5641C83.2091 20.5922 83.1719 20.5101 83.1233 20.443C83.0958 20.4049 83.0805 20.3431 83.0157 20.3556C82.9593 20.3666 82.9503 20.4248 82.9357 20.4699C82.9039 20.5684 82.893 20.6682 82.9167 20.7695C82.9586 20.9486 82.9368 21.1321 82.9662 21.3127C82.9842 21.4231 82.9451 21.5172 82.7842 21.5092C82.6746 21.4652 82.68 21.3673 82.6602 21.2861C82.4902 20.591 82.2618 19.9117 81.9771 19.2473C81.7301 18.69 81.4915 18.1299 81.2216 17.5801C80.9574 17.0418 80.6158 16.5399 80.3349 16.0101C80.2968 15.9382 80.2705 15.8611 80.2446 15.8269C80.8008 16.9082 81.2727 18.0584 81.6713 19.2334C82.1209 20.5391 82.4309 21.8673 82.4913 23.2361C82.528 24.2739 82.4435 25.3001 82.1213 26.3036C82.0922 26.3943 82.0682 26.4869 82.0113 26.5683C81.8742 26.6593 81.8168 26.583 81.8013 26.4756C81.788 26.383 81.8008 26.2871 81.7928 26.1843C81.5198 26.2287 81.3993 26.4531 81.2006 26.5819C81.1491 26.6153 81.1274 26.6877 81.0573 26.7057C80.855 26.7577 80.7286 26.8945 80.6004 27.0271C80.5223 27.1079 80.438 27.1671 80.3137 27.1707C80.2333 27.173 80.1699 27.2066 80.1166 27.2593C80.048 27.327 79.9584 27.3673 79.861 27.3839C79.6784 27.4151 79.5291 27.5269 79.363 27.5674C79.005 27.6549 78.7113 27.8693 78.3493 27.9376C78.2951 27.9478 78.2503 27.9697 78.2114 28.0035C78.179 28.0318 78.1349 28.0808 78.0999 28.0619C77.9029 27.9554 77.7817 28.0982 77.6282 28.1558C77.3112 28.2748 76.9854 28.1883 76.6645 28.1553C76.2531 28.1131 75.8476 28.0211 75.4283 28.052C75.3129 28.0605 75.2023 28.0361 75.0989 27.9889C74.9992 27.8483 74.8692 27.7424 74.6879 27.6874C74.585 27.6561 74.5097 27.5865 74.443 27.5117C74.3923 27.4548 74.3619 27.3886 74.4237 27.3281C74.5583 27.1963 74.4661 27.1527 74.3303 27.1385C74.1439 27.119 73.9849 27.0407 73.8227 26.9691C73.737 26.9312 73.6852 26.9192 73.622 27.0105C73.5343 27.1371 73.3628 27.157 73.2545 27.0682C73.1213 26.9592 73.1943 26.862 73.297 26.7689C73.2314 26.7729 73.2257 26.8194 73.2019 26.851C73.1323 26.9432 73.0317 26.9294 72.9374 26.9014C72.8334 26.8705 72.7791 26.8004 72.7927 26.6981C72.8007 26.6375 72.8153 26.5775 72.8456 26.5229C72.9154 26.3975 72.85 26.3314 72.7218 26.2945C72.6354 26.2697 72.5496 26.2502 72.479 26.1916C72.3606 26.0931 72.2334 26.0956 72.1132 26.191C71.9968 26.2832 71.8759 26.2999 71.783 26.18C71.6876 26.0568 71.7842 25.9828 71.9033 25.9273C71.9706 25.8959 72.0518 25.8636 72.0311 25.7809C72.0082 25.6898 71.9255 25.6321 71.833 25.5986C71.7419 25.5657 71.7114 25.6238 71.7039 25.6926C71.6865 25.8535 71.5967 25.8545 71.4783 25.7701C71.2949 25.6393 71.1384 25.4824 70.974 25.3341C70.8549 25.2267 70.8356 25.0798 70.8862 24.9354C70.9869 24.6476 70.885 24.4089 70.6732 24.1938C70.6336 24.1536 70.6186 24.0969 70.5294 24.0439C70.5277 24.2993 70.4454 24.5284 70.49 24.7686C70.5239 24.9511 70.5255 25.1315 70.4336 25.3036C70.4072 25.3532 70.3739 25.4106 70.3094 25.4115C70.216 25.4128 70.2244 25.3334 70.2071 25.2772C70.1846 24.7255 70.1972 24.1749 70.2453 23.6252C70.3547 22.8179 70.5623 22.0293 70.828 21.2522C70.8609 21.156 70.8986 21.0611 70.9298 20.9645C71.0279 20.5665 71.2582 20.2178 71.453 19.8559C71.4729 19.819 71.5005 19.7875 71.5456 19.772C71.6602 19.7943 71.642 19.8807 71.6469 19.9498C71.6556 20.0705 71.6484 20.192 71.6657 20.3046C71.7748 19.9511 71.9423 19.6078 72.0919 19.2595C72.4022 18.5367 72.731 17.8202 73.1078 17.1221C73.1341 17.0734 73.1532 17.0224 73.1695 16.9704C73.4393 16.4592 73.722 15.9533 73.9674 15.432C74.4181 14.4748 74.8121 13.4999 75.1214 12.4986C75.1875 12.2845 75.2743 12.0755 75.3216 11.8566C75.6112 10.9522 75.8161 10.0314 76.0001 9.10636C76.1181 8.49237 76.2115 7.87577 76.2603 7.25421C76.2718 7.10784 76.3264 6.96514 76.3069 6.81649C76.3055 6.69634 76.2552 6.57695 76.2977 6.4555C76.3246 6.37873 76.338 6.28198 76.4499 6.27657C76.5603 6.27124 76.5643 6.37036 76.5882 6.43664C76.8405 7.13666 77.1331 7.82351 77.4393 8.50585C77.9229 9.5837 78.4836 10.6285 79.1451 11.6294C79.3117 11.8814 79.5307 12.0919 79.8121 12.2675C79.8738 12.1614 79.7127 12.0397 79.8482 11.9522Z" fill="#C80C13"/>
<path d="M75.369 33.1965C73.4877 33.0056 71.7935 32.4126 70.3324 31.3273C69.9727 31.0601 69.6259 30.7783 69.3408 30.4433C69.4632 30.4008 69.5181 30.4915 69.5825 30.548C69.7765 30.718 69.9662 30.8908 70.2056 31.0132C70.5646 31.1966 70.7252 31.1338 70.8053 30.773C70.8198 30.7075 70.8192 30.6346 70.9184 30.6185C71.0486 30.6257 71.1387 30.7034 71.2358 30.7656C72.4422 31.5382 73.7906 31.9992 75.259 32.1573C76.9624 32.3406 78.5873 32.0688 80.1422 31.4218C80.8523 31.1262 81.5352 30.799 82.1511 30.365C82.2343 30.3063 82.3058 30.2359 82.3941 30.1836C82.4136 30.1729 82.4349 30.1654 82.4571 30.1607C82.5502 30.1463 82.6178 30.177 82.6622 30.2518C82.6763 30.2755 82.6518 30.251 82.6732 30.269C82.9039 30.4631 82.9893 30.6833 82.784 30.9734C82.9528 30.9505 83.0299 30.8758 83.1195 30.822C83.1896 30.7799 83.2504 30.6988 83.3537 30.7681C82.6121 31.49 81.72 32.0249 80.7305 32.438C79.2883 33.0402 77.762 33.2621 76.1803 33.2317C76.0671 33.2295 75.9538 33.2312 75.8405 33.231C75.6865 33.1857 75.5228 33.245 75.369 33.1965Z" fill="#890613"/>
<path d="M67.5504 21.121C67.8668 20.1035 68.3354 19.1417 68.8899 18.2108C69.8417 16.6129 70.9614 15.1053 72.0301 13.5701C72.3784 13.0697 72.7053 12.5574 73.0431 12.0511C73.0733 12.0057 73.1109 11.9642 73.1451 11.9209C73.2863 11.9798 73.2342 12.0731 73.1826 12.1494C73.1196 12.2423 73.0696 12.3382 73.0352 12.4409C73.0208 12.4841 72.9982 12.5379 73.054 12.5689C73.0999 12.5945 73.1338 12.5485 73.1735 12.5341C73.2565 12.504 73.3209 12.3827 73.4345 12.4878C73.3479 12.7649 73.1461 12.9891 72.9932 13.2348C72.2256 14.4687 71.3453 15.6435 70.5729 16.875C70.2141 17.4471 69.9032 18.04 69.6049 18.6384C69.5405 18.7677 69.4775 18.8985 69.3762 19.0105C69.2356 19.121 69.1585 19.2686 69.0904 19.4176C68.5935 20.5035 68.1948 21.6156 67.9665 22.7729C67.953 22.8411 67.972 22.9281 67.8613 22.9529C67.8007 22.928 67.7466 22.8959 67.675 22.8869C67.4165 22.8544 67.3264 22.7492 67.2945 22.5143C67.2432 22.1359 67.3765 21.7864 67.4866 21.4329C67.5187 21.3299 67.5662 21.2311 67.5504 21.121Z" fill="#C3040D"/>
<path d="M85.2042 25.3742C85.2703 24.9793 85.2625 24.5811 85.2456 24.1849C85.2161 23.495 85.1313 22.8089 84.9973 22.1282C84.6953 20.594 84.0375 19.175 83.2282 17.8054C82.5873 16.7209 81.8441 15.6899 81.1265 14.6457C81.0476 14.5308 80.953 14.4268 80.9118 14.2943C80.8979 14.2499 80.8574 14.2021 80.9141 14.1661C80.965 14.1338 81.0167 14.1687 81.0611 14.192C81.0925 14.2086 81.1204 14.2333 81.1433 14.2591C81.175 14.2947 81.1977 14.3575 81.2604 14.3233C81.3081 14.2972 81.2866 14.2373 81.2817 14.1907C81.273 14.1087 81.1719 14.04 81.2371 13.9473C81.8071 14.7336 82.3843 15.5156 82.9445 16.3079C83.8876 17.6415 84.6956 19.0295 85.2584 20.5259C85.8176 22.0128 86.0547 23.54 85.9684 25.1064C85.9655 25.1592 85.9495 25.2115 85.9396 25.264C85.9244 25.2565 85.9213 25.2448 85.9171 25.2324C85.9122 25.2179 85.8987 25.2164 85.9002 25.2221C85.9186 25.2944 85.903 25.3677 85.909 25.4402C85.9153 25.5184 85.8838 25.5708 85.7918 25.5854C85.6877 25.6019 85.6345 25.5499 85.6116 25.4705C85.5796 25.3598 85.556 25.2471 85.5514 25.1323C85.5453 24.9829 85.5083 24.8397 85.4312 24.6655C85.3898 24.8585 85.4158 25.0267 85.3606 25.1835C85.3329 25.2623 85.3362 25.3626 85.2042 25.3742Z" fill="#C0040E"/>
<path d="M73.4111 12.4867C73.2823 12.4744 73.2241 12.5725 73.1366 12.6251C73.0162 12.6975 72.9497 12.6682 72.9577 12.5386C72.9663 12.3971 73.0132 12.2621 73.1172 12.1539C73.1926 12.0755 73.2097 12.005 73.1451 11.9199C73.6486 11.0969 74.1479 10.2724 74.602 9.42611C75.333 8.06413 75.8966 6.64833 76.3666 5.20083C76.3876 5.13616 76.4082 5.0714 76.4513 5C77.1302 7.24938 78.1867 9.35447 79.4728 11.3727C79.5692 11.5803 79.6976 11.7716 79.847 11.952L79.848 11.9515C79.8118 12.0443 79.8763 12.1211 79.9002 12.2041C79.9152 12.2561 79.948 12.3143 79.8808 12.3491C79.8132 12.384 79.7732 12.325 79.7265 12.2929C79.3535 12.0369 79.1129 11.6914 78.8839 11.3332C78.0552 10.0373 77.4252 8.66254 76.838 7.27082C76.716 6.98166 76.6183 6.68437 76.5108 6.3904C76.4976 6.35417 76.5082 6.30022 76.4418 6.30726C76.403 6.31137 76.3877 6.34761 76.3745 6.38129C76.323 6.5125 76.334 6.64337 76.3701 6.77487C76.2118 7.42911 75.9488 8.0541 75.6972 8.68223C75.4561 9.23484 75.2143 9.7873 74.9524 10.3326C74.9224 10.3949 74.8848 10.4531 74.8392 10.5072C74.8263 10.5234 74.811 10.5379 74.7943 10.5511C74.4976 10.8107 74.3275 11.1455 74.1221 11.4584C73.9347 11.7438 73.7744 12.0429 73.5913 12.3305C73.551 12.3938 73.5303 12.4896 73.4111 12.4867Z" fill="#DA0F15"/>
<path d="M67.5508 21.1211C67.6044 21.2327 67.5784 21.3302 67.5284 21.4449C67.3646 21.821 67.2829 22.2154 67.3705 22.6166C67.4006 22.754 67.4884 22.8964 67.7215 22.8111C67.8436 22.7665 67.8314 22.8824 67.8575 22.9437C67.9347 23.0144 67.916 23.0998 67.9045 23.1841C67.8705 23.3898 67.8322 23.5944 67.8271 23.8039C67.8076 24.6004 67.8471 25.3929 68.0148 26.1775C68.1467 26.7947 68.3243 27.3995 68.6348 27.9678C68.671 28.0341 68.7128 28.0997 68.7047 28.1778C68.5571 28.3033 68.3848 28.4001 68.2892 28.5802C68.2271 28.6973 68.0937 28.6412 68.0131 28.5505C67.9531 28.483 67.9403 28.3874 67.8556 28.3333C67.5149 27.6881 67.3264 27.003 67.1884 26.3053C66.8566 24.6277 66.9718 22.9693 67.4651 21.328C67.4864 21.2573 67.5219 21.19 67.5508 21.1211Z" fill="#B4020D"/>
<path d="M67.8555 28.3321C67.966 28.3308 67.9761 28.4109 68.0138 28.4761C68.047 28.5336 68.0965 28.6025 68.1783 28.5986C68.2617 28.5945 68.2944 28.5287 68.3132 28.4576C68.3576 28.2893 68.4947 28.223 68.6759 28.2109C68.8052 28.2633 68.8441 28.3815 68.904 28.4777C69.2251 28.9933 69.6456 29.4424 70.0725 29.8878C70.1765 29.9964 70.3104 30.0742 70.4297 30.1671C70.547 30.2701 70.6572 30.3794 70.792 30.4666C70.8554 30.5075 70.9346 30.5496 70.908 30.6419C70.8129 30.7468 70.8805 30.8849 70.8039 31.0027C70.7068 31.152 70.5922 31.2014 70.4151 31.151C70.1353 31.0715 69.9163 30.9122 69.709 30.7333C69.5917 30.6321 69.5015 30.5017 69.3412 30.4432C68.7054 29.8178 68.1991 29.1203 67.8555 28.3321Z" fill="#9A0410"/>
<path d="M85.2047 25.374C85.3321 25.2349 85.327 25.0646 85.3385 24.9007C85.3459 24.7944 85.3403 24.6886 85.42 24.5801C85.5777 24.715 85.5963 24.8923 85.6069 25.0573C85.6156 25.1917 85.6627 25.3198 85.6615 25.454C85.6611 25.5014 85.6741 25.5559 85.746 25.5489C85.8117 25.5425 85.8858 25.5318 85.8858 25.4475C85.8857 25.3428 85.8858 25.2381 85.8858 25.1173C85.9542 25.1692 85.9232 25.2216 85.9401 25.2637C85.8894 26.4233 85.5887 27.5283 85.0271 28.5763C84.9308 28.6477 84.9163 28.8103 84.7813 28.8169C84.627 28.8244 84.639 28.6509 84.5526 28.5735C84.4473 28.4792 84.3765 28.3602 84.293 28.2505C84.4278 27.9149 84.6429 27.6118 84.7791 27.2752C84.9713 26.8001 85.1151 26.3184 85.1623 25.8137C85.176 25.6672 85.2162 25.5226 85.2047 25.374Z" fill="#B1030E"/>
<path d="M84.2926 28.251C84.4963 28.3445 84.5845 28.5274 84.6865 28.6888C84.7577 28.8016 84.7753 28.8407 84.8611 28.7086C84.898 28.6518 84.953 28.6022 85.0267 28.5767C84.6219 29.3997 84.0652 30.1309 83.354 30.7687C83.1723 30.7824 83.0968 30.9456 82.9435 30.9999C82.8752 31.024 82.8018 31.0819 82.7358 31.0254C82.6757 30.9739 82.7725 30.9365 82.7846 30.8877C82.8039 30.8093 82.8302 30.7324 82.8533 30.6548C82.8609 30.6292 82.8823 30.5867 82.8728 30.5801C82.7148 30.4713 82.6758 30.2637 82.4701 30.1958C82.4549 30.1469 82.495 30.1215 82.527 30.0946C83.0537 29.6544 83.5478 29.1892 83.9376 28.6435C83.958 28.615 83.9843 28.5904 84.0201 28.5759C84.1109 28.4676 84.2018 28.3593 84.2926 28.251Z" fill="#9A0410"/>
<path d="M79.8469 11.9513C79.665 11.7875 79.5219 11.6038 79.4727 11.3721C79.6133 11.557 79.7417 11.7482 79.8469 11.9513Z" fill="#C80C13"/>
<path d="M75.3691 33.1964C75.5275 33.1944 75.686 33.191 75.8406 33.2309C75.6829 33.225 75.5199 33.2766 75.3691 33.1964Z" fill="#F3F3F1"/>
<path d="M84.0203 28.5765C83.8563 28.9117 83.5819 29.1805 83.32 29.4506C83.061 29.7178 82.7554 29.9493 82.4703 30.1964C82.4558 30.1966 82.4413 30.1973 82.4269 30.1987C81.7308 30.6185 81.0394 31.0476 80.2596 31.3386C79.7301 31.5363 79.1982 31.736 78.6179 31.7928C78.4966 31.7945 78.377 31.7948 78.2563 31.8188C77.7822 31.9133 77.2984 31.9603 76.8153 31.9482C76.2333 31.9337 75.6501 31.8946 75.0792 31.7795C74.2958 31.6217 73.5043 31.4895 72.768 31.1839C72.5319 31.086 72.3058 30.9815 72.1329 30.8035C72.1317 30.7972 72.1274 30.7859 72.1299 30.7846C72.4446 30.6166 72.35 30.3823 72.2449 30.1592C72.0668 29.7809 71.8374 29.4272 71.5505 29.1045C71.5122 29.0665 71.4716 29.0293 71.4916 28.9712C71.6587 28.8863 71.7684 28.9078 71.8601 29.0858C71.9933 29.3442 72.1687 29.5791 72.3251 29.8247C72.4999 30.0991 72.8641 30.2683 73.2176 30.2223C73.3818 30.2009 73.4101 30.1534 73.3207 30.0314C73.2805 29.9765 73.2391 29.9233 73.3027 29.8703C73.4337 29.761 73.3564 29.6777 73.2666 29.598C73.1289 29.4759 73.0613 29.3326 73.085 29.1595C73.0978 29.0661 73.0651 28.995 72.9952 28.9216C72.8711 28.7913 72.9215 28.6722 73.1085 28.6182C73.3947 28.5355 73.3947 28.5355 73.3749 28.2906C73.3579 28.0799 73.5087 27.9805 73.8121 28.0404C73.9609 28.0698 74.091 28.1003 74.2472 28.0617C74.3722 28.0309 74.4169 28.109 74.3794 28.224C74.2959 28.4801 74.3891 28.556 74.7033 28.4956C74.4882 28.2947 74.5097 28.2041 74.8211 28.1213C74.9363 28.0906 74.9586 27.9509 75.0958 27.9686C75.542 27.9958 75.9904 28.0074 76.4335 28.0566C76.663 28.0821 76.8917 28.1218 77.1226 28.1487C77.3661 28.177 77.5837 28.1679 77.7685 28.0059C77.7997 27.9786 77.8678 27.9393 77.8819 27.9488C78.0933 28.0918 78.2383 27.8225 78.4351 27.8825C78.5076 27.9046 78.5701 27.8662 78.6126 27.8157C78.721 27.6869 78.8786 27.6329 79.0436 27.6181C79.2037 27.6037 79.3319 27.5436 79.4538 27.4642C79.5478 27.403 79.6477 27.3732 79.7628 27.3524C79.8957 27.3285 80.0565 27.3186 80.1127 27.1671C80.1264 27.1302 80.1651 27.1126 80.2028 27.1202C80.4116 27.162 80.5083 27.0343 80.6293 26.9205C80.7435 26.8131 80.8322 26.6598 81.0413 26.665C81.0933 26.6663 81.1217 26.6198 81.1291 26.5827C81.1512 26.4724 81.2353 26.4305 81.3429 26.4018C81.4011 26.3863 81.4516 26.355 81.4679 26.2949C81.496 26.192 81.5397 26.1253 81.6878 26.1686C81.7848 26.197 81.7644 26.0685 81.8727 26.0273C81.8129 26.1762 81.9062 26.3027 81.8542 26.4359C81.8182 26.5281 81.8595 26.578 81.9662 26.5887C82.0199 26.7025 81.9428 26.7971 81.904 26.8948C81.6757 27.4707 81.3183 27.983 80.9141 28.4718C80.5157 28.9029 80.0462 29.2598 79.5007 29.5361C79.15 29.7137 78.7682 29.826 78.393 29.9521C78.3576 29.964 78.3202 29.9721 78.2864 29.9869C78.1939 30.0274 78.0433 30.0442 78.0417 30.1378C78.0402 30.2249 78.1917 30.2268 78.2791 30.2578C78.4686 30.3251 78.5722 30.4867 78.7416 30.5792C78.8783 30.6539 78.9942 30.6646 79.1459 30.6263C79.7891 30.4635 80.2615 30.073 80.7463 29.6973C80.8539 29.6139 80.9328 29.5004 81.0724 29.4506C81.1631 29.4351 81.2811 29.4422 81.2238 29.3045C81.2276 29.2218 81.2995 29.1729 81.3442 29.1102C81.3811 29.07 81.4248 29.0408 81.4866 29.0414C81.6893 29.0307 81.8131 29.1112 81.8508 29.2912C81.8558 29.3807 81.8105 29.4427 81.7201 29.4797C81.5469 29.4401 81.5629 29.5624 81.5379 29.6495C81.5099 29.7374 81.4324 29.7873 81.3563 29.8384C80.9724 30.1425 80.5849 30.4424 80.1922 30.6813C80.5318 30.5888 80.919 30.5037 81.2674 30.3252C81.8357 30.0775 82.3524 29.7628 82.836 29.3995C83.1469 29.166 83.3861 28.8809 83.636 28.6013C83.7032 28.526 83.7405 28.4152 83.8775 28.406C83.9251 28.4628 83.9727 28.5196 84.0203 28.5765Z" fill="#C92026"/>
<path d="M75.0961 27.9668C74.9978 28.0779 74.9179 28.2047 74.7162 28.1874C74.6595 28.1826 74.5979 28.2489 74.6044 28.3198C74.6104 28.3852 74.6664 28.4059 74.7319 28.4127C74.7859 28.4184 74.8495 28.4292 74.8449 28.4878C74.8397 28.5535 74.7637 28.5692 74.7077 28.5694C74.5506 28.5699 74.3682 28.6305 74.2841 28.4326C74.2519 28.3567 74.2301 28.2939 74.2987 28.2298C74.3342 28.1967 74.3916 28.1651 74.342 28.114C74.302 28.0729 74.241 28.0827 74.1961 28.1103C74.0756 28.1845 73.9859 28.1778 73.8526 28.0996C73.7595 28.045 73.5831 28.0566 73.4663 28.1191C73.3552 28.1786 73.443 28.277 73.455 28.3589C73.4806 28.5344 73.3876 28.6443 73.1916 28.6536C73.0911 28.6584 73.0074 28.6806 72.9708 28.765C72.9341 28.8497 73.0163 28.8809 73.0809 28.9167C73.1627 28.962 73.1715 29.0186 73.1498 29.1052C73.1065 29.2779 73.1544 29.4291 73.3069 29.5636C73.4045 29.6498 73.6342 29.7659 73.3292 29.8978C73.2567 29.9292 73.3303 29.9753 73.3651 30.0065C73.4074 30.0444 73.5222 30.0259 73.4908 30.1185C73.466 30.1914 73.4003 30.2445 73.3186 30.269C72.9773 30.3712 72.4346 30.1426 72.2707 29.8545C72.1189 29.5879 71.9191 29.3445 71.7872 29.0661C71.7475 28.9824 71.6534 28.8877 71.5144 28.9786C71.3481 28.9418 71.2821 28.8089 71.2053 28.6996C71.0435 28.4695 70.8442 28.2661 70.6602 28.052C70.5519 27.9259 70.4104 27.8365 70.2234 27.8197C69.9205 27.7925 69.7601 27.93 69.7903 28.2001C69.813 28.4041 69.8924 28.5936 69.993 28.7768C70.0393 28.861 70.0979 28.9427 70.0853 29.0437C69.9986 29.2355 69.8831 29.1416 69.7996 29.0531C69.6292 28.8723 69.4776 28.6778 69.3289 28.482C68.6251 27.5553 68.2014 26.5275 67.9623 25.4373C67.7991 24.6932 67.758 23.941 67.8571 23.1855C67.8573 23.1043 67.8575 23.0232 67.8578 22.942C67.9337 22.6175 67.9974 22.2902 68.0879 21.9689C68.3535 21.0261 68.6789 20.1006 69.132 19.2137C69.1831 19.1138 69.2486 19.0257 69.3583 18.9694C69.4313 19.0675 69.3582 19.1522 69.32 19.2352C69.0356 19.8534 68.7724 20.4785 68.627 20.8767C68.954 19.8625 69.6372 18.721 70.3531 17.593C70.476 17.3995 70.5752 17.1918 70.7479 17.0265C70.7951 16.9813 70.8425 16.8831 70.9368 16.9853C70.9365 17.1688 70.8188 17.3166 70.7416 17.4752C70.4071 18.163 70.0638 18.8474 69.8056 19.5624C69.3632 20.6674 69.1138 21.8085 68.9965 22.9743C68.9589 23.7194 68.8778 24.4677 69.1999 25.1861C69.2793 25.3633 69.3851 25.5268 69.569 25.6358C69.8202 25.7848 70.0027 25.7354 70.1283 25.4932C70.1608 25.4305 70.1595 25.3413 70.2675 25.3273C70.2848 25.4073 70.3197 25.4022 70.3571 25.339C70.464 25.158 70.4684 24.9679 70.4337 24.7689C70.3846 24.4876 70.4688 24.2144 70.5157 23.9333C70.7303 24.1473 70.9253 24.37 71.0122 24.6326C71.0411 24.7201 70.9728 24.8749 70.9313 24.9924C70.8817 25.1327 70.9369 25.2577 71.033 25.3236C71.243 25.4676 71.3868 25.6731 71.6116 25.799C71.6274 25.7879 71.6482 25.7805 71.6488 25.7719C71.6565 25.6743 71.5745 25.5252 71.7575 25.5146C71.931 25.5045 72.0528 25.6414 72.1129 25.764C72.1725 25.8855 72.0363 25.9524 71.9128 25.979C71.8318 25.9965 71.7933 26.0378 71.7896 26.1027C71.7866 26.155 71.8369 26.1864 71.8844 26.2071C71.9545 26.2376 72.0044 26.2154 72.0614 26.1638C72.2195 26.0207 72.3803 26.0158 72.5238 26.1563C72.585 26.2162 72.6506 26.2148 72.7222 26.2306C72.9269 26.2759 72.9659 26.3654 72.9017 26.5369C72.8658 26.633 72.7517 26.755 72.9131 26.8416C72.9993 26.8879 73.1321 26.925 73.1766 26.8002C73.2726 26.5307 73.341 26.7448 73.4465 26.7996C73.3601 26.8533 73.2103 26.8049 73.2306 26.9456C73.2445 27.0423 73.3213 27.063 73.406 27.0725C73.5253 27.086 73.5942 27.0423 73.5956 26.9272C73.5967 26.8446 73.6471 26.8108 73.7277 26.8582C73.9444 26.9855 74.1832 27.0546 74.4342 27.1075C74.6504 27.1531 74.6597 27.1995 74.4922 27.3215C74.4072 27.3834 74.4199 27.4255 74.4854 27.4842C74.5708 27.5609 74.6578 27.6268 74.777 27.6682C74.9279 27.7206 75.0991 27.7756 75.0961 27.9668Z" fill="#D71720"/>
<path d="M83.878 28.4048C83.3606 29.0603 82.7403 29.6212 81.9652 30.0361C81.7464 30.1533 81.515 30.2518 81.2893 30.3589C81.1941 30.3584 81.2267 30.2932 81.2461 30.2662C81.3511 30.12 81.4141 29.9706 81.3371 29.7978C81.3949 29.7404 81.4526 29.6831 81.5104 29.6257C81.5702 29.5678 81.5774 29.4636 81.6966 29.4578C81.7449 29.4078 81.7932 29.3579 81.8416 29.308C81.8531 29.2062 81.937 29.1407 82.002 29.0688C83.111 27.8416 83.6687 26.4185 83.8545 24.8724C83.9935 23.7156 83.8468 22.5725 83.5558 21.4423C83.5321 21.3506 83.4981 21.2598 83.5187 21.1634C83.625 20.9152 83.6359 20.6679 83.5347 20.4135C83.4056 20.0893 83.3062 19.7556 83.1539 19.4387C83.0302 19.1814 83.1993 18.9682 83.2773 18.7415C83.2882 18.7097 83.3352 18.7021 83.3718 18.7304C84.2454 20.1875 84.8852 21.7103 85.0325 23.374C85.1553 24.7604 85.0239 26.1153 84.4321 27.4171C84.2765 27.7594 84.0768 28.0818 83.878 28.4048Z" fill="#EB8482"/>
<path d="M83.5612 21.1623C83.6851 21.7299 83.8241 22.2943 83.8951 22.871C84.079 24.3643 83.8988 25.8132 83.284 27.217C82.9671 27.9407 82.5099 28.5879 81.9701 29.1927C81.9329 29.2345 81.8847 29.2685 81.8416 29.3061C81.6774 29.1459 81.6263 29.1118 81.4701 29.0581C81.4462 28.9509 81.5282 28.8798 81.5878 28.8059C82.3959 27.8042 82.772 26.6638 82.9592 25.4602C83.052 24.8637 83.0491 24.2649 83.0483 23.6654C83.0482 23.5978 83.0451 23.5308 83.0196 23.4661C83.0006 23.3881 83.0036 23.3089 83.0021 23.23C83.0041 23.1401 83.004 23.0505 82.9707 22.9638C82.9172 22.5581 82.8558 22.1536 82.7625 21.7533C82.7416 21.6633 82.7056 21.5692 82.784 21.4841C82.933 21.4663 82.9169 21.3859 82.9109 21.2781C82.8948 20.9937 82.7899 20.7107 82.8819 20.4232C82.9048 20.3518 82.9168 20.2571 83.0048 20.2456C83.1169 20.231 83.1381 20.33 83.1699 20.4061C83.1988 20.4751 83.2305 20.5481 83.3362 20.5495C83.5514 20.713 83.5293 20.9455 83.5612 21.1623Z" fill="#CB131B"/>
<path d="M69.7659 19.5323C69.9704 18.9121 70.2657 18.3232 70.5506 17.7308C70.6694 17.4839 70.7955 17.2398 70.9183 16.9944C70.9444 16.7895 71.1004 16.6363 71.1903 16.4567C71.2151 16.4071 71.2645 16.3946 71.317 16.4361C71.4523 16.5685 71.4826 16.7372 71.5149 16.903C71.6791 17.7455 71.6811 18.5949 71.6418 19.4456C71.6402 19.4797 71.6357 19.5124 71.6523 19.5442C71.6738 19.6437 71.633 19.722 71.5481 19.7853C71.3628 20.1753 71.1129 20.5413 70.9956 20.9568C70.9639 20.9661 70.9264 20.9629 70.9142 20.9389C70.8401 20.7921 70.6941 20.7227 70.5409 20.6658C70.2688 20.5646 70.1506 20.3472 70.0223 20.137C69.9324 19.9896 69.8909 19.8212 69.7685 19.6867C69.7304 19.6449 69.7373 19.5844 69.7659 19.5323Z" fill="#FBE9E8"/>
<path d="M69.7662 19.5312C69.8931 19.7601 70.0278 19.9858 70.1449 20.2186C70.2749 20.4768 70.5108 20.6129 70.7934 20.7054C70.923 20.7478 70.872 20.9082 70.9958 20.9557C70.7352 21.6926 70.5211 22.439 70.3757 23.2017C70.3511 23.3312 70.3247 23.4593 70.3148 23.5902C70.1794 23.594 70.1686 23.4944 70.1412 23.4162C70.1141 23.3387 70.0762 23.3074 69.9786 23.3266C69.7533 23.3711 69.5456 23.3256 69.3634 23.2C69.2803 23.1428 69.1943 23.1167 69.0907 23.1415C68.8994 23.1873 68.9109 23.0907 68.9472 22.9777C69.0427 21.7955 69.2891 20.6417 69.7662 19.5312Z" fill="#FAD8D7"/>
<path d="M83.0201 22.9805C83.0931 23.0558 83.0546 23.145 83.0593 23.2288C83.0395 23.2569 83.0223 23.2865 83.0214 23.3201C83.0184 23.4248 83.0097 23.5298 83.0299 23.634C83.0357 23.6606 83.0818 23.628 83.0527 23.6356C83.0497 23.6364 83.0496 23.6323 83.0459 23.6267C83.0077 23.5692 83.0092 23.5158 83.0651 23.4675C83.1283 23.5228 83.1045 23.5941 83.1069 23.6594C83.149 24.7886 83.0322 25.9001 82.6572 26.9856C82.3966 27.7398 81.9962 28.428 81.4694 29.0601C81.4392 29.0875 81.409 29.1148 81.3788 29.1422C81.3473 29.1535 81.305 29.1485 81.2988 29.1258C81.2412 28.9155 80.9415 28.8372 80.9382 28.5955C80.9375 28.5493 80.8522 28.5176 80.8778 28.4536C81.0514 28.1791 81.2724 27.9322 81.4476 27.6572C81.6649 27.3157 81.82 26.9543 81.9661 26.5877C82.0922 26.1806 82.2129 25.7722 82.2881 25.3549C82.391 24.7837 82.4413 24.2088 82.426 23.6297C82.4225 23.4951 82.4278 23.3603 82.429 23.2255C82.5973 23.1766 82.7063 22.9887 82.9299 23.0617C82.9672 23.0738 82.9799 23.0004 83.0201 22.9805Z" fill="#E24849"/>
<path d="M74.7705 10.5385C74.7734 10.5258 74.7777 10.5135 74.7835 10.5016C74.9664 10.4803 75.0276 10.532 74.9949 10.6963C74.9055 11.1451 75.1408 11.5106 75.3693 11.8786C75.0023 13.1945 74.5074 14.4717 73.8935 15.7119C73.6816 16.14 73.4484 16.5597 73.2249 16.9832C73.1078 16.9498 73.0205 16.9711 72.9431 17.0674C72.9079 17.1114 72.8422 17.2348 72.7461 17.1023C72.8948 16.6217 73.1138 16.1632 73.2962 15.6933C73.6896 14.6797 74.0198 13.6534 74.1172 12.5781C74.1368 12.3614 74.111 12.1483 74.0615 11.9367C74.0509 11.882 74.0618 11.829 74.089 11.7806C74.2946 11.4154 74.4886 11.0456 74.6664 10.669C74.6898 10.6195 74.7301 10.5784 74.7705 10.5385Z" fill="#F6C3C1"/>
<path d="M68.9466 22.9775C68.9508 23.07 68.9481 23.1587 69.1047 23.0813C69.1864 23.0408 69.2783 23.0554 69.3544 23.1196C69.5563 23.2901 69.7852 23.3477 70.0511 23.2447C70.1407 23.21 70.1683 23.252 70.1808 23.3277C70.1968 23.4246 70.2012 23.5305 70.3142 23.5901C70.2985 24.1692 70.2827 24.7484 70.267 25.3276C70.2291 25.4149 70.1965 25.5043 70.1524 25.589C70.0461 25.7933 69.912 25.8382 69.6756 25.7545C69.4511 25.6749 69.3146 25.5168 69.2056 25.3346C69.0392 25.0564 68.9606 24.7552 68.9279 24.4452C68.8762 23.9559 68.861 23.4659 68.9466 22.9775Z" fill="#F5BDBC"/>
<path d="M83.5605 21.1645C83.4422 20.9728 83.4595 20.7417 83.3356 20.5517C82.9282 19.2864 82.2834 18.1114 81.6054 16.949C81.5115 16.7881 81.4186 16.6268 81.3252 16.4656C81.3986 16.3406 81.4188 16.1688 81.6448 16.1781C82.2843 16.9947 82.8583 17.8464 83.3712 18.7308C83.2445 18.9568 83.084 19.1777 83.2193 19.4472C83.3946 19.7966 83.515 20.1638 83.633 20.5295C83.7 20.737 83.7152 20.9649 83.5605 21.1645Z" fill="#ED7371"/>
<path d="M83.0203 22.9817C83.0097 23.0902 83.0592 23.2772 82.8302 23.0904C82.7798 23.0492 82.7237 23.0923 82.6998 23.1314C82.6372 23.2341 82.5357 23.2323 82.4292 23.2267C82.3651 21.8968 82.059 20.6055 81.6439 19.3316C81.6314 19.2932 81.6221 19.254 81.6113 19.2152C81.7468 19.1612 81.8826 19.17 82.0185 19.2136C82.2995 19.7986 82.4863 20.4097 82.6548 21.0259C82.6969 21.1799 82.7407 21.3334 82.7836 21.4872C82.8518 21.8717 82.9143 22.2571 82.9918 22.6401C83.0149 22.7548 83.0134 22.8677 83.0203 22.9817Z" fill="#EE5556"/>
<path d="M75.369 11.8788C75.2276 11.8649 75.1647 11.7901 75.1381 11.6691C75.102 11.5052 75.052 11.3438 74.9667 11.1926C74.8759 11.0314 74.8424 10.8706 74.9365 10.6941C74.9995 10.5759 74.9409 10.4989 74.7832 10.5019C75.0731 10.0103 75.2725 9.48466 75.5108 8.97365C75.5569 8.87488 75.6027 8.77603 75.6486 8.67722C75.7284 8.57682 75.7675 8.65533 75.7807 8.71117C75.82 8.87708 75.9412 8.99645 76.0515 9.12313C75.8849 10.0536 75.6812 10.9769 75.369 11.8788Z" fill="#F6B0AE"/>
<path d="M72.7756 17.147C72.853 17.1062 72.9153 17.0516 72.9576 16.9811C73.0486 16.8296 73.1364 16.8606 73.2246 16.9825C72.9813 17.4876 72.7359 17.9918 72.4953 18.4978C72.2245 19.0672 71.9833 19.6468 71.7494 20.2289C71.7247 20.2903 71.694 20.3498 71.6609 20.4214C71.5353 20.2078 71.6473 19.9816 71.5476 19.7833C71.5331 19.7007 71.6142 19.6482 71.6303 19.5752C71.602 19.4905 71.6447 19.4166 71.6784 19.3427C71.9854 18.6709 72.3045 18.0037 72.6242 17.3368C72.6584 17.2654 72.6742 17.1778 72.7756 17.147Z" fill="#F5AAA9"/>
<path d="M82.0184 19.2118C81.8828 19.2307 81.7471 19.2446 81.6112 19.2134C81.2951 18.3004 80.9259 17.4043 80.5257 16.5182C80.4057 16.2526 80.2801 15.989 80.1748 15.7178C80.9308 16.8239 81.5345 17.9928 82.0184 19.2118Z" fill="#F56969"/>
<path d="M81.6448 16.1774C81.4619 16.206 81.4846 16.4155 81.3253 16.4649C81.0803 16.0871 80.8301 15.7118 80.5919 15.3306C80.3016 14.8663 80.0213 14.397 79.737 13.9297C79.7241 13.9084 79.7148 13.8853 79.7226 13.8525C80.4037 14.6022 81.0654 15.3627 81.6448 16.1774Z" fill="#ED5758"/>
<path d="M76.0514 9.12382C75.852 9.06759 75.7911 8.91769 75.7401 8.7606C75.7266 8.71904 75.7583 8.63562 75.6484 8.67791C75.8682 8.06327 76.1244 7.45907 76.3165 6.83641C76.3235 6.81343 76.3518 6.79561 76.3701 6.77539C76.3235 7.52465 76.2232 8.26861 76.0904 9.00929C76.0834 9.04832 76.0646 9.08568 76.0514 9.12382Z" fill="#F49A95"/>
<path d="M78.6477 31.7379C78.8911 31.7539 79.1053 31.6517 79.3263 31.5917C80.2589 31.3383 81.1135 30.9423 81.9098 30.4418C82.0676 30.3426 82.2271 30.2329 82.427 30.1988C82.2224 30.4399 81.932 30.5943 81.6588 30.7548C80.8364 31.2377 79.9498 31.6124 79.01 31.8769C78.371 32.0568 77.72 32.1777 77.0457 32.2326C75.6791 32.3439 74.3671 32.1644 73.0986 31.7283C72.3866 31.4835 71.7081 31.1703 71.1006 30.7491C71.0415 30.7081 70.9726 30.6783 70.9083 30.6433C70.7727 30.4665 70.5274 30.3878 70.4062 30.1981C70.49 30.1487 70.5508 30.1998 70.6091 30.2395C71.8465 31.0833 73.2759 31.5243 74.779 31.8028C75.6444 31.9632 76.5208 31.9564 77.4003 31.9092C77.8246 31.8864 78.2312 31.7895 78.6477 31.7379Z" fill="#A0181E"/>
<path d="M74.7708 10.5408C74.6214 10.9346 74.4162 11.3064 74.2081 11.6772C74.1645 11.7549 74.1272 11.8355 74.087 11.9147C74.0705 12.1496 73.8878 12.3176 73.7734 12.5107C73.0113 13.7972 72.123 15.0206 71.3705 16.3122C71.3462 16.354 71.3227 16.3969 71.272 16.4199C71.1542 16.6117 71.0363 16.8036 70.9184 16.9954C70.8659 16.9442 70.8458 16.9896 70.8189 17.0208C70.555 17.3262 70.3606 17.6696 70.1567 18.0061C69.5255 19.0479 68.9148 20.099 68.5166 21.2368C68.5209 20.9701 68.6571 20.7341 68.7417 20.4873C68.8298 20.2302 68.9464 19.981 69.0389 19.7251C69.1315 19.469 69.295 19.2374 69.3582 18.9719C69.7561 18.2465 70.0987 17.4964 70.5584 16.7987C71.0939 15.9859 71.6459 15.1817 72.1843 14.3704C72.5987 13.7459 73.003 13.1161 73.4118 12.4887C73.7336 12.0652 73.9487 11.5884 74.2522 11.1558C74.376 10.9792 74.496 10.8004 74.6268 10.6281C74.6566 10.5889 74.6688 10.4972 74.7708 10.5408Z" fill="#EF3E41"/>
<path d="M78.6474 31.7371C78.3109 31.8597 77.9517 31.8904 77.5974 31.9379C77.1111 32.0033 76.6204 31.9743 76.1313 31.9821C75.3463 31.9945 74.5922 31.8428 73.8416 31.6662C73.051 31.4802 72.3122 31.1757 71.57 30.8784C71.2003 30.7304 70.9094 30.4809 70.5769 30.2853C70.5214 30.2526 70.4839 30.195 70.4059 30.1973C69.8305 29.8027 69.4176 29.2847 69.0277 28.7505C68.9007 28.5765 68.7926 28.3915 68.6758 28.2115C68.5111 27.8439 68.3121 27.489 68.1907 27.1053C68.0002 26.5033 67.8889 25.8904 67.8066 25.2701C67.7378 24.7514 67.7784 24.2334 67.7699 23.7153C67.767 23.5383 67.7859 23.3573 67.8565 23.1865C67.8566 23.3684 67.8622 23.5504 67.8559 23.7322C67.8305 24.4681 67.9688 25.1841 68.1473 25.9C68.4322 27.043 69.025 28.0491 69.7982 28.9815C69.927 29.1368 69.9711 29.1407 70.0439 29.017C70.1448 29.0051 70.1692 29.081 70.2142 29.1336C70.6892 29.7582 71.2425 30.3099 72.009 30.6639C72.0616 30.6881 72.1223 30.7066 72.1363 30.7688C72.4845 31.0379 72.9133 31.1645 73.3297 31.3188C73.9003 31.5302 74.5122 31.5882 75.1026 31.7239C75.6567 31.8512 76.2349 31.8771 76.8059 31.8926C77.2947 31.9059 77.7849 31.8587 78.264 31.7602C78.3933 31.7336 78.5197 31.7437 78.6474 31.7371Z" fill="#BB171D"/>
<path d="M80.8776 28.4531C80.9347 28.5395 81.1144 28.5737 81.0229 28.725C81.0161 28.7362 81.0334 28.7742 81.0463 28.7773C81.2569 28.8279 81.2738 29.0164 81.3785 29.1418C81.3334 29.1962 81.2883 29.2507 81.2433 29.3052C81.259 29.4008 81.1914 29.4397 81.1051 29.4659C80.6514 29.8524 80.1833 30.2229 79.6399 30.5098C79.4299 30.6208 79.1935 30.6741 78.9612 30.7141C78.7775 30.7458 78.6352 30.5917 78.5277 30.4911C78.3829 30.3558 78.2135 30.2959 78.037 30.2269C77.9853 30.2067 77.9047 30.1974 77.9043 30.1326C77.9039 30.0787 77.9777 30.0719 78.0218 30.0489C78.4091 29.8469 78.8569 29.775 79.2542 29.5922C79.789 29.346 80.2746 29.0459 80.6651 28.6332C80.7285 28.5662 80.7898 28.4973 80.8776 28.4531Z" fill="#D53A3C"/>
<path d="M72.1369 30.7685C71.2795 30.4213 70.6657 29.8405 70.1709 29.1454C70.3174 29.0226 70.5105 29.0473 70.6847 29.0278C70.9863 28.9941 71.2943 28.9316 71.587 29.0718C71.9459 29.4794 72.264 29.908 72.3859 30.4244C72.4423 30.6632 72.3689 30.7479 72.1369 30.7685Z" fill="#EFDDDD"/>
<path d="M71.5866 29.0708C71.4243 29.1459 71.2914 28.9977 71.1135 29.0368C70.8078 29.104 70.4857 29.1118 70.1705 29.1445C70.1283 29.1015 70.0862 29.0586 70.044 29.0157C69.9391 28.78 69.7866 28.5594 69.7464 28.303C69.7169 28.1145 69.6888 27.9195 69.9109 27.7981C70.0975 27.6961 70.3581 27.7335 70.5594 27.8925C70.8209 28.0989 71.0166 28.3573 71.2147 28.609C71.3125 28.7333 71.4345 28.8426 71.514 28.9783C71.5382 29.0091 71.5624 29.04 71.5866 29.0708Z" fill="#F8F1F2"/>
<path d="M81.337 29.7988C81.4945 29.933 81.5007 30.0623 81.3376 30.2018C81.2989 30.2349 81.2417 30.2923 81.2892 30.36C80.9083 30.5728 80.479 30.6601 80.0439 30.7408C80.4926 30.4433 80.9114 30.1174 81.337 29.7988Z" fill="#E3716F"/>
<path d="M73.7656 28.5016C73.8639 28.4333 73.9328 28.3736 74.0381 28.395C74.0657 28.4007 74.0781 28.4352 74.0566 28.4608C73.9889 28.5411 73.9016 28.5526 73.7656 28.5016Z" fill="#D71720"/>
<path d="M81.696 29.458C81.6396 29.519 81.5945 29.59 81.5098 29.626C81.5306 29.3987 81.5572 29.3747 81.696 29.458Z" fill="#CB131B"/>
<path d="M81.1055 29.4654C81.1515 29.4118 81.1976 29.3582 81.2436 29.3047C81.2968 29.3308 81.3567 29.367 81.3021 29.4208C81.2561 29.4659 81.1945 29.5359 81.1055 29.4654Z" fill="#CB131B"/>
<path d="M73.674 28.7822C73.7356 28.7833 73.7666 28.8013 73.7658 28.8405C73.765 28.8803 73.7336 28.8973 73.69 28.8921C73.6494 28.8872 73.6167 28.8653 73.6144 28.8303C73.6115 28.786 73.6548 28.7835 73.674 28.7822Z" fill="#D71720"/>
<path d="M72.1396 26.2715C72.2701 26.2747 72.3567 26.2917 72.3956 26.386C72.4006 26.398 72.3791 26.4331 72.3684 26.4337C72.2515 26.4394 72.2218 26.3496 72.1396 26.2715Z" fill="#C80C13"/>
<path d="M74.2277 27.1709C74.2785 27.1728 74.3062 27.2007 74.313 27.2429C74.3209 27.2916 74.289 27.3143 74.2372 27.3155C74.1889 27.3167 74.1488 27.304 74.1494 27.2526C74.15 27.2088 74.1771 27.1809 74.2277 27.1709Z" fill="#C80C13"/>
<path d="M83.0652 23.4662C83.0652 23.5314 83.0652 23.5965 83.0652 23.6759C82.9362 23.5313 82.9389 23.3626 83.0594 23.2275C83.0613 23.3071 83.0633 23.3866 83.0652 23.4662Z" fill="#EE5556"/>
<path d="M71.2715 16.4182C71.4685 15.971 71.7495 15.5611 72.0182 15.1486C72.7063 14.0921 73.3996 13.0386 74.0453 11.9609C74.0557 11.9435 74.0726 11.929 74.0864 11.9131C74.1724 12.0374 74.1867 12.1766 74.1837 12.3168C74.1663 13.1148 73.9765 13.8857 73.7349 14.6508C73.4668 15.4996 73.0983 16.3168 72.7756 17.1484C72.3939 17.9578 72.0121 18.7672 71.6303 19.5766C71.5879 19.5568 71.5521 19.5308 71.559 19.4837C71.6292 19.0069 71.598 18.5272 71.5823 18.0505C71.5675 17.6034 71.5212 17.1539 71.4018 16.7158C71.3739 16.6133 71.3157 16.5173 71.2715 16.4182Z" fill="#FDF5F7"/>
<path d="M93.02 30.21C92.52 30.21 92.13 30.07 91.85 29.79C91.59 29.51 91.46 29.12 91.46 28.62V10.23C91.46 9.71 91.59 9.32 91.85 9.06C92.13 8.78 92.52 8.64 93.02 8.64C93.52 8.64 93.9 8.78 94.16 9.06C94.44 9.32 94.58 9.71 94.58 10.23V28.62C94.58 29.12 94.45 29.51 94.19 29.79C93.93 30.07 93.54 30.21 93.02 30.21ZM100.657 30.21C100.177 30.21 99.8073 30.08 99.5473 29.82C99.2873 29.54 99.1573 29.16 99.1573 28.68V16.68C99.1573 16.18 99.2873 15.8 99.5473 15.54C99.8073 15.28 100.167 15.15 100.627 15.15C101.107 15.15 101.467 15.28 101.707 15.54C101.967 15.8 102.097 16.18 102.097 16.68V19.02L101.767 18.48C102.207 17.36 102.897 16.52 103.837 15.96C104.777 15.38 105.857 15.09 107.077 15.09C108.237 15.09 109.197 15.31 109.957 15.75C110.737 16.17 111.317 16.82 111.697 17.7C112.077 18.56 112.267 19.65 112.267 20.97V28.68C112.267 29.16 112.137 29.54 111.877 29.82C111.617 30.08 111.247 30.21 110.767 30.21C110.267 30.21 109.887 30.08 109.627 29.82C109.367 29.54 109.237 29.16 109.237 28.68V21.15C109.237 19.89 108.987 18.97 108.487 18.39C108.007 17.81 107.247 17.52 106.207 17.52C104.987 17.52 104.007 17.9 103.267 18.66C102.547 19.42 102.187 20.44 102.187 21.72V28.68C102.187 29.7 101.677 30.21 100.657 30.21Z" fill="#111827"/>
</svg>
