<svg width="40" height="40" viewBox="0 0 40 40" fill="none" xmlns="http://www.w3.org/2000/svg">
<rect width="40" height="40" rx="20" fill="#4BAA17"/>
<path d="M21.3098 14.8881C21.7328 15.1533 22.2215 15.2665 22.7104 15.2166C22.8023 15.2072 22.8943 15.192 22.9859 15.171C23.5641 15.0384 24.056 14.6886 24.3711 14.186C24.6862 13.6833 24.7867 13.0881 24.6541 12.5099C24.5215 11.9317 24.1716 11.4397 23.669 11.1246C23.1664 10.8096 22.5712 10.7091 21.9929 10.8417C21.4147 10.9743 20.9228 11.3241 20.6077 11.8268C20.2926 12.3294 20.1921 12.9246 20.3247 13.5028C20.4573 14.081 20.8072 14.573 21.3098 14.8881Z" fill="white"/>
<path d="M27.5165 14.546L27.5164 14.546C27.2646 14.3653 26.9575 14.2935 26.6516 14.3438C26.3458 14.3941 26.0778 14.5605 25.8971 14.8123L24.3657 16.9467L22.3694 15.9255L22.6092 16.4428C22.6877 16.6123 22.7372 16.7928 22.7563 16.9794C22.7927 17.3371 22.714 17.6907 22.5286 18.002L22.2493 18.4709L23.5425 19.1325C23.8893 19.3099 24.2776 19.3828 24.6653 19.3432C24.756 19.334 24.8468 19.3184 24.9354 19.2969C25.4041 19.1833 25.8172 18.9049 26.0984 18.513L27.7828 16.1653C28.1558 15.6454 28.0363 14.919 27.5165 14.546Z" fill="white"/>
<path d="M16.0557 23.7965C15.8735 23.6887 15.7176 23.5358 15.6048 23.3544C15.6004 23.3473 15.5961 23.3401 15.5919 23.3329L15.3635 22.9475L14.6243 25.3598L12.4186 27.1629C12.1803 27.361 12.0333 27.64 12.0048 27.9487C11.9763 28.2573 12.0697 28.5586 12.2678 28.797L12.2712 28.8011C12.5276 29.1067 12.9095 29.247 13.2798 29.2093C13.5011 29.1867 13.7183 29.1004 13.9019 28.9479L16.6404 26.702L17.4689 23.998L16.697 23.979C16.4699 23.9734 16.2481 23.9103 16.0557 23.7965Z" fill="white"/>
<path d="M22.7322 21.3511L20.0077 21.2999L22.1169 17.7589C22.2925 17.4642 22.3671 17.1294 22.3325 16.7908C22.2736 16.2132 21.9067 15.7152 21.3751 15.4911C21.3168 15.4665 21.2564 15.4451 21.1955 15.4276L19.9063 15.0556L19.9003 15.0539L17.2027 14.4557L17.2009 14.4553C16.9911 14.4109 16.7773 14.3994 16.5654 14.421C16.3691 14.441 16.1763 14.4894 15.9924 14.5648C15.6086 14.7222 15.2847 14.9882 15.0557 15.3343L13.3826 17.8088L13.3814 17.8105C13.2105 18.0691 13.1505 18.3788 13.2125 18.6825C13.2745 18.9857 13.4506 19.2468 13.7086 19.4177C13.9314 19.5692 14.2015 19.6376 14.4692 19.6102C14.8127 19.5752 15.119 19.3902 15.3095 19.1025L16.8911 16.7637L18.502 17.1266L15.7435 21.7576L15.7383 21.7664L15.734 21.7756C15.6793 21.8939 15.6436 22.0184 15.6279 22.1457C15.5855 22.4893 15.6924 22.8384 15.9213 23.1038C16.1509 23.37 16.4719 23.5213 16.8252 23.53L21.9776 23.6565L20.9217 25.8398C20.6456 26.417 20.8905 27.1112 21.4677 27.3874C21.6602 27.4795 21.8738 27.5168 22.0854 27.4953C22.4916 27.4538 22.8392 27.2094 23.0152 26.8414L24.3775 24.0177C24.6523 23.4434 24.6167 22.7771 24.2825 22.2354C23.9482 21.6937 23.3686 21.3631 22.7322 21.3511Z" fill="white"/>
</svg>
